<svg xmlns="http://www.w3.org/2000/svg" width="27.871" height="27.871" viewBox="0 0 27.871 27.871">
  <g id="Group_4414" data-name="Group 4414" transform="translate(-28 -55)">
    <path id="Fill_1" data-name="Fill 1" d="M27.871,13.936A13.936,13.936,0,1,1,13.936,0,13.951,13.951,0,0,1,27.871,13.936" transform="translate(55.871 55) rotate(90)" fill="#fff"/>
    <path id="Fill_4" data-name="Fill 4" d="M11.766,1.044a1.04,1.04,0,0,1-.305.737L6.625,6.641a1.048,1.048,0,0,1-1.481,0L.3,1.782A1.045,1.045,0,0,1,1.786.307l4.1,4.115L9.98.307a1.045,1.045,0,0,1,1.785.737" transform="translate(45.409 63.053) rotate(90)" fill="#233245"/>
  </g>
</svg>
