<svg xmlns="http://www.w3.org/2000/svg" width="10" height="12" viewBox="0 0 10 12">
  <g id="Iconly_Bold_Delete" data-name="Iconly/Bold/Delete" opacity="0.5">
    <g id="Delete">
      <path id="Delete-2" data-name="Delete" d="M2.851,11.977a1.682,1.682,0,0,1-1.629-1.7C1.049,8.573.758,4.534.753,4.493a.5.5,0,0,1,.106-.335.381.381,0,0,1,.291-.14H8.855a.39.39,0,0,1,.291.14.47.47,0,0,1,.1.335c0,.041-.3,4.085-.465,5.787a1.679,1.679,0,0,1-1.665,1.7C6.4,11.994,5.694,12,5,12,4.268,12,3.549,11.994,2.851,11.977ZM.4,3.055A.424.424,0,0,1,0,2.614V2.386a.42.42,0,0,1,.4-.441h1.62a.728.728,0,0,0,.689-.609L2.791.928A1.127,1.127,0,0,1,3.853,0H6.147A1.124,1.124,0,0,1,7.2.9l.09.438a.727.727,0,0,0,.69.61H9.6a.42.42,0,0,1,.4.441v.228a.424.424,0,0,1-.4.441Z" fill="#e54c38"/>
    </g>
  </g>
</svg>
