<svg id="Dukan_diet_1_" xmlns="http://www.w3.org/2000/svg" width="142.739" height="140.623" viewBox="0 0 142.739 140.623">
  <g id="Group_4778" data-name="Group 4778" transform="translate(26.933 5.43)">
    <g id="Group_4772" data-name="Group 4772">
      <path id="Path_20831" data-name="Path 20831" d="M816.775,491.516H749.94a4.778,4.778,0,0,1-4.751-4.279l-6.5-61.928a11.96,11.96,0,0,1,9.167-12.893l3.008-.7a141.845,141.845,0,0,1,32.172-3.781h.413a142.1,142.1,0,0,1,31.953,3.707l3.434.8a11.96,11.96,0,0,1,9.194,12.9l-6.5,61.9A4.779,4.779,0,0,1,816.775,491.516Z" transform="translate(-733.48 -407.756)" fill="#e54c38"/>
      <g id="Group_4771" data-name="Group 4771">
        <path id="Path_20832" data-name="Path 20832" d="M752.145,491.516H685.31a4.778,4.778,0,0,1-4.751-4.279l-6.5-61.928a11.96,11.96,0,0,1,9.167-12.893l3.008-.7A141.845,141.845,0,0,1,718.4,407.93h.413a142.1,142.1,0,0,1,31.953,3.707l3.434.8a11.96,11.96,0,0,1,9.194,12.9l-6.5,61.9A4.779,4.779,0,0,1,752.145,491.516Z" transform="translate(-673.816 -407.756)" fill="#fff"/>
        <path id="Path_20833" data-name="Path 20833" d="M750.052,489.595H683.218a4.942,4.942,0,0,1-4.925-4.435l-6.5-61.928a12.156,12.156,0,0,1,9.3-13.082l3.008-.7a142.214,142.214,0,0,1,32.211-3.785h.412a142.5,142.5,0,0,1,31.993,3.711l3.434.8a12.15,12.15,0,0,1,9.328,13.089l-6.5,61.9A4.941,4.941,0,0,1,750.052,489.595Zm-33.33-83.586h-.412a141.874,141.874,0,0,0-32.133,3.776l-3.008.7a11.806,11.806,0,0,0-9.034,12.706l6.5,61.928a4.593,4.593,0,0,0,4.578,4.122h66.835a4.592,4.592,0,0,0,4.578-4.122l6.5-61.9a11.8,11.8,0,0,0-9.06-12.711l-3.434-.8A142.092,142.092,0,0,0,716.723,406.008Z" transform="translate(-671.724 -405.66)"/>
      </g>
    </g>
    <g id="Group_4776" data-name="Group 4776" transform="translate(17.471 7.172)">
      <g id="Group_4773" data-name="Group 4773">
        <path id="Path_20834" data-name="Path 20834" d="M952,519.958H905.231c-2.143,0-3.881-2.2-3.881-4.91v-5.311c0-3.4,1.968-6.293,4.627-6.8l.052-.008a152.1,152.1,0,0,1,45.23,0c2.656.507,4.62,3.4,4.62,6.794v5.319C955.879,517.76,954.142,519.958,952,519.958Z" transform="translate(-901.176 -501.071)" fill="#fff"/>
        <path id="Path_20835" data-name="Path 20835" d="M949.9,518.056H903.135c-2.236,0-4.055-2.281-4.055-5.085v-5.311c0-3.515,2.006-6.445,4.77-6.967l.058-.009a152.45,152.45,0,0,1,45.282,0c2.766.529,4.768,3.458,4.768,6.967v5.319C953.958,515.775,952.139,518.056,949.9,518.056ZM926.55,499.343a152.261,152.261,0,0,0-22.589,1.687l-.052.008c-2.55.483-4.479,3.33-4.479,6.623v5.311c0,2.611,1.662,4.736,3.706,4.736H949.9c2.043,0,3.706-2.125,3.706-4.736v-5.319c0-3.288-1.925-6.135-4.478-6.623A152.276,152.276,0,0,0,926.55,499.343Z" transform="translate(-899.08 -498.994)" fill="#e54c38"/>
      </g>
      <g id="Group_4774" data-name="Group 4774" transform="translate(24.841 10.072)">
        <path id="Path_20836" data-name="Path 20836" d="M1242.8,636.946l.734-6.623a.293.293,0,0,1,.583,0l.735,6.623Z" transform="translate(-1241.229 -630.062)" fill="#c84231"/>
        <rect id="Rectangle_2204" data-name="Rectangle 2204" width="5.197" height="2.092" transform="translate(0 6.783)" fill="#c84231"/>
      </g>
      <g id="Group_4775" data-name="Group 4775" transform="translate(6.057 3.027)">
        <path id="Path_20837" data-name="Path 20837" d="M1254,543.158a.174.174,0,0,1-.174-.174v-4.429a.174.174,0,1,1,.349,0v4.429A.174.174,0,0,1,1254,543.158Z" transform="translate(-1232.627 -538.38)"/>
        <path id="Path_20838" data-name="Path 20838" d="M1322.191,546.665h-.011a.175.175,0,0,1-.164-.184l.268-4.429a.178.178,0,0,1,.184-.164.175.175,0,0,1,.164.184l-.268,4.429A.174.174,0,0,1,1322.191,546.665Z" transform="translate(-1295.574 -541.618)"/>
        <path id="Path_20839" data-name="Path 20839" d="M1386.828,551.9l-.026,0a.174.174,0,0,1-.146-.2l.671-4.429a.174.174,0,1,1,.344.052l-.671,4.429A.175.175,0,0,1,1386.828,551.9Z" transform="translate(-1355.245 -546.451)"/>
        <path id="Path_20840" data-name="Path 20840" d="M1449.7,562.382a.185.185,0,0,1-.042,0,.174.174,0,0,1-.128-.211l1.074-4.429a.174.174,0,1,1,.339.082l-1.074,4.428A.174.174,0,0,1,1449.7,562.382Z" transform="translate(-1413.284 -556.127)"/>
        <path id="Path_20841" data-name="Path 20841" d="M1514.334,579.834a.166.166,0,0,1-.046-.006.175.175,0,0,1-.122-.215l1.208-4.429a.174.174,0,1,1,.337.092l-1.208,4.429A.175.175,0,0,1,1514.334,579.834Z" transform="translate(-1472.952 -572.237)"/>
        <path id="Path_20842" data-name="Path 20842" d="M1182.728,546.665a.174.174,0,0,1-.173-.164l-.268-4.429a.174.174,0,0,1,.164-.184.176.176,0,0,1,.185.164l.268,4.429a.174.174,0,0,1-.164.184Z" transform="translate(-1166.581 -541.618)"/>
        <path id="Path_20843" data-name="Path 20843" d="M1113.258,551.9a.174.174,0,0,1-.172-.148l-.671-4.429a.174.174,0,0,1,.345-.052l.671,4.429a.174.174,0,0,1-.146.2Z" transform="translate(-1102.078 -546.451)"/>
        <path id="Path_20844" data-name="Path 20844" d="M1045.536,562.373a.174.174,0,0,1-.169-.134l-1.074-4.429a.174.174,0,1,1,.339-.082l1.074,4.429a.174.174,0,0,1-.128.21A.166.166,0,0,1,1045.536,562.373Z" transform="translate(-1039.187 -556.117)"/>
        <path id="Path_20845" data-name="Path 20845" d="M979.292,579.837a.175.175,0,0,1-.168-.128l-1.208-4.429a.175.175,0,0,1,.337-.092l1.208,4.429a.175.175,0,0,1-.122.214A.159.159,0,0,1,979.292,579.837Z" transform="translate(-977.909 -572.241)"/>
      </g>
    </g>
    <g id="Group_4777" data-name="Group 4777" transform="translate(7.145 30.809)">
      <path id="Path_20846" data-name="Path 20846" d="M796.684,854.541H773.2a4.35,4.35,0,0,1-4.335-3.9l-4.133-39.364a4.232,4.232,0,0,1,4.209-4.674h26.317a4.653,4.653,0,0,1,4.647,4.647V851.32A3.225,3.225,0,0,1,796.684,854.541Zm-27.743-47.592a3.884,3.884,0,0,0-3.862,4.289l4.133,39.363a4,4,0,0,0,3.988,3.592h23.483a2.876,2.876,0,0,0,2.872-2.872V811.247a4.3,4.3,0,0,0-4.3-4.3Z" transform="translate(-764.709 -806.6)" fill="#c84231"/>
      <path id="Path_20847" data-name="Path 20847" d="M1316.267,854.541h-23.485a3.225,3.225,0,0,1-3.221-3.221V811.247a4.653,4.653,0,0,1,4.647-4.647h26.318a4.232,4.232,0,0,1,4.209,4.674l-4.134,39.364A4.348,4.348,0,0,1,1316.267,854.541Zm-22.059-47.592a4.3,4.3,0,0,0-4.3,4.3V851.32a2.876,2.876,0,0,0,2.872,2.872h23.485a4,4,0,0,0,3.988-3.592l4.133-39.363a3.883,3.883,0,0,0-3.862-4.289h-26.318Z" transform="translate(-1249.229 -806.6)" fill="#c84231"/>
    </g>
  </g>
  <g id="Group_4806" data-name="Group 4806" transform="translate(24.025 60.621)">
    <g id="Group_4782" data-name="Group 4782" transform="translate(49.117)">
      <path id="Path_20848" data-name="Path 20848" d="M1574.409,1126.889a4.7,4.7,0,0,1,2.826,4.284,6.093,6.093,0,0,1,4.91,8.478c-.022.052-.048.1-.072.153a2.121,2.121,0,0,1,1.889,2.966l-.034.073a3.866,3.866,0,0,1,2.933,5.357,3.839,3.839,0,0,1-.251.482l.074.03a3.865,3.865,0,0,1,.086,7.052,3.159,3.159,0,0,1-1.378,5.55,4.7,4.7,0,0,1-3.809,4.068,4.751,4.751,0,0,1-.265.8,4.684,4.684,0,0,1-2.8,2.577,2.206,2.206,0,0,1-.182.951,2.14,2.14,0,0,1-2.8,1.121h0a10.774,10.774,0,0,1-13.309-8.582c-3.148-2.41-8.323-6.793-10.995-11.355a5.549,5.549,0,0,1-2.7-7.215q.073-.166.155-.325a9.2,9.2,0,0,1,1.219-17.11,2.124,2.124,0,0,1,3.294-.454,3.866,3.866,0,0,1,4.622-1.213c.04.017.079.036.117.054a2.122,2.122,0,0,1,3.583.578,3.864,3.864,0,0,1,5.282,1.775,4.676,4.676,0,0,1,2.227.375,4.7,4.7,0,0,0,5.373-.475Z" transform="translate(-1523.652 -1123.889)" fill="#2f7825"/>
      <g id="Group_4779" data-name="Group 4779" transform="translate(2.872 13.039)">
        <path id="Path_20849" data-name="Path 20849" d="M1355.8,1324.246s-9.184-4.521-12.26-1.507-16.293,18.421-16.293,18.421l-14.522-8.818s19.983-11.322,22.237-18.365,1.492-18.127,1.492-18.127l2.148.932s-.9,10.509.919,10.448,4.335-5.225,5.258-8.812c2.861-.118,6.569,1.582,6.569,1.582s-9.98,8.99-7.265,9.625,10.141-4.57,10.141-4.57l.8,2.97s-12.9,5.1-10.524,7.76,9.849-3.7,10.615-4c.836,1-4.377,4.444-1.921,4.423a36.2,36.2,0,0,0,5-.457l.675,4.916s-8.13-2.986-8.5-1.514,6.588,3.4,6.588,3.4Z" transform="translate(-1312.545 -1295.674)" fill="#fff"/>
        <path id="Path_20850" data-name="Path 20850" d="M1325.146,1339.23a.179.179,0,0,1-.091-.026l-14.522-8.818a.174.174,0,0,1,0-.3c.2-.113,19.949-11.37,22.156-18.267,2.217-6.929,1.492-17.952,1.484-18.063a.175.175,0,0,1,.245-.172l2.148.932a.175.175,0,0,1,.1.175c-.211,2.454-.534,9.061.487,10.137a.321.321,0,0,0,.253.121c1.6-.054,4.1-4.793,5.1-8.681a.174.174,0,0,1,.162-.131,17.68,17.68,0,0,1,6.649,1.6.176.176,0,0,1,.1.132.172.172,0,0,1-.056.156c-3.261,2.938-7.992,7.776-7.661,9.065.022.084.079.2.319.26,2.614.612,9.928-4.492,10-4.543a.175.175,0,0,1,.269.1l.8,2.97a.174.174,0,0,1-.1.208c-.1.04-10.049,4-10.677,6.645a.879.879,0,0,0,.219.837c1.816,2.036,7.053-1.7,9.29-3.294a8.851,8.851,0,0,1,1.131-.754.175.175,0,0,1,.2.05c.481.575-.407,1.547-1.348,2.577-.548.6-1.3,1.422-1.188,1.67.026.058.173.114.48.115a36.171,36.171,0,0,0,4.974-.454.169.169,0,0,1,.133.031.173.173,0,0,1,.07.117l.675,4.916a.174.174,0,0,1-.233.187c-1.892-.694-7.039-2.372-8.123-1.8a.244.244,0,0,0-.144.161c-.225.9,3.645,2.41,6.465,3.193a.176.176,0,0,1,.118.109.173.173,0,0,1-.02.158l-1.158,1.69a.174.174,0,0,1-.221.058c-.091-.044-9.108-4.433-12.061-1.539-3.036,2.975-16.149,18.257-16.281,18.41A.177.177,0,0,1,1325.146,1339.23Zm-14.179-8.988,14.143,8.587c1.208-1.407,13.3-15.47,16.205-18.32,2.958-2.9,11.122.835,12.324,1.409l.936-1.366c-1.58-.452-6.844-2.076-6.477-3.548a.594.594,0,0,1,.319-.385c1.306-.691,6.722,1.172,8.134,1.678l-.612-4.453a36.132,36.132,0,0,1-4.852.43c-.162,0-.656.005-.8-.322-.193-.435.348-1.061,1.249-2.047.612-.67,1.425-1.56,1.39-1.985-.2.124-.535.364-.91.632-2.509,1.789-7.729,5.512-9.753,3.242a1.223,1.223,0,0,1-.3-1.15c.634-2.669,9.45-6.31,10.744-6.831l-.691-2.581c-1.243.851-7.54,5.05-10.076,4.455a.7.7,0,0,1-.577-.512c-.463-1.8,6.116-7.911,7.564-9.23a17.234,17.234,0,0,0-6.115-1.464c-.974,3.681-3.461,8.751-5.389,8.816a.672.672,0,0,1-.517-.23c-1.267-1.335-.684-9.148-.592-10.282l-1.773-.77c.1,1.787.519,11.543-1.518,17.907C1330.891,1318.6,1313.417,1328.835,1310.967,1330.243Z" transform="translate(-1310.45 -1293.57)" fill="#2f7825"/>
      </g>
      <path id="Path_20851" data-name="Path 20851" d="M1842.72,1468.968a2.12,2.12,0,0,1,1.971,2.547,4.345,4.345,0,0,1-.084,8.681,4.115,4.115,0,0,1-4.3,6.567,2.121,2.121,0,0,1-2.869-2.955,4.114,4.114,0,0,1,3.745-5.112,4.346,4.346,0,0,1,.194-5.894,1.582,1.582,0,0,0-1.6-1.638,2.12,2.12,0,1,1,2.95-2.2Z" transform="translate(-1793.767 -1440.726)" fill="#27651f"/>
      <path id="Path_20852" data-name="Path 20852" d="M1836.3,1486.75a.176.176,0,0,1-.069-.014,2.3,2.3,0,0,1-1.19-3.019,2.4,2.4,0,0,1,.122-.24,4.288,4.288,0,0,1,3.594-5.225,4.52,4.52,0,0,1,.272-5.732,1.45,1.45,0,0,0-1.414-1.5,2.294,2.294,0,0,1,.072-4.239.175.175,0,0,1,.128.325,1.945,1.945,0,0,0,.618,3.752.175.175,0,0,1,.164.154,1.951,1.951,0,0,0,.791,1.344.174.174,0,0,1,.022.264,4.17,4.17,0,0,0-.186,5.657.174.174,0,0,1-.122.288,3.938,3.938,0,0,0-3.586,4.894.175.175,0,0,1-.022.135,2.015,2.015,0,0,0-.136.258,1.945,1.945,0,0,0,1.01,2.559.175.175,0,0,1,.091.23A.167.167,0,0,1,1836.3,1486.75Z" transform="translate(-1791.68 -1440.424)" fill="#fff"/>
      <path id="Path_20853" data-name="Path 20853" d="M1590.016,1227.85a1.866,1.866,0,0,1-1.811,3.242,1.892,1.892,0,0,1-.522-.339,4.114,4.114,0,1,1,2.333-2.9Z" transform="translate(-1558.141 -1215.279)" fill="#27651f"/>
      <path id="Path_20854" data-name="Path 20854" d="M1586.41,1232.135a2.053,2.053,0,0,1-1.3-.466,4.29,4.29,0,1,1-2.813-8.087.175.175,0,0,1,.094.337,3.941,3.941,0,1,0,2.679,7.387.175.175,0,0,1,.19.031,1.693,1.693,0,0,0,2.421-.13.174.174,0,1,1,.263.229A2.034,2.034,0,0,1,1586.41,1232.135Z" transform="translate(-1555.633 -1215.915)" fill="#fff"/>
      <path id="Path_20855" data-name="Path 20855" d="M1716.946,1260.71a3.256,3.256,0,0,1,4.6,3.592,4.115,4.115,0,1,1-4.337,2.438c.006-.015.013-.029.02-.043-.056-.021-.113-.043-.168-.068a3.254,3.254,0,0,1-1.9-2.384,4.114,4.114,0,1,1,1.788-3.537Z" transform="translate(-1675.24 -1246.528)" fill="#27651f"/>
      <path id="Path_20856" data-name="Path 20856" d="M1720.838,1285.092a4.282,4.282,0,0,1-3.976-5.872l-.007,0a3.43,3.43,0,0,1-1.949-2.262,4.29,4.29,0,0,1-5.172-6.782.175.175,0,1,1,.241.253,3.941,3.941,0,0,0,4.946,6.1.175.175,0,0,1,.27.112,3.083,3.083,0,0,0,1.8,2.256c.053.023.106.044.16.064a.174.174,0,0,1,.1.233l-.02.043a3.942,3.942,0,0,0,6.432,4.326.174.174,0,1,1,.249.244A4.3,4.3,0,0,1,1720.838,1285.092Z" transform="translate(-1674.951 -1258.889)" fill="#fff"/>
      <g id="Group_4780" data-name="Group 4780" transform="translate(27.588 7.472)">
        <path id="Path_20857" data-name="Path 20857" d="M1634.305,1249.523a1.583,1.583,0,1,0,.822,2.083A1.583,1.583,0,0,0,1634.305,1249.523Z" transform="translate(-1632.092 -1247.22)" fill="#fff"/>
        <path id="Path_20858" data-name="Path 20858" d="M1693.814,1221.211a.991.991,0,1,0,.515,1.3A.99.99,0,0,0,1693.814,1221.211Z" transform="translate(-1687.792 -1221.128)" fill="#fff"/>
      </g>
      <path id="Path_20859" data-name="Path 20859" d="M1908.3,1674.182a1.455,1.455,0,1,0,.755,1.914A1.456,1.456,0,0,0,1908.3,1674.182Z" transform="translate(-1857.605 -1631.785)" fill="#fff"/>
      <path id="Path_20860" data-name="Path 20860" d="M1861.691,1657.628a.915.915,0,1,0,.475,1.2A.914.914,0,0,0,1861.691,1657.628Z" transform="translate(-1815.279 -1616.544)" fill="#fff"/>
      <g id="Group_4781" data-name="Group 4781" transform="translate(0 46.204)">
        <ellipse id="Ellipse_780" data-name="Ellipse 780" cx="5.196" cy="8.654" rx="5.196" ry="8.654" transform="matrix(0.398, -0.917, 0.917, 0.398, 0, 9.533)" fill="#fff"/>
        <path id="Path_20861" data-name="Path 20861" d="M1305.512,1765.363a12.976,12.976,0,0,1-5.091-1.125c-4.465-1.939-7.138-5.725-5.959-8.442s5.771-3.349,10.237-1.41,7.139,5.726,5.959,8.442C1309.94,1764.481,1307.959,1765.363,1305.512,1765.363Zm-5.927-11.76c-2.3,0-4.141.808-4.8,2.332-1.1,2.54,1.489,6.121,5.779,7.983s8.675,1.311,9.778-1.229-1.489-6.121-5.779-7.983A12.716,12.716,0,0,0,1299.585,1753.6Z" transform="translate(-1292.561 -1751.103)"/>
      </g>
      <path id="Path_20862" data-name="Path 20862" d="M1312,1781.524a.175.175,0,0,1-.141-.072,3.255,3.255,0,0,1-.668-3.185,3.374,3.374,0,0,1,3.041-1.713,10.611,10.611,0,0,1,4.982.954,11.705,11.705,0,0,1,3.2,2.029.175.175,0,0,1-.235.258,11.332,11.332,0,0,0-3.1-1.966,10.273,10.273,0,0,0-4.814-.926,3.051,3.051,0,0,0-2.751,1.5,2.93,2.93,0,0,0,.632,2.84.174.174,0,0,1-.141.277Z" transform="translate(-1308.084 -1726.377)"/>
      <path id="Path_20863" data-name="Path 20863" d="M1471.315,1853a.175.175,0,0,1-.119-.3,1.964,1.964,0,0,0,.455-.642,2.115,2.115,0,0,0,.1-1.325.175.175,0,1,1,.341-.075,2.462,2.462,0,0,1-.116,1.54,2.3,2.3,0,0,1-.535.755A.181.181,0,0,1,1471.315,1853Z" transform="translate(-1455.92 -1794.682)"/>
    </g>
    <g id="Group_4784" data-name="Group 4784" transform="translate(0 5.552)">
      <g id="Group_4783" data-name="Group 4783">
        <path id="Path_20864" data-name="Path 20864" d="M650.765,1206.242c4.4-4.689,12.333-12.4,25.316-4.615s5.918,26.283-8.478,36.284-31.621,14.222-31.44,4.975C636.326,1234.577,638.8,1218.976,650.765,1206.242Z" transform="translate(-635.986 -1198.136)" fill="#fff"/>
        <path id="Path_20865" data-name="Path 20865" d="M640.462,1246.195a8.9,8.9,0,0,1-4.182-.856,4.543,4.543,0,0,1-2.4-4.449c.127-6.5,1.809-23.092,14.649-36.76,2.624-2.793,5.592-5.579,9.508-7.03,4.94-1.832,10.332-1.03,16.025,2.385a13.472,13.472,0,0,1,6.9,11.526c.281,8.4-5.894,18.471-15.366,25.051a66.492,66.492,0,0,1-16.864,8.593A27.828,27.828,0,0,1,640.462,1246.195Zm8.2-41.945.127.119c-12.756,13.58-14.428,30.069-14.555,36.528a4.219,4.219,0,0,0,2.213,4.134,8.5,8.5,0,0,0,3.982.808c6.162,0,16.016-3.844,24.97-10.065,9.379-6.516,15.494-16.463,15.217-24.753a13.136,13.136,0,0,0-6.729-11.238c-13.3-7.978-21.269.508-25.1,4.585Z" transform="translate(-633.881 -1196.144)" fill="#c84231"/>
      </g>
      <path id="Path_20866" data-name="Path 20866" d="M702.237,1601.173a.75.75,0,0,1-.482-.263c-4.4-5.223-15.06-6.852-15.167-6.868a.755.755,0,0,1,.205-1.5l.015,0c.46.068,11.333,1.726,16.1,7.389a.755.755,0,0,1-.092,1.063A.747.747,0,0,1,702.237,1601.173Z" transform="translate(-681.943 -1562.081)" fill="#c84231"/>
      <path id="Path_20867" data-name="Path 20867" d="M777.636,1458.82a.75.75,0,0,1-.444-.221,29.173,29.173,0,0,0-18.29-8.834.755.755,0,0,1,.039-1.509,25.076,25.076,0,0,1,6.4,1.269,31.65,31.65,0,0,1,12.931,8.021.754.754,0,0,1-.636,1.274Z" transform="translate(-748.616 -1428.883)" fill="#c84231"/>
      <path id="Path_20868" data-name="Path 20868" d="M878.515,1320.439a.754.754,0,0,1-.428-.2,32.071,32.071,0,0,0-13.041-7.327,33.926,33.926,0,0,0-6.88-1.344.755.755,0,0,1,.085-1.507,34.655,34.655,0,0,1,7.183,1.391,33.609,33.609,0,0,1,13.7,7.7.754.754,0,0,1-.62,1.292Z" transform="translate(-840.274 -1301.301)" fill="#c84231"/>
    </g>
    <g id="Group_4786" data-name="Group 4786" transform="translate(22.303 12.028)">
      <g id="Group_4785" data-name="Group 4785" transform="translate(1.069 1.068)">
        <path id="Path_20869" data-name="Path 20869" d="M985.228,1303.347c.462.626,2.3,3.033,2.786,3.644,7.413,9.364,6.216,35.55-39.2,35.906,0,0,7.168-16.557,13.355-17,5.87-.422,9.188.551,11.333-7.744a2.99,2.99,0,0,0-2.85-3.728c-8.567-.1-8.5,3.353-10.444,8.907-2.052,5.855-19.908,8.431-19.908,8.431C952.55,1288.029,978.134,1293.739,985.228,1303.347Z" transform="translate(-940.126 -1296.407)" fill="#fff"/>
        <path id="Path_20870" data-name="Path 20870" d="M946.721,1340.975a.173.173,0,0,1-.145-.078.177.177,0,0,1-.015-.166c.294-.68,7.282-16.659,13.5-17.107.711-.051,1.377-.081,2.021-.111,4.554-.208,7.3-.333,9.156-7.5a2.816,2.816,0,0,0-2.683-3.51c-7.408-.1-8.245,2.53-9.64,6.869-.2.614-.4,1.249-.637,1.921-2.063,5.887-19.315,8.441-20.048,8.546a.17.17,0,0,1-.156-.057.172.172,0,0,1-.037-.162c3.117-11.131,7.316-19.827,12.478-25.846,4.359-5.083,9.28-8.158,14.622-9.138,8.065-1.48,15.053,2.339,18.135,6.511.46.623,2.307,3.039,2.783,3.64,3.219,4.067,5.071,11.813,1.529,19.208-2.347,4.9-6.6,8.842-12.651,11.716-7.162,3.4-16.654,5.175-28.214,5.266Zm21.462-28.824.378,0a3.164,3.164,0,0,1,3.017,3.945c-1.918,7.418-4.763,7.548-9.478,7.763-.641.029-1.305.06-2.012.111-5.6.4-12.176,14.595-13.1,16.651,11.385-.116,20.736-1.875,27.8-5.23,5.974-2.839,10.175-6.726,12.486-11.551,3.477-7.259,1.666-14.855-1.488-18.84-.477-.6-2.328-3.024-2.79-3.649-3.018-4.089-9.873-7.827-17.791-6.375-5.263.965-10.115,4-14.421,9.021-5.088,5.933-9.238,14.5-12.334,25.453,2.226-.352,17.644-2.973,19.5-8.275.234-.668.437-1.3.634-1.913C960.005,1314.847,960.872,1312.151,968.184,1312.151Z" transform="translate(-938.034 -1294.309)" fill="#e54c38"/>
      </g>
      <path id="Path_20871" data-name="Path 20871" d="M924.384,1317.592a1.243,1.243,0,0,0,2.184-.42c3.061-10.93,7.162-19.444,12.189-25.306,4.143-4.83,8.786-7.746,13.8-8.666,7.467-1.37,13.913,2.132,16.739,5.959.476.644,2.314,3.05,2.812,3.677,2.955,3.732,4.641,10.869,1.362,17.715-2.2,4.6-6.234,8.317-11.981,11.048-6.974,3.314-16.265,5.04-27.616,5.129a1.243,1.243,0,0,0,.02,2.485c11.716-.092,21.36-1.9,28.664-5.37a31.408,31.408,0,0,0,8.281-5.574,22.938,22.938,0,0,0,4.876-6.645,20.6,20.6,0,0,0,1.9-11.291,18.055,18.055,0,0,0-3.553-9.041c-.475-.6-2.307-3-2.761-3.611a18.065,18.065,0,0,0-7.794-5.8,20.6,20.6,0,0,0-11.393-1.128,22.928,22.928,0,0,0-7.69,2.963,31.394,31.394,0,0,0-7.55,6.529c-5.265,6.138-9.536,14.971-12.7,26.253A1.239,1.239,0,0,0,924.384,1317.592Z" transform="translate(-924.128 -1280.412)" fill="#e54c38"/>
      <path id="Path_20872" data-name="Path 20872" d="M1370.79,1478.477a2.743,2.743,0,1,0,3.846.513A2.744,2.744,0,0,0,1370.79,1478.477Z" transform="translate(-1335.473 -1462.736)" fill="#e54c38"/>
      <path id="Path_20873" data-name="Path 20873" d="M1175.944,1726.673a12.832,12.832,0,0,1-2-.155,26.433,26.433,0,0,1-5.181-1.563c-1.042-.394-2.12-.8-3.2-1.115-1.973-.569-5.666-1.206-8.23.911a.175.175,0,0,1-.222-.27c2.688-2.219,6.509-1.564,8.549-.977,1.095.316,2.179.726,3.228,1.123a26.126,26.126,0,0,0,5.11,1.545,13.06,13.06,0,0,0,10.338-2.9.174.174,0,0,1,.226.266A13.432,13.432,0,0,1,1175.944,1726.673Z" transform="translate(-1139.152 -1688.933)"/>
      <path id="Path_20874" data-name="Path 20874" d="M1121.307,1801.173a6.064,6.064,0,0,1-2.61-.69c-.525-.26-1.032-.568-1.522-.865a15.243,15.243,0,0,0-1.976-1.071c-2.484-1.041-4.915-.4-7.225,1.9a.174.174,0,1,1-.247-.246c2.386-2.378,5.016-3.061,7.606-1.976a15.492,15.492,0,0,1,2.022,1.093c.484.294.984.6,1.5.851a4.577,4.577,0,0,0,3.718.406.175.175,0,0,1,.137.322A3.516,3.516,0,0,1,1121.307,1801.173Z" transform="translate(-1093.572 -1757.972)" fill="#fff"/>
      <path id="Path_20875" data-name="Path 20875" d="M1470.022,1541.322h-.013a.174.174,0,0,1-.161-.186,6.435,6.435,0,0,0-5.623-6.86.174.174,0,1,1,.043-.346,6.783,6.783,0,0,1,5.927,7.232A.174.174,0,0,1,1470.022,1541.322Z" transform="translate(-1422.581 -1514.447)" fill="#e54c38"/>
      <path id="Path_20876" data-name="Path 20876" d="M1119.046,1381.115a.174.174,0,0,1-.1-.317c2.715-1.92,3.068-5.651,3.036-7.7-.017-1.125-.128-2.272-.236-3.381a26.3,26.3,0,0,1-.15-5.41,13.408,13.408,0,0,1,5.66-9.464.175.175,0,1,1,.2.288,13.058,13.058,0,0,0-5.511,9.215,26.13,26.13,0,0,0,.152,5.338c.108,1.116.22,2.269.237,3.409.032,2.122-.338,5.982-3.183,7.994A.19.19,0,0,1,1119.046,1381.115Z" transform="translate(-1103.906 -1349.093)" fill="#e54c38"/>
      <path id="Path_20877" data-name="Path 20877" d="M1013.26,1545.529a.175.175,0,0,1-.087-.326c2.4-1.379,4.822-3.915,4.428-6.9a15.133,15.133,0,0,0-.515-2.186c-.159-.551-.323-1.121-.436-1.7a4.911,4.911,0,0,1,.651-3.978.174.174,0,0,1,.273.217,4.579,4.579,0,0,0-.582,3.695c.11.56.272,1.122.429,1.667a15.54,15.54,0,0,1,.526,2.238c.416,3.152-2.1,5.81-4.6,7.245A.191.191,0,0,1,1013.26,1545.529Z" transform="translate(-1006.25 -1511.172)" fill="#e54c38"/>
      <path id="Path_20878" data-name="Path 20878" d="M1337.338,1362.18l-.024,0a.174.174,0,0,1-.148-.2,6.434,6.434,0,0,0-5.146-7.225.174.174,0,1,1,.066-.342,6.782,6.782,0,0,1,5.425,7.616A.174.174,0,0,1,1337.338,1362.18Z" transform="translate(-1300.545 -1348.724)" fill="#e54c38"/>
      <path id="Path_20879" data-name="Path 20879" d="M1394.18,1348.937h-.024a.175.175,0,0,1-.15-.2,6.283,6.283,0,0,0-5.806-6.91c-.3-.013-.6-.011-.92-.009-1.29.008-2.624.017-3.356-.979s-.326-2.27.066-3.5c.1-.326.2-.634.281-.938a5.867,5.867,0,0,0-.838-4.654,5.766,5.766,0,0,0-3.865-2.586.175.175,0,0,1,.055-.345,6.122,6.122,0,0,1,4.1,2.74,6.215,6.215,0,0,1,.883,4.933c-.081.313-.185.641-.286.958-.367,1.149-.745,2.336-.118,3.19s1.869.844,3.073.836c.312,0,.634,0,.938.009a6.632,6.632,0,0,1,6.138,7.306A.175.175,0,0,1,1394.18,1348.937Z" transform="translate(-1344.434 -1325.094)" fill="#e54c38"/>
    </g>
    <g id="Group_4788" data-name="Group 4788" transform="translate(44.904 43.249)">
      <g id="Group_4787" data-name="Group 4787">
        <path id="Path_20880" data-name="Path 20880" d="M1222.618,1709.262c3.637,6.883,10.634,8.777,16.417,5.721s8.162-9.9,4.526-16.786-11.913-11.2-17.7-8.141S1218.981,1702.378,1222.618,1709.262Z" transform="translate(-1220.346 -1688.878)" fill="#fff"/>
        <path id="Path_20881" data-name="Path 20881" d="M1231.372,1714.4a11.3,11.3,0,0,1-3.5-.555,13.165,13.165,0,0,1-7.5-6.672,18.415,18.415,0,0,1-1.927-11.146c.592-3.875,2.455-6.82,5.247-8.3s6.275-1.355,9.809.34a18.419,18.419,0,0,1,8.122,7.873,13.164,13.164,0,0,1,1.283,9.958,11.7,11.7,0,0,1-5.882,7.064A12.082,12.082,0,0,1,1231.372,1714.4Zm-3.423-27.344a8.7,8.7,0,0,0-4.1.984c-2.692,1.422-4.491,4.277-5.065,8.039a18.07,18.07,0,0,0,1.891,10.931c3.4,6.432,10.2,8.807,16.181,5.649s7.851-10.119,4.453-16.551a18.071,18.071,0,0,0-7.964-7.722A12.56,12.56,0,0,0,1227.949,1687.06Z" transform="translate(-1218.246 -1686.711)" fill="#2f7825"/>
      </g>
      <path id="Path_20882" data-name="Path 20882" d="M1316.1,1725.132a.174.174,0,0,1-.14-.07,15.5,15.5,0,0,0-5.58-4.65c-2.706-1.3-5.286-1.436-7.267-.39a.175.175,0,1,1-.163-.309c2.08-1.1,4.773-.963,7.581.383a15.838,15.838,0,0,1,5.709,4.756.174.174,0,0,1-.035.245A.179.179,0,0,1,1316.1,1725.132Z" transform="translate(-1296.354 -1716.499)" fill="#2f7825"/>
    </g>
    <g id="Group_4790" data-name="Group 4790" transform="translate(62.591 40.367)">
      <g id="Group_4789" data-name="Group 4789">
        <path id="Path_20883" data-name="Path 20883" d="M1450.948,1664.894c-1.291,7.677,3.118,13.431,9.567,14.516s12.5-2.911,13.79-10.588-2.664-16.13-9.115-17.215S1452.239,1657.216,1450.948,1664.894Z" transform="translate(-1450.546 -1651.316)" fill="#fff"/>
        <path id="Path_20884" data-name="Path 20884" d="M1460.459,1677.656a12.673,12.673,0,0,1-2.1-.177,11.708,11.708,0,0,1-7.8-4.859,13.166,13.166,0,0,1-1.909-9.858,18.418,18.418,0,0,1,5.238-10.026c2.823-2.719,6.093-3.927,9.207-3.4s5.808,2.735,7.587,6.228a18.427,18.427,0,0,1,1.671,11.188,13.17,13.17,0,0,1-5.029,8.692A11.51,11.51,0,0,1,1460.459,1677.656Zm1.2-28.094a11.008,11.008,0,0,0-7.531,3.426,18.07,18.07,0,0,0-5.136,9.832,12.826,12.826,0,0,0,1.853,9.6,11.727,11.727,0,0,0,16.269,2.737,12.828,12.828,0,0,0,4.892-8.468,18.068,18.068,0,0,0-1.637-10.972c-1.727-3.391-4.331-5.537-7.333-6.042A8.255,8.255,0,0,0,1461.656,1649.562Zm-12.839,13.228h0Z" transform="translate(-1448.415 -1649.213)"/>
      </g>
      <path id="Path_20885" data-name="Path 20885" d="M1638.854,1694.849h0a.175.175,0,0,1-.173-.177,15.491,15.491,0,0,0-1.61-7.083c-1.362-2.674-3.328-4.351-5.536-4.723a.175.175,0,1,1,.058-.344c2.32.39,4.376,2.134,5.789,4.909a15.846,15.846,0,0,1,1.647,7.246A.174.174,0,0,1,1638.854,1694.849Z" transform="translate(-1617.328 -1679.96)"/>
    </g>
    <g id="Group_4793" data-name="Group 4793" transform="translate(7.028 29.24)">
      <g id="Group_4791" data-name="Group 4791" transform="translate(0 0.479)">
        <path id="Path_20886" data-name="Path 20886" d="M771.576,1542.247s-3.761,12.547-20.015,12.752c-17.624.222-26.647-19.288-23.072-33.616,1.811-7.259,5.424-8.484,5.424-8.484Z" transform="translate(-727.534 -1512.726)" fill="#2f7825"/>
        <path id="Path_20887" data-name="Path 20887" d="M749.065,1553.082a21.668,21.668,0,0,1-17.378-8.621,30.26,30.26,0,0,1-5.557-25.213c1.814-7.268,5.386-8.555,5.537-8.606a.175.175,0,0,1,.163.027l37.664,29.347a.174.174,0,0,1,.06.187,18.033,18.033,0,0,1-3.952,6.369c-2.735,2.91-7.77,6.4-16.228,6.508ZM731.7,1511.006c-.546.243-3.617,1.874-5.227,8.326a29.9,29.9,0,0,0,5.491,24.912,21.332,21.332,0,0,0,17.105,8.489l.3,0c8.335-.105,13.29-3.537,15.979-6.4a17.972,17.972,0,0,0,3.835-6.118Z" transform="translate(-725.345 -1510.632)" fill="#fff"/>
      </g>
      <g id="Group_4792" data-name="Group 4792" transform="translate(3.421)">
        <path id="Path_20888" data-name="Path 20888" d="M809.824,1540.1s-11.171,10.969-26.777-5.459-11.334-28.318-6.2-27.98,13.618,8.562,24.865,13.757S816.1,1534.411,809.824,1540.1Z" transform="translate(-771.979 -1506.486)" fill="#fff"/>
        <path id="Path_20889" data-name="Path 20889" d="M798.014,1541.785l-.266,0c-5.6-.1-11.294-3.158-16.935-9.1-10.875-11.449-12.229-20.852-10.085-25.426.887-1.891,2.392-2.955,4.028-2.848,2.816.185,6.52,2.635,11.211,5.737a103.539,103.539,0,0,0,13.715,8.036c6.482,2.994,10.6,7.32,11.3,11.871a8.829,8.829,0,0,1-3.144,8.1A15.014,15.014,0,0,1,798.014,1541.785Zm-23.482-37.033a4.038,4.038,0,0,0-3.488,2.655c-2.1,4.475-.732,13.717,10.022,25.038,5.575,5.87,11.19,8.893,16.688,8.989l.261,0a14.608,14.608,0,0,0,9.579-3.537l0,0a8.5,8.5,0,0,0,3.035-7.786c-.679-4.433-4.724-8.664-11.1-11.607a103.769,103.769,0,0,1-13.762-8.062c-4.648-3.073-8.319-5.5-11.042-5.68C774.665,1504.755,774.6,1504.752,774.531,1504.752Z" transform="translate(-769.87 -1504.404)" fill="#2f7825"/>
      </g>
      <path id="Path_20890" data-name="Path 20890" d="M971.46,1692.873s-3.059,3.972-11.1-2.308-3.684-12.412,3.319-9.965S973.412,1689.35,971.46,1692.873Z" transform="translate(-938.299 -1666.552)" fill="#2f7825"/>
      <path id="Path_20891" data-name="Path 20891" d="M1023.715,1704.213a.175.175,0,0,1-.163-.112,11.084,11.084,0,0,0-6.861-6.065,7.527,7.527,0,0,0-2.467-.457.174.174,0,1,1,0-.349,7.874,7.874,0,0,1,2.582.477,11.433,11.433,0,0,1,7.072,6.27.174.174,0,0,1-.1.225A.177.177,0,0,1,1023.715,1704.213Z" transform="translate(-991.865 -1682.413)" fill="#fff"/>
    </g>
    <g id="Group_4796" data-name="Group 4796" transform="translate(67.883 34.646)">
      <g id="Group_4795" data-name="Group 4795" transform="translate(0 8.134)">
        <g id="Group_4794" data-name="Group 4794" transform="translate(0 14.534)">
          <path id="Path_20892" data-name="Path 20892" d="M1520.634,1888.427s-4.193-3.5-3.2-3.878a1.251,1.251,0,0,1,1.495.312Z" transform="translate(-1517.28 -1883.307)" fill="#c84231"/>
          <path id="Path_20893" data-name="Path 20893" d="M1530.166,1874.16s-3.213-3.4-1.786-3.978a2.132,2.132,0,0,1,2.132.009s1.42-1.111,1.335.169S1530.505,1874.537,1530.166,1874.16Z" transform="translate(-1527.19 -1869.743)" fill="#c84231"/>
        </g>
        <path id="Path_20894" data-name="Path 20894" d="M1595.649,1984.235s-3.509,2.926-1.28,4.6,8.078,1.372,8.7.357-1.751-5.266-1.751-5.266S1596.249,1984.636,1595.649,1984.235Z" transform="translate(-1587.761 -1960.622)" fill="#c84231"/>
        <path id="Path_20895" data-name="Path 20895" d="M1726.583,1695.229l7.744,4.56s3.016-7.661-1.611-11.874-6.027-5.645-6.027-5.645l-1-1.661.483,2.432-.972-.4.827,1.546a6.968,6.968,0,0,0,.453,3.033c.627,1.66-1.771-1.433-1.771-1.433S1728.247,1692.371,1726.583,1695.229Z" transform="translate(-1708.77 -1680.61)" fill="#c84231"/>
        <path id="Path_20896" data-name="Path 20896" d="M1729.434,1860.9s-3.373,2.769-1.874,4.982,4.6,6.894,6.341,5.824,4.411-4.587,2.855-5.908S1729.434,1860.9,1729.434,1860.9Z" transform="translate(-1711.047 -1847.046)" fill="#c84231"/>
        <path id="Path_20897" data-name="Path 20897" d="M1684.509,1921.085a4.99,4.99,0,0,0-1.85,2.765c-.152,1.48-3.175.016-2.75,2.72s1.214,5.279,3.467,5.111,7.278-3.228,6.723-5.181S1685.478,1920.137,1684.509,1921.085Z" transform="translate(-1667.374 -1902.485)" fill="#c84231"/>
        <path id="Path_20898" data-name="Path 20898" d="M1545.239,1921.925s-2.245-3.363-1.357-4.32,1.212-.864,1.425.023a29.112,29.112,0,0,0,.963,2.754Z" transform="translate(-1541.646 -1898.766)" fill="#c84231"/>
        <path id="Path_20899" data-name="Path 20899" d="M1561.565,1954.33a2.922,2.922,0,0,0-.935,3.717c1.155,2.262,3.357,2.494,3.7,1.236s.965-1.588.228-2.454A25.291,25.291,0,0,0,1561.565,1954.33Z" transform="translate(-1556.978 -1933.296)" fill="#c84231"/>
        <path id="Path_20900" data-name="Path 20900" d="M1781.447,1764.956a.694.694,0,1,1-.191-.963A.694.694,0,0,1,1781.447,1764.956Z" transform="translate(-1759.974 -1757.477)" fill="#fff"/>
      </g>
      <path id="Path_20901" data-name="Path 20901" d="M1816.338,1594.329c-1.139,0-2.588-.776-4.182-1.628-.484-.259-.984-.528-1.488-.779a.175.175,0,1,1,.156-.313c.507.254,1.01.523,1.5.783,2.254,1.206,4.2,2.249,5.2,1.046a.175.175,0,0,1,.268.224A1.784,1.784,0,0,1,1816.338,1594.329Z" transform="translate(-1788.034 -1590.298)" fill="#fff"/>
      <path id="Path_20902" data-name="Path 20902" d="M1717.638,1585.5a.175.175,0,0,1-.163-.112c-1.651-4.332-2.934-8.53-1.147-9.908,2.03-1.413,4.524-.494,6.7.592a.175.175,0,1,1-.156.313c-2.082-1.04-4.462-1.927-6.335-.623-1.6,1.238-.259,5.5,1.267,9.5a.174.174,0,0,1-.1.225A.171.171,0,0,1,1717.638,1585.5Z" transform="translate(-1700.235 -1574.76)"/>
      <path id="Path_20903" data-name="Path 20903" d="M1698.422,1604.617a.173.173,0,0,1-.146-.079c-2.525-3.881-4.715-7.676-3.653-9.147,1.746-2.741,5.113-.7,7.818.944,1.471.892,2.86,1.735,3.535,1.505a.621.621,0,0,0,.376-.4.175.175,0,0,1,.326.126.969.969,0,0,1-.589.607c-.831.282-2.22-.561-3.828-1.537-2.71-1.644-5.78-3.507-7.349-1.046-.948,1.313,1.317,5.165,3.656,8.761a.174.174,0,0,1-.052.241A.177.177,0,0,1,1698.422,1604.617Z" transform="translate(-1680.742 -1592.566)"/>
    </g>
    <g id="Group_4805" data-name="Group 4805" transform="translate(73.258 43.807)">
      <g id="Group_4804" data-name="Group 4804" transform="translate(0 7.084)">
        <g id="Group_4797" data-name="Group 4797" transform="translate(3.683 1.048)">
          <path id="Path_20904" data-name="Path 20904" d="M1637.482,1806.6s-.214-5.038,1.353-4.5,1.729,1.511,1.729,1.511,1.94.1.967,1.08S1637.492,1807.147,1637.482,1806.6Z" transform="translate(-1637.296 -1801.888)" fill="#e54c38"/>
          <path id="Path_20905" data-name="Path 20905" d="M1635.527,1804.8a.446.446,0,0,1-.166-.026.278.278,0,0,1-.181-.256c-.017-.4-.131-3.83.861-4.569a.752.752,0,0,1,.724-.1,2.651,2.651,0,0,1,1.807,1.511c.332.031,1.08.147,1.247.578.092.237-.006.5-.291.791A9.474,9.474,0,0,1,1635.527,1804.8Zm0-.291h0Zm0-.05a9.227,9.227,0,0,0,3.754-1.977c.1-.1.263-.291.213-.419-.084-.216-.685-.345-1.065-.364a.173.173,0,0,1-.163-.146c-.006-.035-.179-.881-1.614-1.375a.4.4,0,0,0-.4.05C1635.542,1800.75,1635.487,1803.411,1635.526,1804.454Z" transform="translate(-1635.167 -1799.794)" fill="#e54c38"/>
        </g>
        <g id="Group_4798" data-name="Group 4798" transform="translate(0.057 12.849)">
          <path id="Path_20906" data-name="Path 20906" d="M1594.59,1955.636s-4.922-.094-4.291,2.844,5.61,6.818,6.828,6.427,2.291-5.523,2.291-5.523S1594.795,1956.386,1594.59,1955.636Z" transform="translate(-1590.068 -1955.461)" fill="#e54c38"/>
          <path id="Path_20907" data-name="Path 20907" d="M1594.843,1963.01a3.621,3.621,0,0,1-1.547-.567c-1.9-1.1-4.78-3.8-5.257-6.024a1.971,1.971,0,0,1,.37-1.751c1.109-1.345,3.974-1.306,4.094-1.3a.175.175,0,0,1,.165.128c.137.5,2.989,2.5,4.753,3.649a.175.175,0,0,1,.076.182c-.112.536-1.13,5.243-2.409,5.654A.813.813,0,0,1,1594.843,1963.01Zm-2.453-9.3c-.523.007-2.823.1-3.713,1.178a1.622,1.622,0,0,0-.3,1.455c.457,2.124,3.25,4.731,5.092,5.8a2.511,2.511,0,0,0,1.512.5c.807-.259,1.715-3.252,2.149-5.276C1596.213,1956.768,1592.9,1954.574,1592.389,1953.712Z" transform="translate(-1587.978 -1953.363)" fill="#fff"/>
        </g>
        <g id="Group_4799" data-name="Group 4799" transform="translate(18.832)">
          <path id="Path_20908" data-name="Path 20908" d="M1834.58,1800.941l3.087,9.178s7.862-4.109,7.067-10.8-.923-8.848-.923-8.848l.359-2.057-1.324,2.321-.508-1.013-.418,1.843a7.507,7.507,0,0,0-1.772,2.788c-.661,1.794-.43-2.417-.43-2.417S1837.951,1799.789,1834.58,1800.941Z" transform="translate(-1834.405 -1788.236)" fill="#e54c38"/>
          <path id="Path_20909" data-name="Path 20909" d="M1835.563,1808.211a.2.2,0,0,1-.065-.012.178.178,0,0,1-.1-.106l-3.086-9.179a.174.174,0,0,1,.109-.221c3.241-1.108,5.008-8.8,5.024-8.882a.175.175,0,0,1,.195-.134.173.173,0,0,1,.15.182,16.033,16.033,0,0,0,.018,2.534c.022-.048.047-.108.075-.187a7.75,7.75,0,0,1,1.777-2.82l.406-1.789a.173.173,0,0,1,.149-.134.177.177,0,0,1,.177.1l.361.722,1.162-2.038a.175.175,0,0,1,.324.116l-.356,2.037c.015.234.176,2.54.92,8.818.8,6.737-7.08,10.938-7.16,10.979A.17.17,0,0,1,1835.563,1808.211Zm-2.868-9.249,2.966,8.82c1.159-.665,7.5-4.593,6.795-10.529-.786-6.623-.923-8.838-.923-8.859a.176.176,0,0,1,0-.041l.187-1.072-.828,1.452a.175.175,0,0,1-.151.088h0a.174.174,0,0,1-.151-.1l-.289-.577-.31,1.366a.172.172,0,0,1-.053.091,7.4,7.4,0,0,0-1.725,2.719c-.108.294-.243.6-.481.554-.106-.022-.323-.067-.332-1.527C1836.715,1793.66,1835.147,1797.963,1832.7,1798.962Z" transform="translate(-1832.301 -1786.153)" fill="#fff"/>
        </g>
        <g id="Group_4800" data-name="Group 4800" transform="translate(14.379 12.312)">
          <path id="Path_20910" data-name="Path 20910" d="M1782.08,1948.65s-4.7-.125-5.042,2.733-1.119,8.86,1.053,9.216,6.829-.622,6.493-2.795S1782.08,1948.65,1782.08,1948.65Z" transform="translate(-1776.446 -1948.474)" fill="#e54c38"/>
          <path id="Path_20911" data-name="Path 20911" d="M1776.987,1958.749a6.309,6.309,0,0,1-1.018-.073c-2.281-.374-1.594-6.105-1.224-9.185l.027-.224c.356-2.981,5.022-2.89,5.219-2.887a.177.177,0,0,1,.162.123c.089.286,2.177,7.019,2.51,9.18a1.679,1.679,0,0,1-.555,1.494C1781.024,1958.251,1778.687,1958.749,1776.987,1958.749Zm2.87-12.021c-.731.007-4.451.164-4.74,2.58l-.027.224c-.331,2.753-1.017,8.479.934,8.8,1.717.282,4.7-.281,5.837-1.4a1.347,1.347,0,0,0,.456-1.193C1782.013,1953.757,1780.148,1947.67,1779.858,1946.728Z" transform="translate(-1774.352 -1946.378)" fill="#fff"/>
        </g>
        <g id="Group_4801" data-name="Group 4801" transform="translate(6.048 15.286)">
          <path id="Path_20912" data-name="Path 20912" d="M1677.635,1987.365s-2.288-.151-3.456.946-2.6-2.228-4.159.273-2.737,5.156-.784,6.609,8.2,2.508,9.13.526S1679.093,1987.277,1677.635,1987.365Z" transform="translate(-1668.038 -1987.182)" fill="#e54c38"/>
          <path id="Path_20913" data-name="Path 20913" d="M1673.285,1994.876a12.451,12.451,0,0,1-6.255-1.651c-2.137-1.591-.727-4.491.741-6.841,1-1.6,2-1,2.8-.529.618.367,1.015.572,1.39.22a5.455,5.455,0,0,1,3.577-.994.829.829,0,0,1,.707.43c1,1.473.974,6.478.181,8.174a2.07,2.07,0,0,1-1.485,1.013A6.845,6.845,0,0,1,1673.285,1994.876Zm-4.054-9.183c-.378,0-.756.223-1.165.876-1.388,2.222-2.736,4.956-.828,6.376a11.965,11.965,0,0,0,7.614,1.416,1.752,1.752,0,0,0,1.255-.823c.807-1.726.713-6.555-.153-7.829-.13-.192-.268-.287-.409-.277h-.022c-.022,0-2.227-.133-3.326.9-.586.55-1.235.166-1.807-.174A2.467,2.467,0,0,0,1669.231,1985.693Z" transform="translate(-1665.938 -1985.075)" fill="#fff"/>
        </g>
        <g id="Group_4802" data-name="Group 4802" transform="translate(1.226 4.938)">
          <path id="Path_20914" data-name="Path 20914" d="M1605.47,1857.194s.546-4.322,1.944-4.474,1.6.152,1.144,1.025a31.436,31.436,0,0,0-1.159,2.922Z" transform="translate(-1605.295 -1852.507)" fill="#e54c38"/>
          <path id="Path_20915" data-name="Path 20915" d="M1603.369,1855.271a.171.171,0,0,1-.115-.043.177.177,0,0,1-.059-.154c.058-.457.606-4.464,2.1-4.626.859-.092,1.283-.022,1.468.248s.033.68-.149,1.031c-.441.851-1.142,2.879-1.149,2.9a.173.173,0,0,1-.12.111l-1.929.528A.2.2,0,0,1,1603.369,1855.271Zm2.538-4.512a5.541,5.541,0,0,0-.576.036c-.965.105-1.559,2.761-1.754,4.064l1.585-.434a29.471,29.471,0,0,1,1.139-2.858c.225-.433.218-.6.171-.672S1606.286,1850.759,1605.907,1850.759Z" transform="translate(-1603.194 -1850.411)" fill="#e54c38"/>
        </g>
        <g id="Group_4803" data-name="Group 4803" transform="translate(0 8.412)">
          <path id="Path_20916" data-name="Path 20916" d="M1593.067,1897.888a3.148,3.148,0,0,0-3.385,2.366c-.655,2.657.973,4.4,2.142,3.619s1.906-.611,1.917-1.837A27.239,27.239,0,0,0,1593.067,1897.888Z" transform="translate(-1589.355 -1897.705)" fill="#e54c38"/>
          <path id="Path_20917" data-name="Path 20917" d="M1589.105,1902.161a1.391,1.391,0,0,1-.8-.271c-.782-.549-1.369-1.923-.916-3.754a3.343,3.343,0,0,1,3.573-2.5.175.175,0,0,1,.151.134,26.791,26.791,0,0,1,.679,4.19c-.009.968-.462,1.184-1.091,1.484a6.707,6.707,0,0,0-.9.5A1.248,1.248,0,0,1,1589.105,1902.161Zm1.581-6.185a2.88,2.88,0,0,0-2.957,2.244,3.2,3.2,0,0,0,.778,3.384.923.923,0,0,0,1.1.048,7.258,7.258,0,0,1,.947-.521c.608-.29.885-.423.891-1.172a25.321,25.321,0,0,0-.641-3.981C1590.771,1895.976,1590.732,1895.975,1590.686,1895.975Z" transform="translate(-1587.234 -1895.629)" fill="#fff"/>
        </g>
        <path id="Path_20918" data-name="Path 20918" d="M1927.568,1891.8a.748.748,0,1,1,.524-.919A.749.749,0,0,1,1927.568,1891.8Z" transform="translate(-1900.543 -1882.327)" fill="#fff"/>
      </g>
      <path id="Path_20919" data-name="Path 20919" d="M1956.249,1705.771c-1.716,0-2.568-2.227-3.543-4.781-1.139-2.979-2.43-6.355-5.391-6.67l-.091,0c-2.151,0-4.036,4.36-5.6,8.642a.174.174,0,1,1-.327-.12c1.683-4.615,3.566-8.871,5.932-8.871.038,0,.075,0,.112,0,3.182.339,4.514,3.821,5.689,6.893.986,2.579,1.839,4.8,3.511,4.531a.172.172,0,0,1,.2.144.174.174,0,0,1-.144.2A2.132,2.132,0,0,1,1956.249,1705.771Z" transform="translate(-1914.08 -1693.97)"/>
      <path id="Path_20920" data-name="Path 20920" d="M2007.356,1707.254a.926.926,0,0,1-.354-.07c-.869-.353-1.4-2.017-2.024-3.945-.784-2.44-1.675-5.205-3.4-5.978a.174.174,0,1,1,.143-.318c1.863.835,2.779,3.679,3.585,6.189.569,1.767,1.106,3.437,1.824,3.728a.685.685,0,0,0,.6-.062.175.175,0,0,1,.164.308A1.155,1.155,0,0,1,2007.356,1707.254Z" transform="translate(-1969.646 -1696.701)"/>
      <path id="Path_20921" data-name="Path 20921" d="M1950.077,1697.461a.179.179,0,0,1-.053-.008.174.174,0,0,1-.114-.219c.583-1.849,1.271-2.842,2.1-3.039a2.954,2.954,0,0,1,2.1.088.175.175,0,0,1-.143.318,2.588,2.588,0,0,0-1.865-.069c-.7.166-1.326,1.109-1.86,2.807A.177.177,0,0,1,1950.077,1697.461Z" transform="translate(-1922.034 -1694.04)" fill="#fff"/>
      <path id="Path_20922" data-name="Path 20922" d="M1932.363,1741.238l-.024,0a.175.175,0,0,1-.149-.2,44.377,44.377,0,0,1,1.368-6.975.174.174,0,1,1,.333.105,44.287,44.287,0,0,0-1.355,6.917A.175.175,0,0,1,1932.363,1741.238Z" transform="translate(-1905.681 -1730.871)"/>
    </g>
  </g>
  <g id="Group_4819" data-name="Group 4819" transform="translate(6.075 38.882)">
    <g id="Group_4812" data-name="Group 4812" transform="translate(0 45.051)">
      <g id="Group_4807" data-name="Group 4807" transform="translate(2.914 36.975)">
        <path id="Path_20923" data-name="Path 20923" d="M440.48,1910.958l.2,3.72,2.487.42.221-4.388Z" transform="translate(-440.305 -1910.536)" fill="#fff"/>
        <path id="Path_20924" data-name="Path 20924" d="M441.07,1913.178l-.029,0-2.487-.42a.175.175,0,0,1-.145-.163l-.2-3.721a.174.174,0,0,1,.159-.183l2.911-.248a.174.174,0,0,1,.189.183l-.221,4.388a.172.172,0,0,1-.065.127A.168.168,0,0,1,441.07,1913.178Zm-2.321-.743,2.157.364.2-3.993-2.544.217Z" transform="translate(-438.206 -1908.441)"/>
      </g>
      <g id="Group_4808" data-name="Group 4808" transform="translate(0 39.332)">
        <path id="Path_20925" data-name="Path 20925" d="M408.213,1949.709a16.18,16.18,0,0,1-4.762-.071,1.119,1.119,0,0,1-.865-1.42c.533-1.774,1.466-5.145,2.853-6.659l.3.741.47-.652a.4.4,0,0,1,.307-.186l.989-.075a.4.4,0,0,1,.423.334l.028.446.663-.644.169,3.934a13.979,13.979,0,0,0,.26,2.113l.174.935A1.117,1.117,0,0,1,408.213,1949.709Z" transform="translate(-402.366 -1941.211)" fill="#fff"/>
        <path id="Path_20926" data-name="Path 20926" d="M403.764,1947.925a12.948,12.948,0,0,1-2.428-.22,1.294,1.294,0,0,1-1-1.641l.115-.385c.545-1.833,1.458-4.9,2.777-6.342a.174.174,0,0,1,.29.052l.182.449.286-.4a.566.566,0,0,1,.436-.259l.989-.075a.575.575,0,0,1,.609.481l.005.084.392-.38a.175.175,0,0,1,.3.118l.169,3.933a13.655,13.655,0,0,0,.258,2.089l.174.934,0,.018a1.3,1.3,0,0,1-1.169,1.393l-.279.026C405.3,1947.857,404.587,1947.925,403.764,1947.925Zm-.461-8.139c-1.17,1.459-2.007,4.275-2.517,5.992l-.115.386a.932.932,0,0,0,.1.759.949.949,0,0,0,.633.439,15.225,15.225,0,0,0,4.433.095l.281-.026a.946.946,0,0,0,.854-1.008l-.172-.924a14.262,14.262,0,0,1-.264-2.138l-.152-3.545-.384.373a.175.175,0,0,1-.3-.114l-.028-.447a.227.227,0,0,0-.235-.171l-.989.075a.223.223,0,0,0-.172.1l-.476.661a.17.17,0,0,1-.162.072.175.175,0,0,1-.141-.107Z" transform="translate(-400.282 -1939.106)"/>
      </g>
      <path id="Path_20927" data-name="Path 20927" d="M413,2030.832a10.036,10.036,0,0,1-2.7-.345.174.174,0,1,1,.095-.336,11.6,11.6,0,0,0,5.038.087.176.176,0,0,1,.209.131.174.174,0,0,1-.131.209A12.06,12.06,0,0,1,413,2030.832Z" transform="translate(-409.414 -1983.818)"/>
      <path id="Path_20928" data-name="Path 20928" d="M433.614,1998.55h0l-2.35-.041a.176.176,0,0,1-.171-.178.179.179,0,0,1,.177-.171l2.35.041a.175.175,0,0,1,0,.349Z" transform="translate(-428.722 -1954.291)"/>
      <g id="Group_4809" data-name="Group 4809" transform="translate(14.734 35.844)">
        <path id="Path_20929" data-name="Path 20929" d="M594.31,1895.99l.1,5.42,3.011.152.412-5.393Z" transform="translate(-594.134 -1895.815)" fill="#fff"/>
        <path id="Path_20930" data-name="Path 20930" d="M595.31,1899.635H595.3l-3.012-.152a.175.175,0,0,1-.166-.171l-.1-5.42a.172.172,0,0,1,.053-.128.163.163,0,0,1,.131-.049l3.526.177a.176.176,0,0,1,.122.059.172.172,0,0,1,.043.128l-.413,5.393A.173.173,0,0,1,595.31,1899.635Zm-2.839-.492,2.679.135.386-5.046-3.16-.159Z" transform="translate(-592.02 -1893.714)"/>
      </g>
      <g id="Group_4810" data-name="Group 4810" transform="translate(13.894 39.031)">
        <path id="Path_20931" data-name="Path 20931" d="M583.382,1942.7a1.088,1.088,0,0,0,.785,1.117c1.711.491,5.565,1.584,6.669,1.806a4.931,4.931,0,0,0,4.035-.872c.805-.806-1.564-2.947-2.7-3.739-1.687-1.177-3.252-3.416-3.949-3.548s-2.109,1.837-2.109,1.837l-2.1-1.007A26.426,26.426,0,0,0,583.382,1942.7Z" transform="translate(-583.204 -1937.283)" fill="#fff"/>
        <path id="Path_20932" data-name="Path 20932" d="M589.765,1943.8a5.456,5.456,0,0,1-1.073-.1c-1.073-.215-4.647-1.226-6.683-1.809a1.27,1.27,0,0,1-.911-1.3,27.025,27.025,0,0,1,.64-4.438.175.175,0,0,1,.244-.114l1.965.944c.377-.509,1.5-1.926,2.2-1.789.4.077.949.648,1.7,1.439a16.438,16.438,0,0,0,2.314,2.138c.916.64,2.839,2.308,2.934,3.385a.744.744,0,0,1-.211.621A4.637,4.637,0,0,1,589.765,1943.8Zm-7.737-7.352a27.871,27.871,0,0,0-.581,4.166.919.919,0,0,0,.659.938c1.634.468,5.555,1.581,6.655,1.8a4.727,4.727,0,0,0,3.877-.823.4.4,0,0,0,.11-.343c-.073-.824-1.665-2.347-2.786-3.13a16.673,16.673,0,0,1-2.367-2.183,5.56,5.56,0,0,0-1.515-1.336c-.409-.077-1.376.987-1.935,1.768a.175.175,0,0,1-.218.056Zm-.755,4.154h0Z" transform="translate(-581.096 -1935.19)"/>
      </g>
      <path id="Path_20933" data-name="Path 20933" d="M603.916,2005.027a27.639,27.639,0,0,1-7.481-1.675.175.175,0,1,1,.121-.328c.069.025,6.966,2.546,9.054,1.323a.175.175,0,0,1,.177.3A3.791,3.791,0,0,1,603.916,2005.027Z" transform="translate(-581.257 -1958.772)"/>
      <path id="Path_20934" data-name="Path 20934" d="M647.084,1969.656a.175.175,0,0,1-.11-.31l1.6-1.3a.175.175,0,0,1,.221.271l-1.6,1.3A.179.179,0,0,1,647.084,1969.656Z" transform="translate(-627.958 -1926.451)"/>
      <g id="Group_4811" data-name="Group 4811" transform="translate(1.1)">
        <path id="Path_20935" data-name="Path 20935" d="M419.677,1429.54s-1.784,16.837-2.566,22.641.376,15.255.376,15.255l4.661-.01s.659-8.386,1.164-12.75a10.24,10.24,0,0,1,.869-3.09,33.151,33.151,0,0,0,2.318-6.667,80.067,80.067,0,0,1,3.061-9.737s.089,30.234.124,32.611c0,0,3.636.346,4.985-.41,0,0,2.87-10.878,2.839-16.877s1.083-20.843,1.083-20.843Z" transform="translate(-416.667 -1429.365)" fill="#fff"/>
        <path id="Path_20936" data-name="Path 20936" d="M429.454,1465.944c-.981,0-1.787-.075-1.857-.081a.175.175,0,0,1-.158-.172c-.031-2.111-.106-26.489-.122-31.656a72.546,72.546,0,0,0-2.719,8.814,33.667,33.667,0,0,1-2.331,6.7,10.054,10.054,0,0,0-.855,3.037c-.5,4.309-1.157,12.659-1.163,12.743a.174.174,0,0,1-.174.161l-4.66.01h0a.174.174,0,0,1-.173-.153c-.012-.095-1.152-9.54-.375-15.3.773-5.735,2.548-22.467,2.566-22.636a.174.174,0,0,1,.174-.156h0l18.915.125a.174.174,0,0,1,.172.188c-.011.148-1.113,14.9-1.083,20.829.031,5.953-2.816,16.813-2.845,16.922a.176.176,0,0,1-.083.108A7.608,7.608,0,0,1,429.454,1465.944Zm-1.668-.416c.691.054,3.491.226,4.663-.367.25-.966,2.843-11.108,2.814-16.758-.028-5.573.942-18.932,1.07-20.67l-18.571-.122c-.184,1.724-1.817,17.047-2.55,22.488-.716,5.313.214,13.811.357,15.057l4.344-.01c.094-1.185.69-8.611,1.152-12.6a10.384,10.384,0,0,1,.885-3.142,33.336,33.336,0,0,0,2.306-6.629,80.7,80.7,0,0,1,3.07-9.765.175.175,0,0,1,.337.063C427.664,1433.374,427.749,1462.24,427.786,1465.529Z" transform="translate(-414.596 -1427.26)"/>
      </g>
      <path id="Path_20937" data-name="Path 20937" d="M458.466,1728.564a2.353,2.353,0,0,1-1.28-.377.174.174,0,0,1,.19-.293,2,2,0,0,0,1.763.2.175.175,0,0,1,.119.328A2.321,2.321,0,0,1,458.466,1728.564Z" transform="translate(-452.739 -1704.766)"/>
      <path id="Path_20938" data-name="Path 20938" d="M458.722,1467.105a.175.175,0,0,1-.174-.156.174.174,0,0,1,.155-.191,2.153,2.153,0,0,0,1.87-1.843.175.175,0,0,1,.343.069,2.49,2.49,0,0,1-2.175,2.121Z" transform="translate(-454.07 -1461.892)"/>
      <path id="Path_20939" data-name="Path 20939" d="M616.8,1758.633h-.012a.174.174,0,0,1-.162-.186c.192-2.793,3.508-7.643,3.649-7.848a.175.175,0,0,1,.288.2c-.034.049-3.4,4.976-3.589,7.674A.175.175,0,0,1,616.8,1758.633Z" transform="translate(-600 -1725.683)"/>
    </g>
    <g id="Group_4816" data-name="Group 4816" transform="translate(1.269 11.88)">
      <g id="Group_4813" data-name="Group 4813" transform="translate(19.843 6.849)">
        <path id="Path_20940" data-name="Path 20940" d="M677.393,1089.282c1.021-2.939,2.523-2.537,3.605-1.682a4.074,4.074,0,0,1,1.476,2.476,10.312,10.312,0,0,0,1.043,3.073c1.124,2.048,5.281,2.872,6.732,2.866.632,0,2.33-2.034,3.419-1.689.783.247-.677,1.489-.494,1.579a3.984,3.984,0,0,0,1.935.257,22.461,22.461,0,0,0,2.259-.276c.473,0,.631.481.435.911a3.41,3.41,0,0,1-1.9,1.871c-1.8.581-4.887.037-5.964-.172-.82-.159-10.477.44-11.707-3.589C677.98,1094.067,676.964,1090.518,677.393,1089.282Z" transform="translate(-677.115 -1086.801)" fill="#fff"/>
        <path id="Path_20941" data-name="Path 20941" d="M691.751,1097.009a21.827,21.827,0,0,1-3.928-.433c-.116-.022-.493-.028-.971-.037-2.68-.045-9.8-.166-10.869-3.672-.221-.725-1.3-4.407-.841-5.733.467-1.345,1.087-2.139,1.843-2.36a2.265,2.265,0,0,1,2.036.6,4.241,4.241,0,0,1,1.54,2.582,10.158,10.158,0,0,0,1.024,3.02c1.078,1.964,5.145,2.773,6.579,2.776a3.228,3.228,0,0,0,1.021-.631c.758-.573,1.7-1.288,2.451-1.049a.465.465,0,0,1,.334.3c.107.344-.239.79-.517,1.148-.049.062-.107.138-.151.2a3.473,3.473,0,0,0,1.449.182c.091,0,.181,0,.271,0a9.159,9.159,0,0,0,1.605-.184,4.379,4.379,0,0,1,.655-.092h.005a.652.652,0,0,1,.569.294.915.915,0,0,1,.021.864,3.61,3.61,0,0,1-2,1.965A7.193,7.193,0,0,1,691.751,1097.009Zm-16.279-9.762c-.433,1.249.712,5.083.844,5.516,1,3.264,7.931,3.381,10.542,3.426a8.78,8.78,0,0,1,1.031.044c1.5.291,4.252.7,5.877.177a3.267,3.267,0,0,0,1.793-1.777.575.575,0,0,0,0-.53.306.306,0,0,0-.276-.135h0a4.4,4.4,0,0,0-.594.086,9.455,9.455,0,0,1-1.666.19c-.087,0-.177,0-.265,0a3.532,3.532,0,0,1-1.746-.279.2.2,0,0,1-.109-.136c-.031-.136.071-.268.274-.529.179-.231.513-.66.46-.83-.009-.03-.045-.055-.106-.074-.58-.183-1.442.47-2.136,1a2.8,2.8,0,0,1-1.23.7h-.016c-1.558,0-5.71-.844-6.869-2.957a10.541,10.541,0,0,1-1.062-3.126,3.889,3.889,0,0,0-1.412-2.37,1.945,1.945,0,0,0-1.721-.537C676.441,1085.3,675.9,1086.015,675.472,1087.247Z" transform="translate(-675.029 -1084.709)"/>
      </g>
      <path id="Path_20942" data-name="Path 20942" d="M416.818,1009.183s-.648-9.931,5.253-12.09c5.681-2.079,13.194-2.123,17.25.564,2,1.327,3.827,9.44,3.827,9.44l-3.187,3.6s.185,17.848-.908,22.5c0,0-5.3.349-7.488-.644s-9.473-2.6-13.066-1.159l1.774-22.5Z" transform="translate(-416.797 -995.583)" fill="#e54c38"/>
      <path id="Path_20943" data-name="Path 20943" d="M502.906,1319.993a.175.175,0,0,1-.022-.348c8.44-1.056,11.161-6.714,11.187-6.771a.175.175,0,0,1,.317.148c-.028.059-2.831,5.891-11.461,6.97Z" transform="translate(-496.128 -1288.399)" fill="#fff"/>
      <g id="Group_4814" data-name="Group 4814" transform="translate(13.223 9.314)">
        <path id="Path_20944" data-name="Path 20944" d="M600.558,1130.866l-8.984.288a.414.414,0,0,1-.406-.545l3.682-10.972a.414.414,0,0,1,.379-.282l8.984-.288a.414.414,0,0,1,.406.545l-3.681,10.972A.413.413,0,0,1,600.558,1130.866Z" transform="translate(-590.973 -1118.892)" fill="#fff"/>
        <path id="Path_20945" data-name="Path 20945" d="M589.47,1129.225a.588.588,0,0,1-.558-.775l3.682-10.972a.589.589,0,0,1,.539-.4l8.984-.288a.574.574,0,0,1,.491.236.591.591,0,0,1,.086.538l-3.681,10.972a.59.59,0,0,1-.539.4l-8.984.288Zm12.666-12.087h-.008l-8.984.288a.239.239,0,0,0-.219.163l-3.682,10.972a.238.238,0,0,0,.035.219.251.251,0,0,0,.2.1l8.984-.288a.24.24,0,0,0,.219-.163l3.682-10.971a.239.239,0,0,0-.227-.316Z" transform="translate(-588.881 -1116.789)"/>
      </g>
      <g id="Group_4815" data-name="Group 4815" transform="translate(0.854 12.706)">
        <path id="Path_20946" data-name="Path 20946" d="M430.18,1163.416l4.786-.216s.036,4.03.468,4.1a30.646,30.646,0,0,0,6.857.016,1.685,1.685,0,0,0,1.445-1.369,2.41,2.41,0,0,1,1.149-1.648c.725-.446.01.957.688,1.861.364.485,1.516.27,3.088-.094s1.97,1.315.209,2.33a8.329,8.329,0,0,1-3.731,1.106c-1.213.257-11.935,1.937-13.59,1.037C430.268,1169.845,430.18,1163.416,430.18,1163.416Z" transform="translate(-430.006 -1163.026)" fill="#fff"/>
        <path id="Path_20947" data-name="Path 20947" d="M431.531,1168.889a5.389,5.389,0,0,1-2.162-.285c-1.33-.723-1.449-6.607-1.458-7.275a.174.174,0,0,1,.167-.177l4.786-.216a.173.173,0,0,1,.128.048.174.174,0,0,1,.055.125,15.657,15.657,0,0,0,.352,3.937,30.411,30.411,0,0,0,6.777.01,1.505,1.505,0,0,0,1.295-1.229,2.6,2.6,0,0,1,1.229-1.764.458.458,0,0,1,.451-.075c.181.1.179.338.177.666a2.118,2.118,0,0,0,.291,1.314c.3.4,1.549.156,2.909-.159.866-.2,1.347.165,1.508.575.217.55-.058,1.435-1.173,2.076a7.516,7.516,0,0,1-3.327,1.066,4.516,4.516,0,0,0-.456.06A88.367,88.367,0,0,1,431.531,1168.889Zm-3.269-7.4c.039,1.873.328,6.29,1.273,6.8,1.585.861,12.236-.794,13.47-1.055a4.833,4.833,0,0,1,.493-.065,7.2,7.2,0,0,0,3.187-1.021c.935-.539,1.186-1.231,1.022-1.646-.138-.35-.561-.489-1.105-.363-1.641.38-2.835.6-3.267.028a2.432,2.432,0,0,1-.361-1.527,2.618,2.618,0,0,0-.01-.335.669.669,0,0,0-.085.046,2.232,2.232,0,0,0-1.069,1.532,1.854,1.854,0,0,1-1.6,1.51,30.723,30.723,0,0,1-6.906-.017c-.141-.024-.564-.094-.612-4.092Z" transform="translate(-427.91 -1160.935)"/>
      </g>
    </g>
    <g id="Group_4818" data-name="Group 4818" transform="translate(11.494)">
      <path id="Path_20948" data-name="Path 20948" d="M554.32,850.375a2.078,2.078,0,0,1-2.133.486,1.863,1.863,0,0,1-.725-1.805,1.07,1.07,0,0,1-.792-.242c-.34-.333-.244-.908-.211-1.289.153-1.754-.854-2.074-.544-3.254a2.838,2.838,0,0,1,1.15-1.545c.722-.492,1.183-.3,2.367-.545,1.992-.416,2.1-1.26,3.392-1.2.074,0,1.836.112,2.373,1.359a2.707,2.707,0,0,1-.812,2.792c-.8.781-1.328.348-2.126,1C554.857,847.269,555.776,849.17,554.32,850.375Z" transform="translate(-549.855 -840.979)"/>
      <g id="Group_4817" data-name="Group 4817" transform="translate(0.859 2.641)">
        <path id="Path_20949" data-name="Path 20949" d="M570.765,880.874a3.923,3.923,0,0,1-.928-1.628c-.463-1.908-2.2-2.26-2.375-.4-.048.494-1.856.377-1.668.908.492,1.384.523,1.02-.293,1.48a.674.674,0,0,0-.265.049.907.907,0,0,0-.382,1.213,1.051,1.051,0,0,0,.614.609l-.108,2.142a1.98,1.98,0,0,1-1.322,1.768l-.739.259a6.265,6.265,0,0,0,6.807.127l-.447-.228a2.307,2.307,0,0,1-1.258-2.1l.018-.419a1.8,1.8,0,0,0,.662-.022c.971-.231,1.345-1.318,1.252-2.7l.422-.384A.46.46,0,0,0,570.765,880.874Z" transform="translate(-563.126 -877.444)" fill="#fff"/>
        <path id="Path_20950" data-name="Path 20950" d="M564.8,886.433a6.925,6.925,0,0,1-3.695-1.119.174.174,0,0,1,.044-.305l.739-.259a1.8,1.8,0,0,0,1.2-1.612l.1-2.019a1.244,1.244,0,0,1-.6-.657,1.258,1.258,0,0,1-.045-.849.914.914,0,0,1,.524-.591.856.856,0,0,1,.284-.062c.133-.073.241-.125.33-.166a.966.966,0,0,0,.188-.1,2.6,2.6,0,0,0-.158-.478c-.051-.136-.113-.3-.184-.5a.359.359,0,0,1,.02-.3c.128-.23.489-.313.907-.407.234-.053.721-.163.732-.274.079-.823.466-1.339,1.035-1.378.621-.046,1.389.546,1.683,1.758a3.773,3.773,0,0,0,.878,1.543.635.635,0,0,1-.012.928l-.36.328c.085,1.548-.419,2.564-1.391,2.794a1.847,1.847,0,0,1-.536.044l-.01.234a2.144,2.144,0,0,0,1.163,1.937l.447.228a.175.175,0,0,1,.014.3A6.1,6.1,0,0,1,564.8,886.433Zm-3.191-1.216a6.079,6.079,0,0,0,6.048.1l-.167-.085a2.5,2.5,0,0,1-1.353-2.258l.018-.423a.174.174,0,0,1,.2-.166,1.622,1.622,0,0,0,.6-.019c1.144-.271,1.163-1.85,1.118-2.516a.174.174,0,0,1,.057-.141l.423-.384a.285.285,0,0,0,.005-.417,4.071,4.071,0,0,1-.977-1.714c-.246-1.013-.86-1.529-1.319-1.493-.384.027-.651.425-.712,1.064-.035.362-.526.474-1,.581-.21.048-.645.146-.679.237.075.214.136.377.186.512.237.631.294.781-.208,1.017-.092.043-.206.1-.346.176a.2.2,0,0,1-.087.022.477.477,0,0,0-.2.036.571.571,0,0,0-.322.372.906.906,0,0,0,.036.613.881.881,0,0,0,.509.509.173.173,0,0,1,.118.174l-.108,2.143a2.146,2.146,0,0,1-1.438,1.924Z" transform="translate(-561.037 -875.348)"/>
      </g>
      <path id="Path_20951" data-name="Path 20951" d="M605.458,951.138a.179.179,0,0,1-.035,0,2.973,2.973,0,0,1-1.983-1.429.174.174,0,1,1,.31-.158,2.67,2.67,0,0,0,1.743,1.246.174.174,0,0,1-.035.345Z" transform="translate(-599.305 -941.116)"/>
    </g>
  </g>
  <g id="Group_4820" data-name="Group 4820" transform="translate(0 0)">
    <path id="Path_20952" data-name="Path 20952" d="M371.353,720.721a.177.177,0,0,1-.073-.016.174.174,0,0,1-.085-.231,55.868,55.868,0,0,1,3.148-5.881.174.174,0,1,1,.3.183,55.716,55.716,0,0,0-3.128,5.844A.174.174,0,0,1,371.353,720.721Z" transform="translate(-367.34 -685.347)" fill="#2f7825"/>
    <path id="Path_20953" data-name="Path 20953" d="M468.789,358.407a.175.175,0,0,1-.142-.275c6.585-9.288,17.07-15.081,24.707-18.306A84.209,84.209,0,0,1,508.5,335a.174.174,0,1,1,.064.343,83.856,83.856,0,0,0-15.08,4.8c-7.593,3.207-18.015,8.965-24.551,18.183A.17.17,0,0,1,468.789,358.407Z" transform="translate(-457.289 -335)" fill="#2f7825"/>
    <path id="Path_20954" data-name="Path 20954" d="M663.894,374.8a.175.175,0,0,1-.081-.33,53.893,53.893,0,0,1,7.225-3.14.174.174,0,0,1,.115.329,53.5,53.5,0,0,0-7.179,3.119A.168.168,0,0,1,663.894,374.8Z" transform="translate(-637.402 -368.532)" fill="#2f7825"/>
    <path id="Path_20955" data-name="Path 20955" d="M321.4,470.87a.165.165,0,0,1-.06-.011.173.173,0,0,1-.1-.224,51.939,51.939,0,0,1,5-9.429,59.7,59.7,0,0,1,17.207-17.317.174.174,0,1,1,.19.293,59.343,59.343,0,0,0-17.1,17.205,51.623,51.623,0,0,0-4.969,9.367A.175.175,0,0,1,321.4,470.87Z" transform="translate(-321.227 -435.495)" fill="#2f7825"/>
    <path id="Path_20956" data-name="Path 20956" d="M786.041,338.131a1.571,1.571,0,1,1,1.571-1.571A1.572,1.572,0,0,1,786.041,338.131Zm0-2.792a1.222,1.222,0,1,0,1.222,1.222A1.224,1.224,0,0,0,786.041,335.34Z" transform="translate(-748.873 -334.99)" fill="#2f7825"/>
    <path id="Path_20957" data-name="Path 20957" d="M1735.832,1928.155a.175.175,0,0,1-.033-.346c11.618-2.291,19.028-7.413,23.2-11.308a30.042,30.042,0,0,0,6.317-7.962.174.174,0,0,1,.315.149,30.412,30.412,0,0,1-6.394,8.067c-4.2,3.925-11.67,9.089-23.369,11.4A.125.125,0,0,1,1735.832,1928.155Z" transform="translate(-1626.969 -1787.532)" fill="#2f7825"/>
    <path id="Path_20958" data-name="Path 20958" d="M2007.125,1932.1a.172.172,0,0,1-.153-.093.175.175,0,0,1,.071-.237c7.658-4.115,12.736-12.926,12.786-13.015a.175.175,0,1,1,.3.173c-.051.089-5.177,8.987-12.924,13.15A.169.169,0,0,1,2007.125,1932.1Z" transform="translate(-1877.415 -1796.978)" fill="#2f7825"/>
    <path id="Path_20959" data-name="Path 20959" d="M2122.847,1863.354a1.477,1.477,0,0,1,0-2.954.174.174,0,0,1,0,.349,1.128,1.128,0,1,0,1.128,1.128.174.174,0,1,1,.348,0A1.477,1.477,0,0,1,2122.847,1863.354Z" transform="translate(-1983.042 -1743.183)" fill="#2f7825"/>
  </g>
</svg>
