<svg xmlns="http://www.w3.org/2000/svg" width="22" height="20" viewBox="0 0 22 20">
  <g id="Heart" transform="translate(0 0)">
    <path id="Heart-2" data-name="Heart" d="M11.036,20h0l-.285-.168a41.789,41.789,0,0,1-7.006-5.222A13.608,13.608,0,0,1,.432,9.558,7.823,7.823,0,0,1,.59,4.006,6.583,6.583,0,0,1,4.757.283a5.143,5.143,0,0,1,.978-.22h.132A6.552,6.552,0,0,1,6.791,0h.121A7.171,7.171,0,0,1,8.925.348h.065a.365.365,0,0,1,.1.063,3.807,3.807,0,0,1,.693.275L10.2.863a2.9,2.9,0,0,1,.314.2c.063.044.117.082.159.106l.045.025A2.7,2.7,0,0,1,11,1.368,7.047,7.047,0,0,1,15.19,0h.048a6.673,6.673,0,0,1,2.046.306,6.512,6.512,0,0,1,4.131,3.7,8,8,0,0,1,.17,5.55,13.384,13.384,0,0,1-3.31,5.063,42.253,42.253,0,0,1-6.965,5.221L11.037,20Zm5.4-16.718a.888.888,0,0,0-.833.571.854.854,0,0,0,.549,1.083,1.768,1.768,0,0,1,1.177,1.653v.032a.879.879,0,0,0,.209.653.939.939,0,0,0,.627.305.888.888,0,0,0,.869-.8V6.654a3.478,3.478,0,0,0-2.321-3.327A.893.893,0,0,0,16.434,3.282Z" transform="translate(0 0)" fill="#dfdfdf"/>
  </g>
</svg>
