<svg xmlns="http://www.w3.org/2000/svg" width="255.999" height="277.322" viewBox="0 0 255.999 277.322">
  <g id="Mobile_feed-pana" data-name="Mobile feed-pana" transform="translate(-37.9 -20.798)">
    <g id="freepik--background-complete--inject-5" transform="translate(75.108 37.655)">
      <path id="Path_27070" data-name="Path 27070" d="M221.7,63.237a8.031,8.031,0,0,0,2.591-8.4,7.529,7.529,0,1,0-14.484,4,8,8,0,0,0,6.633,5.9c-10.657,4.8-6.753,16.757-6.753,16.757l26.346-7.3S233.194,61.8,221.7,63.237Z" transform="translate(-143.587 -48.863)" fill="#ebebeb"/>
      <rect id="Rectangle_5163" data-name="Rectangle 5163" width="13.35" height="4.966" transform="translate(161.704 79.912) rotate(-79.33)" fill="#e0e0e0"/>
      <rect id="Rectangle_5164" data-name="Rectangle 5164" width="13.35" height="4.966" transform="translate(163.023 80.16) rotate(-79.33)" fill="#ebebeb"/>
      <path id="Path_27071" data-name="Path 27071" d="M377.3,165.78a1.116,1.116,0,1,0,.468-.719A1.122,1.122,0,0,0,377.3,165.78Z" transform="translate(-210.948 -95.295)" fill="#fff"/>
      <path id="Path_27072" data-name="Path 27072" d="M373.06,163.51a3.538,3.538,0,0,1,.57,1.032,3.335,3.335,0,0,1,.384,1.109,3.538,3.538,0,0,1-.57-1.032,3.335,3.335,0,0,1-.384-1.11Z" transform="translate(-209.26 -94.752)" fill="#ebebeb"/>
      <path id="Path_27073" data-name="Path 27073" d="M372.6,165.93a3.538,3.538,0,0,1,.57,1.032,3.6,3.6,0,0,1,.39,1.11,3.383,3.383,0,0,1-.57-1.032A3.6,3.6,0,0,1,372.6,165.93Z" transform="translate(-209.075 -95.72)" fill="#ebebeb"/>
      <path id="Path_27074" data-name="Path 27074" d="M372.14,168.35a3.473,3.473,0,0,1,.6,1.032,3.335,3.335,0,0,1,.384,1.11,3.54,3.54,0,0,1-.57-1.032A3.6,3.6,0,0,1,372.14,168.35Z" transform="translate(-208.891 -96.689)" fill="#ebebeb"/>
      <path id="Path_27075" data-name="Path 27075" d="M371.69,170.77a3.538,3.538,0,0,1,.57,1.032,3.6,3.6,0,0,1,.39,1.11,3.472,3.472,0,0,1-.6-1.032,3.335,3.335,0,0,1-.36-1.109Z" transform="translate(-208.711 -97.657)" fill="#ebebeb"/>
      <path id="Path_27076" data-name="Path 27076" d="M371.23,173.19a3.382,3.382,0,0,1,.57,1.032,3.6,3.6,0,0,1,.39,1.11,3.539,3.539,0,0,1-.57-1.032A3.6,3.6,0,0,1,371.23,173.19Z" transform="translate(-208.527 -98.626)" fill="#ebebeb"/>
      <path id="Path_27077" data-name="Path 27077" d="M370.78,175.61a3.538,3.538,0,0,1,.6,1.032,3.335,3.335,0,0,1,.384,1.11,3.539,3.539,0,0,1-.57-1.032A3.335,3.335,0,0,1,370.78,175.61Z" transform="translate(-208.347 -99.595)" fill="#ebebeb"/>
      <path id="Path_27078" data-name="Path 27078" d="M370.32,178a3.538,3.538,0,0,1,.57,1.032,3.6,3.6,0,0,1,.39,1.11,3.382,3.382,0,0,1-.57-1.032,3.6,3.6,0,0,1-.39-1.11Z" transform="translate(-208.163 -100.551)" fill="#ebebeb"/>
      <path id="Path_27079" data-name="Path 27079" d="M373.48,161.38a3.538,3.538,0,0,1,.57,1.032,3.6,3.6,0,0,1,.39,1.11,3.383,3.383,0,0,1-.57-1.032A3.6,3.6,0,0,1,373.48,161.38Z" transform="translate(-209.428 -93.899)" fill="#ebebeb"/>
      <path id="Path_27080" data-name="Path 27080" d="M374.52,160.38a1.469,1.469,0,0,1,.372.6c.156.36.246.648.192.672s-.216-.24-.372-.6S374.466,160.4,374.52,160.38Z" transform="translate(-209.837 -93.499)" fill="#ebebeb"/>
      <path id="Path_27081" data-name="Path 27081" d="M355.345,163.932l1.919-11.641s-2.483-.99-4.126-4.93c-1.086-2.609-.06-4.966-.162-6.039-.06-.654-1.553-.81-2.213-.852a2.543,2.543,0,0,0-2.3.99c-1.122,1.643-.834,6.129-.834,6.129s.318.96-.906.732l-4.348-.822a2.4,2.4,0,0,0-1.655.264,1.8,1.8,0,0,0-.924,1.415,7.794,7.794,0,0,0,.486,2.939,3.262,3.262,0,0,0-.5,1.937c.162,1.068.4,1.02.306,1.5a7.9,7.9,0,0,0-.066,2.513,3.6,3.6,0,0,0,.444,1.2,5.326,5.326,0,0,0-.162,2.543c.42,1.283,3.149,2.6,4.438,2.279.6-.15,3.311-.282,4.588-.354S354.3,163.146,355.345,163.932Z" transform="translate(-195.929 -85.524)" fill="#e0e0e0"/>
      <path id="Path_27082" data-name="Path 27082" d="M358.1,164.561l2.213-11.725s-2.483-.99-4.126-4.93a19.912,19.912,0,0,1-1.517-5.686,1.355,1.355,0,0,0-1.235-1.241,2.069,2.069,0,0,0-2.009.948c-1.121,1.637-.744,6.207-.744,6.207s.318.96-.9.732l-4.354-.822a2.441,2.441,0,0,0-1.655.264,1.8,1.8,0,0,0-.924,1.421c-.186,1.679.552,2.585.486,2.933a3.218,3.218,0,0,0-.5,1.937c.162,1.068.4,1.02.306,1.5a7.936,7.936,0,0,0-.066,2.519,3.6,3.6,0,0,0,.444,1.2,6.135,6.135,0,0,0-.162,2.543c.264,1,2,1.8,2.615,1.937s5.134.06,6.411,0S357.033,163.775,358.1,164.561Z" transform="translate(-197.149 -85.727)" fill="#ebebeb"/>
      <path id="Path_27083" data-name="Path 27083" d="M353,148.32a7.555,7.555,0,0,1,.918,1.241,8.271,8.271,0,0,1,.828,1.3,4.624,4.624,0,0,1-.99-1.2A5.236,5.236,0,0,1,353,148.32Z" transform="translate(-201.23 -88.672)" fill="#ebebeb"/>
      <path id="Path_27084" data-name="Path 27084" d="M353.05,145.63a8.518,8.518,0,0,1,.888,1.086,4.619,4.619,0,0,1,.8,1.158,5.4,5.4,0,0,1-.954-1.032A3.539,3.539,0,0,1,353.05,145.63Z" transform="translate(-201.25 -87.595)" fill="#ebebeb"/>
      <path id="Path_27085" data-name="Path 27085" d="M353.7,143.309c.054-.03.33.4.756.846a2.56,2.56,0,0,1,.672.93,4.8,4.8,0,0,1-.822-.792A2.057,2.057,0,0,1,353.7,143.309Z" transform="translate(-201.51 -86.665)" fill="#ebebeb"/>
      <path id="Path_27086" data-name="Path 27086" d="M354.865,141.488c.042-.03.312.234.6.6s.492.684.45.714-.312-.228-.6-.6S354.817,141.524,354.865,141.488Z" transform="translate(-201.974 -85.936)" fill="#ebebeb"/>
      <path id="Path_27087" data-name="Path 27087" d="M356.556,140.6c.036-.042.228.084.426.27s.324.378.282.42-.228-.084-.426-.276S356.52,140.647,356.556,140.6Z" transform="translate(-202.651 -85.58)" fill="#ebebeb"/>
      <path id="Path_27088" data-name="Path 27088" d="M352.867,151.868c.042-.036.33.246.636.6s.522.72.474.756-.324-.246-.63-.63S352.825,151.9,352.867,151.868Z" transform="translate(-201.175 -90.09)" fill="#ebebeb"/>
      <path id="Path_27089" data-name="Path 27089" d="M339.77,156.46a6.746,6.746,0,0,1,1.235,1.1,7.2,7.2,0,0,1,1.092,1.229,6.6,6.6,0,0,1-1.235-1.092A6.842,6.842,0,0,1,339.77,156.46Z" transform="translate(-195.935 -91.93)" fill="#ebebeb"/>
      <path id="Path_27090" data-name="Path 27090" d="M340.51,153.167c.042-.042.384.24.762.6s.66.726.6.768-.384-.24-.762-.6a2.585,2.585,0,0,1-.6-.768Z" transform="translate(-196.231 -90.61)" fill="#ebebeb"/>
      <path id="Path_27091" data-name="Path 27091" d="M340,161.41a3.221,3.221,0,0,1,.966.75,3.065,3.065,0,0,1,.75.966,5.235,5.235,0,0,1-.894-.822A5,5,0,0,1,340,161.41Z" transform="translate(-196.027 -93.911)" fill="#ebebeb"/>
      <path id="Path_27092" data-name="Path 27092" d="M340.34,165.38a3.719,3.719,0,0,1,.888.822,3.857,3.857,0,0,1,.738.954,3.718,3.718,0,0,1-.888-.822A3.6,3.6,0,0,1,340.34,165.38Z" transform="translate(-196.163 -95.5)" fill="#ebebeb"/>
      <path id="Path_27093" data-name="Path 27093" d="M340.35,170a7.089,7.089,0,0,1,1,.984,7.419,7.419,0,0,1,.936,1.038,3.856,3.856,0,0,1-1.079-.9A3.934,3.934,0,0,1,340.35,170Z" transform="translate(-196.167 -97.349)" fill="#ebebeb"/>
      <path id="Path_27094" data-name="Path 27094" d="M340.57,173.92a31.473,31.473,0,0,1,2.255,2.363,5.128,5.128,0,0,1-1.242-1.074,5.3,5.3,0,0,1-1.014-1.289Z" transform="translate(-196.255 -98.918)" fill="#ebebeb"/>
      <path id="Path_27095" data-name="Path 27095" d="M401.616,323.442a15.3,15.3,0,0,0-9.494-1.151,7.841,7.841,0,0,0-4.69,2.093c-1.169,1.3-1.4,3.6-.048,4.678a4.456,4.456,0,0,0,2.957.75c2.507,0,5.29-.468,7.3,1.044,1.139.858,1.9,2.291,3.269,2.717a3.244,3.244,0,0,0,3.562-1.583,5.536,5.536,0,0,0,.4-4.078A6.225,6.225,0,0,0,401.616,323.442Z" transform="translate(-214.623 -158.197)" fill="#ebebeb"/>
      <path id="Path_27096" data-name="Path 27096" d="M414.888,285.627c-1.769,2.525-5.2,1.691-6.789.15s-2.267-3.772-2.879-5.9c-1.4-4.864-2.807-9.962-1.769-14.915a8.313,8.313,0,0,1,1.907-4.054,4.318,4.318,0,0,1,4.1-1.361c1.727.456,2.8,2.153,3.6,3.766a35.535,35.535,0,0,1,3.514,15.251c0,2.459-.282,5.032-1.667,7.059" transform="translate(-221.28 -133.157)" fill="#ebebeb"/>
      <path id="Path_27097" data-name="Path 27097" d="M429.6,294.661a9.2,9.2,0,0,1-1.427-8.444,16.293,16.293,0,0,1,5-7.257,26.953,26.953,0,0,1,8.954-5.284,9.53,9.53,0,0,1,4.03-.684,4.234,4.234,0,0,1,3.383,2.045c.942,1.8.036,3.976-.942,5.757a67.956,67.956,0,0,1-5.883,8.954c-1.763,2.273-3.778,4.516-6.465,5.548s-5.482.906-6.9-.96" transform="translate(-231.145 -138.569)" fill="#ebebeb"/>
      <path id="Path_27098" data-name="Path 27098" d="M414.2,351.056a5.116,5.116,0,0,1-.162-1.145c-.084-.834-.18-1.883-.306-3.131a44.846,44.846,0,0,0-.7-4.588,35.6,35.6,0,0,0-1.667-5.4,20.079,20.079,0,0,0-2.765-4.9,10.31,10.31,0,0,0-3.5-2.909,9.954,9.954,0,0,0-2.945-.918,5.585,5.585,0,0,1-1.139-.162,4.829,4.829,0,0,1,1.164,0,8.96,8.96,0,0,1,3.071.8,10.237,10.237,0,0,1,3.682,2.933,19.449,19.449,0,0,1,2.867,5,33.161,33.161,0,0,1,1.655,5.506,38.207,38.207,0,0,1,.6,4.642c.1,1.331.138,2.4.156,3.149a6.051,6.051,0,0,1-.012,1.128Z" transform="translate(-220.451 -160.539)" fill="#e0e0e0"/>
      <path id="Path_27099" data-name="Path 27099" d="M418.693,328.011a1.888,1.888,0,0,1-.03-.528V325.96c0-1.319,0-3.227-.066-5.584-.114-4.72-.522-9.794-1.307-16.949-.744-6.729-1.739-14.562-2.789-19.653-.228-1.158-.456-2.2-.672-3.113s-.378-1.7-.546-2.339-.258-1.091-.354-1.481a1.872,1.872,0,0,1-.09-.522,2.4,2.4,0,0,1,.18.5c.12.384.264.864.444,1.457s.4,1.415.6,2.327.492,1.949.738,3.1a172.186,172.186,0,0,1,2.933,18.214c.792,7.2,1.146,13.7,1.2,18.43,0,2.363,0,4.276-.084,5.6-.036.6-.066,1.122-.1,1.517a2.532,2.532,0,0,1-.06.552Z" transform="translate(-225.182 -139.905)" fill="#e0e0e0"/>
      <path id="Path_27100" data-name="Path 27100" d="M422.521,317.989a11.143,11.143,0,0,1,0-1.589c.06-1.02.2-2.495.486-4.306a56.652,56.652,0,0,1,1.4-6.267,51.075,51.075,0,0,1,2.621-7.419,39.48,39.48,0,0,1,7.7-11.995,18.778,18.778,0,0,1,1.8-1.685c.276-.234.522-.468.774-.654l.7-.486a10.229,10.229,0,0,1,1.337-.858,47.984,47.984,0,0,0-4.384,3.91,41.765,41.765,0,0,0-7.509,11.947,58.816,58.816,0,0,0-2.633,7.353c-.69,2.3-1.146,4.42-1.493,6.207s-.516,3.251-.63,4.258a9.763,9.763,0,0,1-.174,1.583Z" transform="translate(-229.046 -142.471)" fill="#e0e0e0"/>
      <path id="Path_27101" data-name="Path 27101" d="M426.333,378.56l-1.259,17.284H402.859L401.6,378.56Z" transform="translate(-220.683 -180.828)" fill="#e0e0e0"/>
      <rect id="Rectangle_5165" data-name="Rectangle 5165" width="29.531" height="6.813" transform="translate(178.266 190.919)" fill="#e0e0e0"/>
      <path id="Path_27102" data-name="Path 27102" d="M427.039,406.28v1.889H398V406.28Z" transform="translate(-219.242 -191.923)" fill="#ebebeb"/>
      <path id="Path_27103" data-name="Path 27103" d="M425,412.753l1.355-3.323H399.76l1.583,3.323Z" transform="translate(-219.947 -193.184)" fill="#e0e0e0"/>
      <path id="Path_27104" data-name="Path 27104" d="M402.29,386.383a.9.9,0,0,0,.1.156l.33.444,1.3,1.655.06.072.054-.078c.816-1.121,1.9-2.627,3.179-4.4h-.18l3.125,4.432.1.138.108-.132,3.712-4.414h-.216l.2.252,3.323,4.162.108.138.1-.144,3.131-4.426h-.18c1.541,1.757,2.849,3.251,3.856,4.39l.066.084.054-.09,1.2-2.027c.126-.222.228-.4.312-.54a.769.769,0,0,0,.09-.2s-.048.06-.126.174l-.342.522c-.312.48-.738,1.152-1.271,1.991h.126l-3.8-4.444-.108-.12-.084.12-3.161,4.408h.246L414.4,384.35c-.066-.09-.138-.18-.2-.258l-.1-.132-.108.132-3.706,4.42h.21l-3.161-4.414-.09-.126-.09.126-3.113,4.444h.114l-1.349-1.613-.36-.42A.8.8,0,0,0,402.29,386.383Z" transform="translate(-220.959 -182.989)" fill="#f5f5f5"/>
      <path id="Path_27105" data-name="Path 27105" d="M401.09,378.278c0,.072,5.56.138,12.427.138s12.427-.066,12.427-.138-5.56-.138-12.427-.138S401.09,378.2,401.09,378.278Z" transform="translate(-220.479 -180.66)" fill="#f5f5f5"/>
      <path id="Path_27106" data-name="Path 27106" d="M399.21,409.648c0,.078,6.051.138,13.512.138s13.506-.06,13.506-.138-6.045-.138-13.506-.138S399.21,409.57,399.21,409.648Z" transform="translate(-219.726 -193.216)" fill="#f5f5f5"/>
      <path id="Path_27107" data-name="Path 27107" d="M99.94,416.045c15.443,18.226,38.419,29.243,62.085,32.506s45.172,2.009,67.561-6.309c6.183-2.291,13.794-7.293,20.313-11.821a26.808,26.808,0,0,0,10.867-16.031Z" transform="translate(-99.94 -195.169)" fill="#ebebeb"/>
    </g>
    <g id="freepik--Floor--inject-5" transform="translate(37.9 257.086)">
      <path id="Path_27108" data-name="Path 27108" d="M289.91,414.9c0,.09-56.417.156-126,.156S37.9,414.968,37.9,414.9s56.375-.156,126.011-.156S289.91,414.794,289.91,414.9Z" transform="translate(-37.9 -414.74)" fill="#263238"/>
    </g>
    <g id="freepik--Screen--inject-5" transform="translate(41.037 26.947)">
      <path id="Path_27109" data-name="Path 27109" d="M114.257,31.12H102.562a2.549,2.549,0,0,0-2.447,1.835l-.96,3.281a2.849,2.849,0,0,1-2.741,2.051H70.506a2.861,2.861,0,0,1-2.747-2.045l-.954-3.281a2.561,2.561,0,0,0-2.453-1.829H52.658a9.29,9.29,0,0,0-9.308,9.29l.078,184.833a9.284,9.284,0,0,0,9.308,9.26l61.593-.03a9.29,9.29,0,0,0,9.308-9.272L123.559,40.38A9.29,9.29,0,0,0,114.257,31.12Z" transform="translate(-43.218 -31.053)" fill="#fff" stroke="#707070" stroke-width="0.125"/>
      <path id="Path_27110" data-name="Path 27110" d="M56.275,63.906a.156.156,0,0,1-.114-.042l-1.871-1.6a.174.174,0,0,1-.06-.132A.168.168,0,0,1,54.29,62l1.943-1.7a.174.174,0,0,1,.246,0,.168.168,0,0,1,0,.246l-1.8,1.571L56.4,63.577a.18.18,0,0,1,0,.252A.168.168,0,0,1,56.275,63.906Z" transform="translate(-47.573 -42.711)" fill="#263238" stroke="#707070" stroke-width="0.125"/>
      <path id="Path_27111" data-name="Path 27111" d="M123.675,163.369H43.22l.09-62.277,80.287-.072Z" transform="translate(-43.166 -59.032)" fill="#fafafa" stroke="#707070" stroke-width="0.125"/>
      <circle id="Ellipse_797" data-name="Ellipse 797" cx="0.636" cy="0.636" r="0.636" transform="translate(73.24 31.979)" fill="#263238" stroke="#707070" stroke-width="0.125"/>
      <circle id="Ellipse_798" data-name="Ellipse 798" cx="0.636" cy="0.636" r="0.636" transform="translate(73.24 34.168)" fill="#263238" stroke="#707070" stroke-width="0.125"/>
      <circle id="Ellipse_799" data-name="Ellipse 799" cx="0.636" cy="0.636" r="0.636" transform="translate(73.24 36.351)" fill="#263238" stroke="#707070" stroke-width="0.125"/>
      <path id="Path_27112" data-name="Path 27112" d="M117.338,64.168c0,.09-7.269.162-16.229.162s-16.229-.072-16.229-.162S92.149,64,101.145,64,117.338,64.084,117.338,64.168Z" transform="translate(-59.841 -44.214)" fill="#263238" stroke="#707070" stroke-width="0.125"/>
      <path id="Path_27113" data-name="Path 27113" d="M52.823,222.6s1.955-1.8,2.315-2.219c.936-1.1.72-2.4-.462-2.717a1.985,1.985,0,0,0-1.955.6h-.036a1.985,1.985,0,0,0-1.955-.6c-1.2.318-1.4,1.613-.456,2.717.354.42,2.351,2.219,2.351,2.219l.126.1Z" transform="translate(-45.752 -105.695)" fill="#e54c38" stroke="#707070" stroke-width="0.125"/>
      <path id="Path_27114" data-name="Path 27114" d="M72.462,222.734l-1.667-.45a2.657,2.657,0,0,1-1.379.384,2.7,2.7,0,1,1,2.471-1.625Zm-3.047-5.146a2.4,2.4,0,1,0,1.277,4.426l.174-.114v.12l1.1.294-.432-1.265v-.054a2.4,2.4,0,0,0-2.171-3.389Z" transform="translate(-52.569 -105.562)" fill="#263238" stroke="#707070" stroke-width="0.125"/>
      <path id="Path_27115" data-name="Path 27115" d="M86.3,223.114,85.651,220,83.18,217.9l6.321-.156Zm-2.327-4.93,1.949,1.655.51,2.459,2.537-4.234Z" transform="translate(-59.16 -105.75)" fill="#263238" stroke="#707070" stroke-width="0.125"/>
      <rect id="Rectangle_5166" data-name="Rectangle 5166" width="4.054" height="0.3" transform="matrix(0.855, -0.519, 0.519, 0.855, 26.571, 114.12)" fill="#263238" stroke="#707070" stroke-width="0.125"/>
      <path id="Path_27116" data-name="Path 27116" d="M163.19,223.377V217.44h4.8v5.937l-2.4-2.087Zm2.4-2.483,2.105,1.8v-4.978h-4.2v4.978Z" transform="translate(-91.185 -105.63)" fill="#263238" stroke="#707070" stroke-width="0.125"/>
      <path id="Path_27117" data-name="Path 27117" d="M52.823,351.664s1.955-1.8,2.315-2.219c.936-1.1.72-2.4-.462-2.723a2,2,0,0,0-1.955.6v.03l-.036-.03a2,2,0,0,0-1.955-.6c-1.2.324-1.4,1.619-.456,2.723.354.42,2.351,2.219,2.351,2.219l.126.1Z" transform="translate(-45.752 -157.354)" fill="#e54c38" stroke="#707070" stroke-width="0.125"/>
      <path id="Path_27118" data-name="Path 27118" d="M72.469,351.832l-1.667-.45a2.657,2.657,0,0,1-1.379.384,2.693,2.693,0,1,1,2.693-2.693,2.747,2.747,0,0,1-.222,1.068Zm-3.047-5.152a2.4,2.4,0,1,0,1.277,4.414l.174-.114v.12l1.1.294-.432-1.265v-.054a2.435,2.435,0,0,0,.222-1,2.4,2.4,0,0,0-2.339-2.393Z" transform="translate(-52.576 -157.24)" fill="#263238" stroke="#707070" stroke-width="0.125"/>
      <path id="Path_27119" data-name="Path 27119" d="M86.3,352.206l-.648-3.107L83.18,347l6.321-.15Zm-2.327-4.924,1.949,1.655.51,2.459,2.537-4.234Z" transform="translate(-59.16 -157.428)" fill="#263238" stroke="#707070" stroke-width="0.125"/>
      <rect id="Rectangle_5167" data-name="Rectangle 5167" width="4.054" height="0.3" transform="matrix(0.855, -0.519, 0.519, 0.855, 26.575, 191.538)" fill="#263238" stroke="#707070" stroke-width="0.125"/>
      <path id="Path_27120" data-name="Path 27120" d="M163.19,352.461V346.53h4.8v5.931l-2.4-2.081Zm2.4-2.477,2.105,1.8v-4.972h-4.2v4.978Z" transform="translate(-91.185 -157.3)" fill="#263238" stroke="#707070" stroke-width="0.125"/>
      <path id="Path_27121" data-name="Path 27121" d="M121.717,241.9c0,.084-16.049.156-35.846.156S50,242,50,241.9s16.043-.156,35.846-.156S121.717,241.83,121.717,241.9Z" transform="translate(-45.88 -115.357)" fill="#263238" stroke="#707070" stroke-width="0.125"/>
      <path id="Path_27122" data-name="Path 27122" d="M82.746,246.966c0,.084-7.329.156-16.361.156S50,247.05,50,246.966s7.323-.156,16.361-.156S82.746,246.876,82.746,246.966Z" transform="translate(-45.88 -117.386)" fill="#263238" stroke="#707070" stroke-width="0.125"/>
      <path id="Path_27123" data-name="Path 27123" d="M66.385,235.106c0,.084-3.664.156-8.18.156s-8.2-.072-8.2-.156,3.658-.156,8.18-.156S66.385,235.016,66.385,235.106Z" transform="translate(-45.88 -112.639)" fill="#263238" stroke="#707070" stroke-width="0.125"/>
      <path id="Path_27124" data-name="Path 27124" d="M59.483,86.867a3.191,3.191,0,1,1-.932-2.26,3.2,3.2,0,0,1,.932,2.26Z" transform="translate(-47.117 -52.087)" fill="#455a64" stroke="#707070" stroke-width="0.125"/>
      <path id="Path_27125" data-name="Path 27125" d="M100.248,90c0,.084-5.955.156-13.3.156S73.65,90.08,73.65,90s5.955-.156,13.3-.156S100.248,89.936,100.248,90Z" transform="translate(-55.346 -54.557)" fill="#263238" stroke="#707070" stroke-width="0.125"/>
      <circle id="Ellipse_800" data-name="Ellipse 800" cx="0.636" cy="0.636" r="0.636" transform="translate(72.154 138.84)" fill="#263238" stroke="#707070" stroke-width="0.125"/>
      <circle id="Ellipse_801" data-name="Ellipse 801" cx="0.636" cy="0.636" r="0.636" transform="translate(72.154 141.029)" fill="#263238" stroke="#707070" stroke-width="0.125"/>
      <circle id="Ellipse_802" data-name="Ellipse 802" cx="0.636" cy="0.636" r="0.636" transform="translate(72.154 143.212)" fill="#263238" stroke="#707070" stroke-width="0.125"/>
      <path id="Path_27126" data-name="Path 27126" d="M59.483,264.027a3.191,3.191,0,1,1-.932-2.26A3.2,3.2,0,0,1,59.483,264.027Z" transform="translate(-47.117 -122.998)" fill="#455a64" stroke="#707070" stroke-width="0.125"/>
      <path id="Path_27127" data-name="Path 27127" d="M100.248,267.132c0,.084-5.955.156-13.3.156s-13.3-.072-13.3-.156S79.587,267,86.934,267,100.248,267.048,100.248,267.132Z" transform="translate(-55.346 -125.467)" fill="#263238" stroke="#707070" stroke-width="0.125"/>
      <path id="Path_27128" data-name="Path 27128" d="M123.651,255.136c0,.084-17.992.156-40.122.156S43.4,255.22,43.4,255.136s17.962-.156,40.128-.156S123.651,255.052,123.651,255.136Z" transform="translate(-43.238 -120.656)" fill="#e0e0e0" stroke="#707070" stroke-width="0.125"/>
      <path id="Path_27129" data-name="Path 27129" d="M43.13,181.939l3.341-8.234,9.332-6.891L67.209,147.94l9.968.264,13.56,11.749,8.462-1.211,11.551,4.03,12.81,19.132Z" transform="translate(-43.13 -77.812)" fill="#ebebeb" stroke="#707070" stroke-width="0.125"/>
      <circle id="Ellipse_803" data-name="Ellipse 803" cx="13.854" cy="13.854" r="13.854" transform="translate(35.69 71.892) rotate(-76.85)" fill="#ebebeb" stroke="#707070" stroke-width="0.125"/>
      <path id="Path_27130" data-name="Path 27130" d="M139.1,126.174a3.9,3.9,0,0,0-2.939-1.889,2.933,2.933,0,0,0-2.621.9,4.966,4.966,0,0,0-1.241,2.567,4.912,4.912,0,0,0,.252,3,3.784,3.784,0,0,0,3.6,2.075,4.108,4.108,0,0,0,3.4-2.465A4.4,4.4,0,0,0,139.1,126.174Z" transform="translate(-78.769 -68.328)" fill="#e0e0e0" stroke="#707070" stroke-width="0.125"/>
      <path id="Path_27131" data-name="Path 27131" d="M139,142.466a1.967,1.967,0,0,0-2.027-.78h.054c-.54-.072-1.02.8-1.026,1.349a1.457,1.457,0,0,0,.912,1.259,1.673,1.673,0,0,0,1.709-.192,1.373,1.373,0,0,0,.378-1.637Z" transform="translate(-80.302 -75.3)" fill="#e0e0e0" stroke="#707070" stroke-width="0.125"/>
      <path id="Path_27132" data-name="Path 27132" d="M113.3,132.053a2,2,0,0,0-1.259-1.565,1.523,1.523,0,0,0-1.8.684l.036-.072a3.743,3.743,0,0,0-.642,1.445,2.4,2.4,0,0,0,.168,1.715,1.667,1.667,0,0,0,1.421.894,2.087,2.087,0,0,0,1.631-1.086,2.927,2.927,0,0,0,.444-2.015Z" transform="translate(-69.714 -70.795)" fill="#e0e0e0" stroke="#707070" stroke-width="0.125"/>
      <path id="Path_27133" data-name="Path 27133" d="M124.955,112.551c0,.1-1-.1-2.561-.06a13.3,13.3,0,0,0-10.483,5.35c-.948,1.247-1.361,2.153-1.451,2.111a5.345,5.345,0,0,1,1.086-2.369,11.935,11.935,0,0,1,1.835-2.183,12.859,12.859,0,0,1,2.861-2.021,12.51,12.51,0,0,1,3.311-1.128,11.929,11.929,0,0,1,2.843-.21A5.937,5.937,0,0,1,124.955,112.551Z" transform="translate(-70.073 -63.438)" fill="#f5f5f5" stroke="#707070" stroke-width="0.125"/>
      <path id="Path_27134" data-name="Path 27134" d="M129.041,148.731a2.191,2.191,0,0,1-.756.408,11.9,11.9,0,0,1-2.237.66,14.135,14.135,0,0,1-3.454.258,14.49,14.49,0,0,1-4.2-.81,14.7,14.7,0,0,1-3.76-2,14.356,14.356,0,0,1-2.525-2.4,12.355,12.355,0,0,1-1.325-1.919c-.258-.486-.366-.774-.33-.792s.684,1.008,1.991,2.4a16.283,16.283,0,0,0,2.531,2.2,15.641,15.641,0,0,0,3.6,1.877,15.845,15.845,0,0,0,4,.822,16.073,16.073,0,0,0,3.353-.12C127.878,149.085,129.005,148.653,129.041,148.731Z" transform="translate(-70.075 -75.49)" fill="#f5f5f5" stroke="#707070" stroke-width="0.125"/>
      <path id="Path_27135" data-name="Path 27135" d="M90.727,172.58c0,.108-2.021,6.477-2.021,6.477l1.014-1.026-1.457,4.456.96-1.337-1.134,5.584.552-.6-.96,3.94.822-1.026-.822,2.975h6.507l-1.541-6,.936,1.026-1.2-4.042.6.342-1.4-5.212.654.45Z" transform="translate(-60.962 -87.674)" fill="#455a64" stroke="#707070" stroke-width="0.125"/>
      <path id="Path_27136" data-name="Path 27136" d="M123.375,172.58c0,.108-2.027,6.477-2.027,6.477l1.014-1.026-1.457,4.456.96-1.337-1.14,5.584.546-.6-.96,3.94.822-1.026-.81,2.975h6.513l-1.547-6,.936,1.026-1.2-4.042.6.342-1.409-5.212.654.45Z" transform="translate(-74.022 -87.674)" fill="#455a64" stroke="#707070" stroke-width="0.125"/>
      <path id="Path_27137" data-name="Path 27137" d="M136.737,172.58c0,.108-2.021,6.477-2.021,6.477l1.014-1.026-1.457,4.456.96-1.337-1.133,5.584.552-.6-.96,3.94.822-1.026-.822,2.975H140.2l-1.541-6,.93,1.026-1.2-4.042.6.342-1.4-5.212.654.45Z" transform="translate(-79.378 -87.674)" fill="#455a64" stroke="#707070" stroke-width="0.125"/>
      <path id="Path_27138" data-name="Path 27138" d="M142.827,181.57c0,.078-1.463,4.684-1.463,4.684l.732-.744-1.056,3.221.7-.966-.816,4.03.4-.42-.7,2.849.6-.744-.6,2.129h4.7l-1.11-4.354.672.738-.87-2.921.444.252-1.014-3.766.468.324Z" transform="translate(-82.152 -91.273)" fill="#455a64" stroke="#707070" stroke-width="0.125"/>
      <path id="Path_27139" data-name="Path 27139" d="M82.223,186c0,.06-1.2,3.8-1.2,3.8l.6-.6-.852,2.585.564-.786-.666,3.281.324-.342-.564,2.315.486-.6L80.43,197.4h3.826l-.906-3.544.546.6-.708-2.4.36.2-.822-3.065.384.264Z" transform="translate(-58.06 -93.046)" fill="#455a64" stroke="#707070" stroke-width="0.125"/>
      <path id="Path_27140" data-name="Path 27140" d="M97.308,166.92c0,.12-2.4,7.6-2.4,7.6l1.2-1.2L94.4,178.561l1.128-1.571L94.2,183.551l.642-.684L93.71,187.5l.972-1.2-.96,3.46h7.653l-1.8-7.083,1.092,1.2-1.415-4.75.726.4L98.328,173.4l.762.528Z" transform="translate(-63.375 -85.409)" fill="#455a64" stroke="#707070" stroke-width="0.125"/>
      <path id="Path_27141" data-name="Path 27141" d="M106.832,166.92c0,.12-2.4,7.6-2.4,7.6l1.2-1.2-1.709,5.236,1.128-1.571-1.325,6.561.642-.684-1.128,4.63.966-1.2-.954,3.46h7.641l-1.8-7.083,1.1,1.2-1.415-4.75.726.4-1.655-6.123.768.528Z" transform="translate(-67.19 -85.409)" fill="#455a64" stroke="#707070" stroke-width="0.125"/>
      <path id="Path_27142" data-name="Path 27142" d="M127.6,166.92c0,.12-2.4,7.6-2.4,7.6l1.2-1.2-1.715,5.236,1.116-1.577-1.325,6.561.642-.684L124,187.491l.966-1.2L124,189.758h7.653l-1.8-7.083,1.092,1.2-1.415-4.75.726.4-1.649-6.123.762.528Z" transform="translate(-75.499 -85.409)" fill="#455a64" stroke="#707070" stroke-width="0.125"/>
      <path id="Path_27143" data-name="Path 27143" d="M115.78,157c0,.15-3,9.6-3,9.6l1.493-1.523-2.153,6.6,1.415-1.973-1.661,8.294.816-.864-1.421,5.835,1.2-1.523-1.2,4.36H120.9l-2.279-8.924L120,178.4l-1.8-6,.918.5-2.081-7.707.96.66Z" transform="translate(-70.404 -81.438)" fill="#455a64" stroke="#707070" stroke-width="0.125"/>
      <path id="Path_27144" data-name="Path 27144" d="M159.437,172.85c0,.108-2.021,6.477-2.021,6.477l1.014-1.026-1.457,4.456.96-1.337L156.8,187l.552-.6-.96,3.94.822-1.026-.78,2.783,6.441.054-1.517-5.919.936,1.026-1.2-4.042.6.342-1.4-5.212.654.45Z" transform="translate(-88.464 -87.782)" fill="#455a64" stroke="#707070" stroke-width="0.125"/>
      <path id="Path_27145" data-name="Path 27145" d="M166.5,167.24c0,.12-2.4,7.611-2.4,7.611l1.2-1.2-1.709,5.23,1.128-1.565-1.319,6.573.642-.684-1.128,4.63.966-1.2-.912,3.251,7.575.114-1.8-7,1.092,1.2-1.415-4.756.726.408-1.655-6.123.768.522Z" transform="translate(-91.073 -85.537)" fill="#455a64" stroke="#707070" stroke-width="0.125"/>
      <path id="Path_27146" data-name="Path 27146" d="M49.9,172.85c0,.108-2.021,6.477-2.021,6.477l1.014-1.026-1.457,4.456.96-1.337L47.264,187l.546-.6-.96,3.94.822-1.026-.822,2.945h6.513l-1.547-6.009.936,1.026-1.2-4.042.6.342-1.409-5.212.654.45Z" transform="translate(-44.619 -87.782)" fill="#455a64" stroke="#707070" stroke-width="0.125"/>
      <path id="Path_27147" data-name="Path 27147" d="M56.956,167.24c0,.12-2.4,7.611-2.4,7.611l1.2-1.2-1.715,5.23,1.14-1.589-1.325,6.6.642-.684-1.128,4.63.966-1.2L53.37,190.1l7.575-.216L59.187,183l1.092,1.2-1.415-4.756.726.408-1.643-6.123.762.522Z" transform="translate(-47.229 -85.537)" fill="#455a64" stroke="#707070" stroke-width="0.125"/>
      <path id="Path_27148" data-name="Path 27148" d="M148.886,157c0,.15-3,9.6-3,9.6l1.493-1.523-2.153,6.6,1.421-1.973-1.673,8.294.816-.864-1.421,5.835,1.2-1.523-1.2,4.36h9.638l-2.285-8.924L153.1,178.4l-1.8-6,.918.5-2.075-7.719.966.66Z" transform="translate(-83.653 -81.438)" fill="#455a64" stroke="#707070" stroke-width="0.125"/>
      <path id="Path_27149" data-name="Path 27149" d="M59.679,113.634l.54.2-.528.2a.552.552,0,0,0-.33.336l-.174.5-.168-.492a.6.6,0,0,0-.336-.348l-.534-.192.522-.192a.6.6,0,0,0,.342-.342l.174-.5.156.486A.6.6,0,0,0,59.679,113.634Z" transform="translate(-49.142 -63.747)" fill="#e0e0e0" stroke="#707070" stroke-width="0.125"/>
      <path id="Path_27150" data-name="Path 27150" d="M164.393,121.534l.54.2-.522.2a.552.552,0,0,0-.33.336l-.18.5-.168-.492a.552.552,0,0,0-.336-.348l-.528-.192.522-.192a.6.6,0,0,0,.336-.342l.174-.5.162.486a.558.558,0,0,0,.33.348Z" transform="translate(-91.057 -66.909)" fill="#e0e0e0" stroke="#707070" stroke-width="0.125"/>
      <path id="Path_27151" data-name="Path 27151" d="M57.983,166.344l.54.2-.522.2a.552.552,0,0,0-.33.336l-.18.5-.168-.492a.552.552,0,0,0-.336-.348l-.528-.192.522-.192a.6.6,0,0,0,.336-.342l.174-.5.162.486A.6.6,0,0,0,57.983,166.344Z" transform="translate(-48.465 -84.845)" fill="#e0e0e0" stroke="#707070" stroke-width="0.125"/>
      <path id="Path_27152" data-name="Path 27152" d="M56.352,141.72l.27.1-.264.1a.282.282,0,0,0-.162.168l-.09.252-.084-.246a.3.3,0,0,0-.168-.174l-.264-.1.246-.1a.27.27,0,0,0,.168-.174l.09-.246.078.24A.282.282,0,0,0,56.352,141.72Z" transform="translate(-48.117 -75.154)" fill="#e0e0e0" stroke="#707070" stroke-width="0.125"/>
      <path id="Path_27153" data-name="Path 27153" d="M88.318,130.97l.27.1-.264.1a.288.288,0,0,0-.168.168l-.09.252-.078-.246a.276.276,0,0,0-.174-.174l-.264-.1.264-.1a.3.3,0,0,0,.168-.174l.084-.252.084.246a.27.27,0,0,0,.168.174Z" transform="translate(-60.91 -70.851)" fill="#e0e0e0" stroke="#707070" stroke-width="0.125"/>
      <path id="Path_27154" data-name="Path 27154" d="M93.638,112.354l.27.1-.264.1a.288.288,0,0,0-.168.168l-.09.246-.078-.246a.27.27,0,0,0-.174-.168l-.264-.1.264-.1a.288.288,0,0,0,.168-.168l.084-.252.084.24A.258.258,0,0,0,93.638,112.354Z" transform="translate(-63.039 -63.403)" fill="#e0e0e0" stroke="#707070" stroke-width="0.125"/>
      <path id="Path_27155" data-name="Path 27155" d="M164.2,156.594l.27.1-.264.1a.282.282,0,0,0-.162.168l-.09.252-.084-.246a.27.27,0,0,0-.168-.174l-.264-.1.264-.1a.3.3,0,0,0,.168-.174l.084-.246.078.24A.3.3,0,0,0,164.2,156.594Z" transform="translate(-91.286 -81.11)" fill="#e0e0e0" stroke="#707070" stroke-width="0.125"/>
      <path id="Path_27156" data-name="Path 27156" d="M123.685,313.6H43.23l.09-35.475,80.287-.042Z" transform="translate(-43.17 -129.902)" fill="#f5f5f5" stroke="#707070" stroke-width="0.125"/>
      <path id="Path_27157" data-name="Path 27157" d="M125.066,318.9c0,.06-1.949.192-4.36.294a43.351,43.351,0,0,1-4.366.084c0-.06,1.949-.192,4.36-.3a42.2,42.2,0,0,1,4.366-.078Z" transform="translate(-72.433 -146.233)" fill="#fff" stroke="#707070" stroke-width="0.125"/>
      <path id="Path_27158" data-name="Path 27158" d="M94.6,287.476a13.567,13.567,0,0,1,2.177-5.949c1.3-1.7,3.6-2.807,5.6-2.123l2.489,1.439a76.209,76.209,0,0,1-3.514,17.045,3.64,3.64,0,0,1-.774,1.505c-.81.822-2.123.744-3.263.6-1.379-.156-3-.474-3.6-1.733a4.036,4.036,0,0,1-.216-1.967,76.473,76.473,0,0,1,1.1-8.816Z" transform="translate(-63.273 -130.35)" fill="#263238" stroke="#707070" stroke-width="0.125"/>
      <path id="Path_27159" data-name="Path 27159" d="M110.044,285.052l-7.671-2.543c-2.483-.45-4.372,2.513-4.714,5.014a44.845,44.845,0,0,0-.552,8.288c.36,4.234,3.526,5,3.526,5a10.286,10.286,0,0,0-.246,3.191,3.591,3.591,0,0,0,3.6,3.736h0c2.4.252,4.912-.51,5.188-2.909l2.093-18.184A1.475,1.475,0,0,0,110.044,285.052Z" transform="translate(-64.716 -131.657)" fill="#ffbe9d" stroke="#707070" stroke-width="0.125"/>
      <path id="Path_27160" data-name="Path 27160" d="M100.527,296.579a.54.54,0,0,0,.474.6.522.522,0,0,0,.6-.444.54.54,0,0,0-.48-.6.516.516,0,0,0-.594.444Z" transform="translate(-66.103 -137.126)" fill="#263238" stroke="#707070" stroke-width="0.125"/>
      <path id="Path_27161" data-name="Path 27161" d="M99.436,294.2c.066.078.492-.192,1.068-.15s.984.366,1.05.3,0-.162-.2-.312a1.506,1.506,0,0,0-.834-.324,1.409,1.409,0,0,0-.858.21C99.478,294.047,99.406,294.173,99.436,294.2Z" transform="translate(-65.664 -136.159)" fill="#263238" stroke="#707070" stroke-width="0.125"/>
      <path id="Path_27162" data-name="Path 27162" d="M109.758,297.259a.54.54,0,0,0,.48.6.516.516,0,0,0,.6-.444.54.54,0,0,0-.48-.6.516.516,0,0,0-.6.444Z" transform="translate(-69.797 -137.398)" fill="#263238" stroke="#707070" stroke-width="0.125"/>
      <path id="Path_27163" data-name="Path 27163" d="M109.063,295.179c.06.072.492-.2,1.068-.156s.978.366,1.05.3,0-.162-.2-.306a1.469,1.469,0,0,0-.828-.33,1.439,1.439,0,0,0-.858.21C109.1,295.023,109.021,295.143,109.063,295.179Z" transform="translate(-69.516 -136.548)" fill="#263238" stroke="#707070" stroke-width="0.125"/>
      <path id="Path_27164" data-name="Path 27164" d="M103.964,298.532a3.9,3.9,0,0,0-.924-.234c-.15,0-.288-.066-.306-.168a.792.792,0,0,1,.132-.432l.522-1.092a19.9,19.9,0,0,0,1.2-2.867,18.81,18.81,0,0,0-1.421,2.765c-.18.384-.342.75-.5,1.1a.876.876,0,0,0-.12.6.4.4,0,0,0,.228.234,1.122,1.122,0,0,0,.252.054A3.527,3.527,0,0,0,103.964,298.532Z" transform="translate(-66.906 -136.17)" fill="#263238" stroke="#707070" stroke-width="0.125"/>
      <path id="Path_27165" data-name="Path 27165" d="M102.972,312.338a11.281,11.281,0,0,0,5.955-1.068,5.934,5.934,0,0,1-6,2.129Z" transform="translate(-67.066 -143.187)" fill="#eb996e" stroke="#707070" stroke-width="0.125"/>
      <path id="Path_27166" data-name="Path 27166" d="M108.6,292.3c.048.162.63.132,1.3.264s1.2.354,1.307.222-.042-.222-.252-.39a2.285,2.285,0,0,0-1.985-.366C108.719,292.111,108.581,292.231,108.6,292.3Z" transform="translate(-69.334 -135.452)" fill="#263238" stroke="#707070" stroke-width="0.125"/>
      <path id="Path_27167" data-name="Path 27167" d="M99.379,291.318c.114.144.6.042,1.2.078s1.092.168,1.2.042,0-.2-.228-.342a2.117,2.117,0,0,0-1.955-.1C99.4,291.12,99.325,291.252,99.379,291.318Z" transform="translate(-65.638 -134.996)" fill="#263238" stroke="#707070" stroke-width="0.125"/>
      <path id="Path_27168" data-name="Path 27168" d="M104.343,282.359a6.531,6.531,0,0,0,1.2,1.415l2.111,2.081a17.388,17.388,0,0,0,1.559,1.415,18,18,0,0,0,1.565,1.026c.558.336.846,1.2,1.4,1.541.126.072.534,0,.666.126,0,.936-.036,3.916-.048,5.11,0,1.871-.684,6.861-.684,6.861h1.6a4.044,4.044,0,0,0,2.831-2.867,30.145,30.145,0,0,0,.258-3.712,50.169,50.169,0,0,0-.438-7.335,10.046,10.046,0,0,0-.48-2.9,7.857,7.857,0,0,0-2.585-3.227,10.676,10.676,0,0,0-4.2-2.2,6,6,0,0,0-4.618.72.978.978,0,0,0-.468.552C103.761,281.549,104.037,281.819,104.343,282.359ZM112.865,290C112.925,290.113,112.865,290.407,112.865,290Z" transform="translate(-67.459 -130.474)" fill="#263238" stroke="#707070" stroke-width="0.125"/>
      <path id="Path_27169" data-name="Path 27169" d="M118.188,298.134a1.2,1.2,0,0,1,1.859-.918,1.7,1.7,0,0,1,.6,1.733,1.9,1.9,0,0,1-2.747,1.643C117.906,300.521,118.062,299.172,118.188,298.134Z" transform="translate(-73.058 -137.482)" fill="#ffbe9d" stroke="#707070" stroke-width="0.125"/>
      <path id="Path_27170" data-name="Path 27170" d="M119.347,300.238a1.04,1.04,0,0,0,.108.078.468.468,0,0,0,.33.048,1.11,1.11,0,0,0,.6-.918,1.505,1.505,0,0,0-.054-.642.5.5,0,0,0-.294-.372.222.222,0,0,0-.27.09c-.042.066,0,.12-.048.12s-.048-.048,0-.15a.252.252,0,0,1,.114-.144.324.324,0,0,1,.252-.036.6.6,0,0,1,.414.438,1.493,1.493,0,0,1,.072.72,1.139,1.139,0,0,1-.762,1.014.48.48,0,0,1-.4-.114C119.347,300.3,119.335,300.244,119.347,300.238Z" transform="translate(-73.635 -137.996)" fill="#eb996e" stroke="#707070" stroke-width="0.125"/>
      <path id="Path_27171" data-name="Path 27171" d="M119.98,303.1a.5.5,0,0,1-.99-.072.5.5,0,0,1,.534-.462.492.492,0,0,1,.456.534Z" transform="translate(-73.494 -139.704)" fill="#263238" stroke="#707070" stroke-width="0.125"/>
      <path id="Path_27172" data-name="Path 27172" d="M106.238,303.652a1.151,1.151,0,0,1-.7,1.757.708.708,0,0,1-.432,0,.984.984,0,0,1-.42-.63l-.2-.6a.3.3,0,0,1,0-.216.276.276,0,0,1,.2-.1l1.511-.258" transform="translate(-67.681 -140.121)" fill="#eb996e" stroke="#707070" stroke-width="0.125"/>
      <path id="Path_27173" data-name="Path 27173" d="M105.042,305.209a1.277,1.277,0,0,0,.684-.036,1.073,1.073,0,0,0,.6-.438.852.852,0,0,0,.12-.456,1.38,1.38,0,0,0-.084-.486,1.2,1.2,0,0,0-.252-.408l-.036-.036h-.054c-1.008.276-1.8.4-1.8.444a6.052,6.052,0,0,0,1.835-.276h-.09a1.062,1.062,0,0,1,.216.354.942.942,0,0,1,0,.786.972.972,0,0,1-.522.408C105.288,305.179,105.036,305.179,105.042,305.209Z" transform="translate(-67.582 -140.017)" fill="#263238" stroke="#707070" stroke-width="0.125"/>
      <path id="Path_27174" data-name="Path 27174" d="M110.211,284.913a14.694,14.694,0,0,1,3.952,4.2l-1.331,2.321c-2.309-.222-2.585-.456-4.2-2.111s-4.864-4.942-5.044-7.251A22.592,22.592,0,0,1,110.211,284.913Z" transform="translate(-67.33 -131.499)" fill="#263238" stroke="#707070" stroke-width="0.125"/>
      <path id="Path_27175" data-name="Path 27175" d="M114.94,302.9a1.308,1.308,0,0,1,.114-.24c.078-.156.192-.384.336-.684a17.394,17.394,0,0,0,.99-2.6,16.714,16.714,0,0,0,.666-4.054,11.455,11.455,0,0,0-.126-2.4,4.246,4.246,0,0,0-1.116-2.267,8.162,8.162,0,0,0-2.171-1.391,16.944,16.944,0,0,1-2.135-1.2,15.43,15.43,0,0,1-3.077-2.777,16.822,16.822,0,0,1-1.643-2.267c-.174-.282-.3-.5-.384-.66a1.738,1.738,0,0,1-.114-.234,1.067,1.067,0,0,1,.15.216c.09.15.228.366.408.636a19.578,19.578,0,0,0,1.685,2.213,15.81,15.81,0,0,0,3.077,2.723,16.2,16.2,0,0,0,2.117,1.2,8.049,8.049,0,0,1,2.231,1.427,4.42,4.42,0,0,1,1.163,2.4,10.681,10.681,0,0,1,.114,2.453,16.511,16.511,0,0,1-.708,4.09,15.869,15.869,0,0,1-1.056,2.591c-.156.294-.282.516-.372.666A1.285,1.285,0,0,1,114.94,302.9Z" transform="translate(-68.407 -131.523)" fill="#455a64" stroke="#707070" stroke-width="0.125"/>
      <path id="Path_27176" data-name="Path 27176" d="M94.786,300.041a.887.887,0,0,1,0-.216v-.6c0-.528.048-1.3.1-2.249.1-1.9.264-4.516.66-7.389a19.133,19.133,0,0,1,.87-4,7.431,7.431,0,0,1,1.757-2.843,5.17,5.17,0,0,1,1.9-1.2,3.307,3.307,0,0,1,.6-.15.8.8,0,0,1,.21,0,5.839,5.839,0,0,0-.78.246,5.4,5.4,0,0,0-1.8,1.235,7.443,7.443,0,0,0-1.685,2.807,19.9,19.9,0,0,0-.852,3.964c-.39,2.867-.6,5.482-.708,7.377-.072.924-.126,1.685-.162,2.243a5.97,5.97,0,0,1-.054.6.869.869,0,0,1-.054.174Z" transform="translate(-63.803 -131.226)" fill="#455a64" stroke="#707070" stroke-width="0.125"/>
      <path id="Path_27177" data-name="Path 27177" d="M82.54,328.688s1.2-5.728,2.957-7.539,9.062-4.084,9.062-4.084.306,2.585,2.057,3.215a4.7,4.7,0,0,0,5.314-1.2,8.468,8.468,0,0,0,1.7-3.49s8.732.846,10.16,3.245,3.634,9.866,3.634,9.866" transform="translate(-58.904 -144.916)" fill="#e54c38" stroke="#707070" stroke-width="0.125"/>
      <path id="Path_27178" data-name="Path 27178" d="M129.708,320c0,.036-.39.108-.984.336a7.083,7.083,0,0,0-3.676,3.191c-.306.564-.432.942-.468.93a.84.84,0,0,1,.066-.276,4.863,4.863,0,0,1,.282-.714,6.477,6.477,0,0,1,1.553-2,6.4,6.4,0,0,1,2.2-1.253,4.444,4.444,0,0,1,.75-.186.773.773,0,0,1,.282-.024Z" transform="translate(-75.731 -146.678)" fill="#263238" stroke="#707070" stroke-width="0.125"/>
      <path id="Path_27179" data-name="Path 27179" d="M76.64,326.8a23.318,23.318,0,0,0-.246-3.814l-2.105-4.726s-.54-.33-.8.6a2.438,2.438,0,0,0,.558,1.9l.066,1.2-.852-.69-1.637-3.011S70.5,316.02,70.2,316.373s-.2,1.074.288,2.039L71.6,320.6s.162.39-.414-.174a35.634,35.634,0,0,1-2.1-3.634c-.258-.342-.6-1.343-1.2-1.116s.162,1.427.162,1.427l1.8,4.042-1.235-1.8a16.893,16.893,0,0,0-.972-1.583c-.372-.444-.714-.6-.966-.516a.5.5,0,0,0-.312.6l1.949,3.407a18.662,18.662,0,0,1,.96,1.619c0,.114-.84-.5-.84-.5l-.81-1.032s-.876-1.541-1.331-1.457-.378.426-.378.426l1.625,2.807,2.357,3.035,2.525,2.5,5.254.084Z" transform="translate(-52.249 -144.938)" fill="#ffbe9d" stroke="#707070" stroke-width="0.125"/>
      <path id="Path_27180" data-name="Path 27180" d="M76.026,329.758a6.47,6.47,0,0,0,.15-.936,3,3,0,0,1,.966-1.931,1.607,1.607,0,0,1,.984-.372h.12v-.132c-.036-.6,0-1.122-.036-1.487a1.446,1.446,0,0,0-.078-.6,2.944,2.944,0,0,0-.06.6,15.218,15.218,0,0,0-.048,1.529l.114-.126a1.8,1.8,0,0,0-1.134.408,2.507,2.507,0,0,0-.762,1.062,3.952,3.952,0,0,0-.258,1.026,2.735,2.735,0,0,0,.042.96Z" transform="translate(-56.271 -148.402)" fill="#eb996e" stroke="#707070" stroke-width="0.125"/>
      <rect id="Rectangle_5168" data-name="Rectangle 5168" width="17.021" height="17.021" transform="translate(57.017 152.712)" fill="#ebebeb" stroke="#707070" stroke-width="0.125"/>
      <rect id="Rectangle_5169" data-name="Rectangle 5169" width="16.019" height="16.019" transform="translate(57.521 153.216)" fill="#fff" stroke="#707070" stroke-width="0.125"/>
      <rect id="Rectangle_5170" data-name="Rectangle 5170" width="4.6" height="4.6" transform="translate(63.23 158.925)" fill="#e0e0e0" stroke="#707070" stroke-width="0.125"/>
      <rect id="Rectangle_5171" data-name="Rectangle 5171" width="0.72" height="17.021" transform="translate(74.038 152.718)" fill="#e0e0e0" stroke="#707070" stroke-width="0.125"/>
      <rect id="Rectangle_5172" data-name="Rectangle 5172" width="11.407" height="11.887" transform="translate(8.99 154.043)" fill="#e0e0e0" stroke="#707070" stroke-width="0.125"/>
      <rect id="Rectangle_5173" data-name="Rectangle 5173" width="11.407" height="11.887" transform="translate(8.222 154.043)" fill="#fafafa" stroke="#707070" stroke-width="0.125"/>
      <path id="Path_27181" data-name="Path 27181" d="M68.255,299.749H56.86v-11.9h11.4Zm-11.4,0h11.4V287.856H56.86Z" transform="translate(-48.626 -133.813)" fill="#e0e0e0" stroke="#707070" stroke-width="0.125"/>
      <rect id="Rectangle_5174" data-name="Rectangle 5174" width="8.336" height="8.69" transform="translate(9.752 155.639)" fill="#fff" stroke="#707070" stroke-width="0.125"/>
      <path id="Path_27182" data-name="Path 27182" d="M58.373,305.11a1.14,1.14,0,0,1-.2.24c-.132.144-.324.33-.534.54l-.54.522a1.339,1.339,0,0,1-.246.2,1.515,1.515,0,0,1,.21-.24c.132-.138.318-.33.528-.534s.4-.4.546-.522a1.649,1.649,0,0,1,.24-.2Z" transform="translate(-48.622 -140.721)" fill="#e0e0e0" stroke="#707070" stroke-width="0.125"/>
      <path id="Path_27183" data-name="Path 27183" d="M73.3,305.08a1.648,1.648,0,0,1,.24.2c.138.132.33.318.534.528s.39.408.522.546a1.651,1.651,0,0,1,.2.24,2.347,2.347,0,0,1-.24-.2c-.138-.132-.33-.318-.54-.528s-.39-.408-.522-.546S73.287,305.086,73.3,305.08Z" transform="translate(-55.205 -140.709)" fill="#e0e0e0" stroke="#707070" stroke-width="0.125"/>
      <path id="Path_27184" data-name="Path 27184" d="M73.26,289.559a1.653,1.653,0,0,1,.2-.24l.534-.534c.2-.21.4-.4.54-.522a1.247,1.247,0,0,1,.246-.2,1.517,1.517,0,0,1-.21.24l-.528.54-.546.522a1.356,1.356,0,0,1-.24.2Z" transform="translate(-55.19 -133.897)" fill="#e0e0e0" stroke="#707070" stroke-width="0.125"/>
      <path id="Path_27185" data-name="Path 27185" d="M58.349,289.583a1.517,1.517,0,0,1-.24-.21c-.138-.132-.33-.318-.534-.528s-.39-.4-.522-.546a1.651,1.651,0,0,1-.2-.24,1.14,1.14,0,0,1,.24.2c.144.132.33.324.54.534s.39.4.522.546S58.361,289.577,58.349,289.583Z" transform="translate(-48.622 -133.897)" fill="#e0e0e0" stroke="#707070" stroke-width="0.125"/>
      <path id="Path_27186" data-name="Path 27186" d="M67.7,299.172v-8.66l.036.036H59.382l.036-.036v8.66H59.37V290.44h8.4v8.732Z" transform="translate(-49.63 -134.849)" fill="#e0e0e0" stroke="#707070" stroke-width="0.125"/>
      <rect id="Rectangle_5175" data-name="Rectangle 5175" width="2.783" height="2.783" transform="translate(12.529 158.595)" fill="#ebebeb" stroke="#707070" stroke-width="0.125"/>
      <path id="Path_27187" data-name="Path 27187" d="M114.21,31.076h.36a6,6,0,0,1,1.08.1,9.2,9.2,0,0,1,3.916,1.547,9.338,9.338,0,0,1,3.784,5.608,20.732,20.732,0,0,1,.234,4.39c.036,1.559,0,3.239,0,5.014,0,14.16.042,34.647.078,59.974s.042,55.464.066,88.941v29a9.314,9.314,0,0,1-.756,3.263,9.446,9.446,0,0,1-4.624,4.756,9.554,9.554,0,0,1-3.287.888c-.6.036-1.139.042-1.7.036H55.718c-1.2,0-2.4.03-3.6,0a9.446,9.446,0,0,1-8.324-6.231,10.04,10.04,0,0,1-.558-3.6V40.114l.03-.6a4.122,4.122,0,0,1,.084-.6,8.744,8.744,0,0,1,.258-1.2,9.392,9.392,0,0,1,6.351-6.327,8.714,8.714,0,0,1,1.11-.246l.558-.084.564-.03c.75-.042,1.481,0,2.219,0h9.6a3.251,3.251,0,0,1,1.044.1,2.609,2.609,0,0,1,1.6,1.283,4.75,4.75,0,0,1,.348.96c.09.324.186.642.276.96.186.6.372,1.259.552,1.883a2.771,2.771,0,0,0,1.062,1.469,2.867,2.867,0,0,0,1.751.486H96.422a2.783,2.783,0,0,0,2.171-1.116,3,3,0,0,0,.5-1.092c.114-.39.228-.768.336-1.146.234-.756.42-1.481.66-2.183a2.591,2.591,0,0,1,1.523-1.451,2.735,2.735,0,0,1,1-.15h.966a6.033,6.033,0,0,0-1.931.156,2.459,2.459,0,0,0-1.457,1.4c-.234.684-.426,1.427-.648,2.177-.114.378-.222.762-.336,1.146a3.089,3.089,0,0,1-.522,1.134,2.921,2.921,0,0,1-2.261,1.2l-25.789.042a3,3,0,0,1-1.853-.516,2.951,2.951,0,0,1-1.158-1.577c-.186-.6-.366-1.253-.552-1.889-.1-.318-.186-.636-.282-.954a4.553,4.553,0,0,0-.306-.864A2.459,2.459,0,0,0,65,31.285a3.215,3.215,0,0,0-1-.1h-9.6a14.861,14.861,0,0,0-4.4.384A9.194,9.194,0,0,0,43.8,37.787a8.3,8.3,0,0,0-.252,1.146c0,.2-.072.39-.084.6V79.145c0,14.885,0,30.791.036,47.529s0,34.317.03,52.531v45.6a9.776,9.776,0,0,0,.54,3.479,9.152,9.152,0,0,0,8.06,6.027c1.2.054,2.4,0,3.6,0h57.635c.564,0,1.122,0,1.673-.042a9.074,9.074,0,0,0,8.4-8.606c.048-1.086,0-2.2,0-3.287V42.722a19.067,19.067,0,0,0-.216-4.372,9.266,9.266,0,0,0-7.551-7.137,7.874,7.874,0,0,0-1.074-.114Z" transform="translate(-43.171 -31.009)" fill="#263238" stroke="#707070" stroke-width="0.125"/>
    </g>
    <g id="freepik--Icons--inject-5" transform="translate(232.884 66.302)">
      <rect id="Rectangle_5176" data-name="Rectangle 5176" width="8.228" height="22.115" transform="translate(2.497 78.675) rotate(-16.809)" fill="#e54c38"/>
      <g id="Group_12569" data-name="Group 12569" transform="translate(2.497 76.296)" opacity="0.3">
        <rect id="Rectangle_5177" data-name="Rectangle 5177" width="8.228" height="22.115" transform="translate(0 2.379) rotate(-16.809)"/>
      </g>
      <rect id="Rectangle_5178" data-name="Rectangle 5178" width="8.204" height="22.052" transform="translate(0 77.774) rotate(-17.12)" fill="#e54c38"/>
      <path id="Path_27188" data-name="Path 27188" d="M372.386,231.143a1.853,1.853,0,1,1-2.315-1.2A1.853,1.853,0,0,1,372.386,231.143Z" transform="translate(-365.318 -149.956)" fill="#fff"/>
      <path id="Path_27189" data-name="Path 27189" d="M380.455,226.46a7,7,0,0,1-.456,1.883,6.909,6.909,0,0,1-.72,1.8,6.968,6.968,0,0,1,.456-1.889,6.807,6.807,0,0,1,.72-1.793Z" transform="translate(-369.525 -148.596)" fill="#e54c38"/>
      <path id="Path_27190" data-name="Path 27190" d="M381.639,230.34a13.637,13.637,0,0,1-1.2,3.694,13.639,13.639,0,0,1,1.2-3.694Z" transform="translate(-369.989 -150.149)" fill="#e54c38"/>
      <path id="Path_27191" data-name="Path 27191" d="M382.839,234.23a14.081,14.081,0,0,1-1.2,3.688,7,7,0,0,1,.456-1.883A6.908,6.908,0,0,1,382.839,234.23Z" transform="translate(-370.47 -151.706)" fill="#e54c38"/>
      <path id="Path_27192" data-name="Path 27192" d="M384.049,238.12a6.9,6.9,0,0,1-.456,1.883,7.029,7.029,0,0,1-.714,1.8,6.951,6.951,0,0,1,.456-1.883,7.027,7.027,0,0,1,.714-1.8Z" transform="translate(-370.966 -153.263)" fill="#e54c38"/>
      <path id="Path_27193" data-name="Path 27193" d="M385.215,242a7,7,0,0,1-.456,1.883,6.909,6.909,0,0,1-.72,1.8,14.082,14.082,0,0,1,1.2-3.688Z" transform="translate(-371.43 -154.812)" fill="#e54c38"/>
      <path id="Path_27194" data-name="Path 27194" d="M386.43,245.89a13.639,13.639,0,0,1-1.2,3.694A13.638,13.638,0,0,1,386.43,245.89Z" transform="translate(-371.907 -156.373)" fill="#e54c38"/>
      <path id="Path_27195" data-name="Path 27195" d="M387.645,249.78a6.971,6.971,0,0,1-.456,1.889,6.808,6.808,0,0,1-.72,1.8,7,7,0,0,1,.456-1.883A6.908,6.908,0,0,1,387.645,249.78Z" transform="translate(-372.403 -157.93)" fill="#e54c38"/>
      <path id="Path_27196" data-name="Path 27196" d="M379.349,223a13.686,13.686,0,0,1-1.2,3.688,13.513,13.513,0,0,1,1.2-3.688Z" transform="translate(-369.073 -147.211)" fill="#e54c38"/>
      <path id="Path_27197" data-name="Path 27197" d="M377.775,221.589a2.5,2.5,0,0,1-.216,1.134c-.192.6-.408,1.074-.48,1.05a2.567,2.567,0,0,1,.222-1.133C377.493,222.039,377.7,221.565,377.775,221.589Z" transform="translate(-368.644 -146.646)" fill="#e54c38"/>
      <path id="Path_27198" data-name="Path 27198" d="M392.674,225.184,387.36,206.43s3.9-2.081,5.853-8.858c1.3-4.48-.822-8.156-.858-9.938,0-1.092,2.4-1.619,3.473-1.8a4.258,4.258,0,0,1,3.964,1.2c2.147,2.489,2.5,9.908,2.5,9.908s-.342,1.637,1.619,1.032l6.993-2.153a3.988,3.988,0,0,1,2.765.12,2.963,2.963,0,0,1,1.8,2.159c.6,2.723-.426,4.348-.252,4.906s1.247,1.3,1.2,3.089-.456,1.751-.222,2.519a13.194,13.194,0,0,1,.6,4.114,6.051,6.051,0,0,1-.51,2.075,8.766,8.766,0,0,1,.738,4.144c-.45,2.189-4.684,4.852-6.861,4.564-1.014-.132-5.482.156-7.593.27S394.281,223.679,392.674,225.184Z" transform="translate(-372.759 -132.296)" fill="#e54c38"/>
      <g id="Group_12570" data-name="Group 12570" transform="translate(14.601 53.442)" opacity="0.3">
        <path id="Path_27199" data-name="Path 27199" d="M392.674,225.184,387.36,206.43s3.9-2.081,5.853-8.858c1.3-4.48-.822-8.156-.858-9.938,0-1.092,2.4-1.619,3.473-1.8a4.258,4.258,0,0,1,3.964,1.2c2.147,2.489,2.5,9.908,2.5,9.908s-.342,1.637,1.619,1.032l6.993-2.153a3.988,3.988,0,0,1,2.765.12,2.963,2.963,0,0,1,1.8,2.159c.6,2.723-.426,4.348-.252,4.906s1.247,1.3,1.2,3.089-.456,1.751-.222,2.519a13.194,13.194,0,0,1,.6,4.114,6.051,6.051,0,0,1-.51,2.075,8.766,8.766,0,0,1,.738,4.144c-.45,2.189-4.684,4.852-6.861,4.564-1.014-.132-5.482.156-7.593.27S394.281,223.679,392.674,225.184Z" transform="translate(-387.36 -185.738)"/>
      </g>
      <path id="Path_27200" data-name="Path 27200" d="M388.275,226.694l-5.805-18.832s3.9-2.087,5.859-8.858a32.847,32.847,0,0,0,1.433-9.6,2.243,2.243,0,0,1,1.8-2.261,3.406,3.406,0,0,1,3.466,1.2c2.147,2.483,2.369,10.052,2.369,10.052s-.336,1.637,1.625,1.038l6.993-2.159a4.006,4.006,0,0,1,2.759.126,2.957,2.957,0,0,1,1.8,2.153c.6,2.729-.426,4.348-.252,4.912s1.241,1.3,1.2,3.083-.456,1.751-.222,2.525a12.984,12.984,0,0,1,.6,4.114,5.944,5.944,0,0,1-.51,2.075,10.125,10.125,0,0,1,.744,4.138c-.246,1.685-2.951,3.365-3.934,3.664s-8.4,1.062-10.525,1.2S389.889,225.2,388.275,226.694Z" transform="translate(-370.802 -132.822)" fill="#e54c38"/>
      <path id="Path_27201" data-name="Path 27201" d="M409.821,197.78a9.165,9.165,0,0,1-1.008,2.351,9.463,9.463,0,0,1-1.373,2.153,16.693,16.693,0,0,1,1.133-2.279,17.4,17.4,0,0,1,1.247-2.225Z" transform="translate(-380.796 -137.116)" fill="#e54c38"/>
      <path id="Path_27202" data-name="Path 27202" d="M409.181,193.39a6.537,6.537,0,0,1-1,2.105,10.92,10.92,0,0,1-1.355,1.889,8.9,8.9,0,0,1,1.121-2.033,21.977,21.977,0,0,1,1.23-1.961Z" transform="translate(-380.552 -135.359)" fill="#e54c38"/>
      <path id="Path_27203" data-name="Path 27203" d="M407.9,189.7a3.8,3.8,0,0,1-.834,1.709,10.451,10.451,0,0,1-1.2,1.475,4.8,4.8,0,0,1,.96-1.637C407.459,190.425,407.825,189.663,407.9,189.7Z" transform="translate(-380.168 -133.881)" fill="#e54c38"/>
      <path id="Path_27204" data-name="Path 27204" d="M406.027,186.94a3.64,3.64,0,0,1-.6,1.241c-.408.648-.792,1.139-.858,1.1a7.31,7.31,0,0,1,1.481-2.339Z" transform="translate(-379.648 -132.777)" fill="#e54c38"/>
      <path id="Path_27205" data-name="Path 27205" d="M403.38,185.8c.06.054-.126.372-.414.72s-.564.6-.6.546.126-.366.414-.72S403.344,185.748,403.38,185.8Z" transform="translate(-378.764 -132.317)" fill="#e54c38"/>
      <path id="Path_27206" data-name="Path 27206" d="M411.165,203.6a3.964,3.964,0,0,1-.666,1.313,4.2,4.2,0,0,1-.9,1.163,4.085,4.085,0,0,1,.666-1.313A3.934,3.934,0,0,1,411.165,203.6Z" transform="translate(-381.661 -139.446)" fill="#e54c38"/>
      <path id="Path_27207" data-name="Path 27207" d="M432.3,208.7a26.689,26.689,0,0,1-3.383,4.252,14.43,14.43,0,0,1,1.583-2.207,13.664,13.664,0,0,1,1.8-2.045Z" transform="translate(-389.394 -141.487)" fill="#e54c38"/>
      <path id="Path_27208" data-name="Path 27208" d="M431.4,203.43a5.189,5.189,0,0,1-.9,1.355,4.936,4.936,0,0,1-1.116,1.2,4.84,4.84,0,0,1,.9-1.355A5.087,5.087,0,0,1,431.4,203.43Z" transform="translate(-389.578 -139.378)" fill="#e54c38"/>
      <path id="Path_27209" data-name="Path 27209" d="M433.459,216.87a10.235,10.235,0,0,1-1.2,1.6A10.674,10.674,0,0,1,430.97,220a5.8,5.8,0,0,1,1.073-1.7A5.866,5.866,0,0,1,433.459,216.87Z" transform="translate(-390.215 -144.757)" fill="#e54c38"/>
      <path id="Path_27210" data-name="Path 27210" d="M433.729,223.45a14.9,14.9,0,0,1-2.339,3.215,7.37,7.37,0,0,1,1.056-1.691,7.005,7.005,0,0,1,1.283-1.523Z" transform="translate(-390.383 -147.391)" fill="#e54c38"/>
      <path id="Path_27211" data-name="Path 27211" d="M434.273,231a7.382,7.382,0,0,1-1.2,1.985,7.551,7.551,0,0,1-1.583,1.7,14.638,14.638,0,0,1,1.367-1.871A16.033,16.033,0,0,1,434.273,231Z" transform="translate(-390.423 -150.413)" fill="#e54c38"/>
      <path id="Path_27212" data-name="Path 27212" d="M434.313,237.51a15.821,15.821,0,0,1-3.263,4.294,22.138,22.138,0,0,1,1.6-2.171A20.692,20.692,0,0,1,434.313,237.51Z" transform="translate(-390.247 -153.018)" fill="#e54c38"/>
      <rect id="Rectangle_5179" data-name="Rectangle 5179" width="15.701" height="5.841" transform="translate(41.404 23.483) rotate(-63.09)" fill="#263238"/>
      <rect id="Rectangle_5180" data-name="Rectangle 5180" width="15.701" height="5.841" transform="translate(42.81 24.193) rotate(-63.09)" fill="#455a64"/>
      <path id="Path_27213" data-name="Path 27213" d="M439.79,132.2a1.319,1.319,0,1,1-.082,1.027,1.319,1.319,0,0,1,.082-1.027Z" transform="translate(-393.685 -110.581)" fill="#fff"/>
      <path id="Path_27214" data-name="Path 27214" d="M433.87,131.427a4.967,4.967,0,0,1,1.169-.738,4.654,4.654,0,0,1,1.259-.57,4.965,4.965,0,0,1-1.169.738,5.085,5.085,0,0,1-1.259.57Z" transform="translate(-391.375 -110.034)" fill="#455a64"/>
      <path id="Path_27215" data-name="Path 27215" d="M435.18,128.847a5.1,5.1,0,0,1,1.169-.744,4.744,4.744,0,0,1,1.259-.564,4.967,4.967,0,0,1-1.2.738A5.086,5.086,0,0,1,435.18,128.847Z" transform="translate(-391.9 -109.002)" fill="#455a64"/>
      <path id="Path_27216" data-name="Path 27216" d="M436.49,126.237a11.745,11.745,0,0,1,2.429-1.337,13.216,13.216,0,0,1-2.429,1.337Z" transform="translate(-392.424 -107.945)" fill="#455a64"/>
      <path id="Path_27217" data-name="Path 27217" d="M437.8,123.677a4.967,4.967,0,0,1,1.169-.738,5.086,5.086,0,0,1,1.259-.57,5.1,5.1,0,0,1-1.2.744A4.924,4.924,0,0,1,437.8,123.677Z" transform="translate(-392.948 -106.932)" fill="#455a64"/>
      <path id="Path_27218" data-name="Path 27218" d="M439.11,121.127a4.966,4.966,0,0,1,1.169-.738,4.827,4.827,0,0,1,1.259-.57,10.034,10.034,0,0,1-2.429,1.307Z" transform="translate(-393.473 -105.912)" fill="#455a64"/>
      <path id="Path_27219" data-name="Path 27219" d="M440.42,118.517a5.1,5.1,0,0,1,1.17-.744,4.924,4.924,0,0,1,1.259-.564,4.965,4.965,0,0,1-1.2.738A4.887,4.887,0,0,1,440.42,118.517Z" transform="translate(-393.997 -104.867)" fill="#455a64"/>
      <path id="Path_27220" data-name="Path 27220" d="M441.73,115.927a5.206,5.206,0,0,1,1.169-.738,5.4,5.4,0,0,1,1.259-.57,4.912,4.912,0,0,1-1.164.744A4.8,4.8,0,0,1,441.73,115.927Z" transform="translate(-394.521 -103.83)" fill="#455a64"/>
      <path id="Path_27221" data-name="Path 27221" d="M432.74,133.717a9.847,9.847,0,0,1,2.4-1.307,4.845,4.845,0,0,1-1.164.738A5.085,5.085,0,0,1,432.74,133.717Z" transform="translate(-390.923 -110.951)" fill="#455a64"/>
      <path id="Path_27222" data-name="Path 27222" d="M433,135.747a2.118,2.118,0,0,1,.678-.474c.4-.216.738-.348.762-.3s-.276.258-.672.474A1.854,1.854,0,0,1,433,135.747Z" transform="translate(-391.027 -111.973)" fill="#455a64"/>
      <path id="Path_27223" data-name="Path 27223" d="M421.631,105.884l-6.561,12.229s-3-.864-7.383,1.637c-2.879,1.649-3.6,4.582-4.48,5.512-.528.564-2.027-.366-2.675-.792A3,3,0,0,1,399.1,121.9c.132-2.333,3.6-6.309,3.6-6.309s.984-.672-.318-1.331l-4.642-2.357a2.831,2.831,0,0,1-1.355-1.427,2.123,2.123,0,0,1,.156-1.991c1.038-1.691,2.369-2.015,2.555-2.4s0-1.277.924-2.159,1.1-.672,1.361-1.2a9.242,9.242,0,0,1,1.739-2.4,4.289,4.289,0,0,1,1.289-.81,6.277,6.277,0,0,1,1.673-2.489c1.313-.894,4.8-.162,5.769,1.062.456.57,2.885,2.633,4.018,3.6S420.071,105.848,421.631,105.884Z" transform="translate(-376.299 -96.629)" fill="#263238"/>
      <path id="Path_27224" data-name="Path 27224" d="M424.664,107.281l-6.351,12.511s-3.029-.864-7.383,1.631a23.347,23.347,0,0,0-5.494,4.2,1.6,1.6,0,0,1-2.039.264,2.4,2.4,0,0,1-1.2-2.315c.132-2.339,3.766-6.321,3.766-6.321s.984-.672-.318-1.331l-4.672-2.339a2.831,2.831,0,0,1-1.349-1.433,2.105,2.105,0,0,1,.15-2.009c1.038-1.7,2.369-2.015,2.561-2.4s0-1.283.924-2.165,1.1-.666,1.355-1.2a9.489,9.489,0,0,1,1.745-2.4,4.2,4.2,0,0,1,1.283-.8,7.293,7.293,0,0,1,1.727-2.429c.96-.738,3.173-.258,3.826.072s4.828,3.6,5.967,4.606S423.1,107.245,424.664,107.281Z" transform="translate(-377.594 -97.319)" fill="#455a64"/>
      <path id="Path_27225" data-name="Path 27225" d="M404.24,131.248a6.784,6.784,0,0,1,1.673-.7,6.874,6.874,0,0,1,1.8-.426,11.394,11.394,0,0,1-1.709.6A11.539,11.539,0,0,1,404.24,131.248Z" transform="translate(-379.516 -110.034)" fill="#455a64"/>
      <path id="Path_27226" data-name="Path 27226" d="M402.4,134.024a4.654,4.654,0,0,1,1.553-.6,7.747,7.747,0,0,1,1.631-.294,6.771,6.771,0,0,1-1.583.486A15.228,15.228,0,0,1,402.4,134.024Z" transform="translate(-378.779 -111.239)" fill="#455a64"/>
      <path id="Path_27227" data-name="Path 27227" d="M401.34,136.82a2.8,2.8,0,0,1,1.271-.462,7.8,7.8,0,0,1,1.337-.168,3.461,3.461,0,0,1-1.3.36A12.331,12.331,0,0,1,401.34,136.82Z" transform="translate(-378.355 -112.464)" fill="#455a64"/>
      <path id="Path_27228" data-name="Path 27228" d="M401.13,139.459a2.62,2.62,0,0,1,.936-.324,2.447,2.447,0,0,1,.978-.138,2.5,2.5,0,0,1-.936.324A2.447,2.447,0,0,1,401.13,139.459Z" transform="translate(-378.271 -113.585)" fill="#455a64"/>
      <path id="Path_27229" data-name="Path 27229" d="M402.07,141.692c0-.054.252-.126.57-.162a1.264,1.264,0,0,1,.6.03,1.212,1.212,0,0,1-.57.162C402.346,141.758,402.076,141.746,402.07,141.692Z" transform="translate(-378.647 -114.595)" fill="#455a64"/>
      <path id="Path_27230" data-name="Path 27230" d="M406.71,128.34a2.891,2.891,0,0,1,.99-.342,2.771,2.771,0,0,1,1.038-.15,3.047,3.047,0,0,1-.99.342A2.927,2.927,0,0,1,406.71,128.34Z" transform="translate(-380.504 -109.124)" fill="#455a64"/>
      <path id="Path_27231" data-name="Path 27231" d="M397.79,114.662a9.6,9.6,0,0,1,1.907-.348,9.267,9.267,0,0,1,1.931-.156,9.6,9.6,0,0,1-1.907.348,9.74,9.74,0,0,1-1.931.156Z" transform="translate(-376.934 -103.644)" fill="#455a64"/>
      <path id="Path_27232" data-name="Path 27232" d="M396.12,118.392a6.741,6.741,0,0,1,2.285-.306,3.461,3.461,0,0,1-1.128.246,3.6,3.6,0,0,1-1.157.06Z" transform="translate(-376.266 -105.216)" fill="#455a64"/>
      <path id="Path_27233" data-name="Path 27233" d="M401.55,110.3a7.108,7.108,0,0,1,1.409-.222,7.862,7.862,0,0,1,1.415-.144,4.048,4.048,0,0,1-1.391.342,4.2,4.2,0,0,1-1.433.024Z" transform="translate(-378.439 -101.953)" fill="#455a64"/>
      <path id="Path_27234" data-name="Path 27234" d="M404.72,106.766a10.057,10.057,0,0,1,2.789-.486,5.547,5.547,0,0,1-1.379.336A5.062,5.062,0,0,1,404.72,106.766Z" transform="translate(-379.708 -100.492)" fill="#455a64"/>
      <path id="Path_27235" data-name="Path 27235" d="M408,102.457a8.061,8.061,0,0,1,3.251-.5q-1.615.312-3.251.5Z" transform="translate(-381.021 -98.756)" fill="#455a64"/>
      <path id="Path_27236" data-name="Path 27236" d="M411.06,98.9a6.8,6.8,0,0,1,1.877-.456,6.477,6.477,0,0,1,1.919-.126,16.416,16.416,0,0,1-1.9.318,15.467,15.467,0,0,1-1.9.264Z" transform="translate(-382.245 -97.295)" fill="#455a64"/>
    </g>
    <g id="freepik--speech-bubble--inject-5" transform="translate(199.351 20.862)">
      <circle id="Ellipse_804" data-name="Ellipse 804" cx="24.223" cy="24.223" r="24.223" transform="translate(2.734 1.031) rotate(-1.22)" fill="#fff" stroke="#707070" stroke-width="0.125"/>
      <path id="Path_27237" data-name="Path 27237" d="M310.315,94.52a2.231,2.231,0,0,1,.708.168,3.2,3.2,0,0,1,1.559,1.139,3.1,3.1,0,0,1,.54,1.2,2.615,2.615,0,0,1-.15,1.5,2.9,2.9,0,0,1-5.446.084,2.669,2.669,0,0,1-.2-1.493,3.113,3.113,0,0,1,.5-1.2,3.221,3.221,0,0,1,1.523-1.2c.438-.156.7-.162.7-.186a.78.78,0,0,0-.192,0,.924.924,0,0,0-.234,0,1.835,1.835,0,0,0-.306.072,3.173,3.173,0,0,0-1.619,1.2,3.226,3.226,0,0,0-.564,1.3,2.849,2.849,0,0,0,.192,1.607,3.317,3.317,0,0,0,1.128,1.391,2.915,2.915,0,0,0,3.628-.054,3.3,3.3,0,0,0,1.074-1.427A2.8,2.8,0,0,0,313.308,97a3.239,3.239,0,0,0-2.255-2.4,1.956,1.956,0,0,0-.312-.066,1.229,1.229,0,0,0-.234,0Z" transform="translate(-307.102 -50.344)" fill="#263238" stroke="#707070" stroke-width="0.125"/>
      <path id="Path_27238" data-name="Path 27238" d="M312.445,49.532a3.951,3.951,0,0,0-.03-.4c-.03-.264-.06-.654-.108-1.157,0-.252-.054-.534-.084-.846s0-.66,0-1.032V44.9a5.06,5.06,0,0,1,.036-.666q.036-.33.072-.7a23.39,23.39,0,0,1,1.679-6.8,24.355,24.355,0,0,1,5.062-7.8L319.99,28c.33-.294.678-.57,1.026-.864l.522-.438a4.116,4.116,0,0,1,.546-.42l1.151-.792.6-.4.6-.348c.426-.228.846-.462,1.277-.7s.9-.39,1.355-.6l.7-.294.348-.15.36-.108a21.889,21.889,0,0,1,3-.822c.516-.1,1.026-.228,1.553-.306l1.6-.162c.27,0,.54-.066.81-.072h2.477a25.741,25.741,0,0,1,3.347.45l.846.168c.138.03.282.054.42.09l.414.126,1.667.51c.546.192,1.086.438,1.631.66.27.12.552.216.816.354l.786.42a28.369,28.369,0,0,1,3.083,1.9l1.427,1.157.36.288.33.324.666.654.666.654.6.714.6.72.3.36c.1.126.18.258.27.39l1.08,1.565.924,1.679a25.754,25.754,0,0,1,2.4,7.383,26.112,26.112,0,0,1-.066,7.8l-.378,1.877-.558,1.8-.138.45-.18.438-.36.87-.366.864-.438.822-.408.846-.216.408-.258.384c-.336.516-.678,1.026-1.014,1.535a28.02,28.02,0,0,1-2.363,2.735l-.63.636c-.2.216-.444.39-.666.6-.456.372-.894.768-1.361,1.122l-1.433.99-.36.24c-.12.078-.252.144-.372.216l-.756.414a26.679,26.679,0,0,1-3.059,1.433c-.516.192-1.056.336-1.571.51l-.786.246c-.258.078-.528.114-.792.174l-1.577.33c-.528.084-1.056.114-1.577.18a23.279,23.279,0,0,1-3.089.114h-.762l-.744-.078c-.5-.054-1-.078-1.475-.162l-1.427-.282-.7-.138-.684-.2-1.337-.408a4.632,4.632,0,0,1-.648-.24l-.63-.258c-.42-.18-.834-.336-1.235-.522l-1.158-.6a24.374,24.374,0,0,1-7.167-5.883c-.216-.264-.438-.516-.648-.774l-.552-.8-.54-.834c-.084-.132-.18-.252-.258-.378l-.216-.39-.816-1.481c-.252-.474-.426-.954-.63-1.4l-.276-.642a4.106,4.106,0,0,1-.24-.6c-.126-.408-.252-.792-.366-1.146s-.222-.684-.306-.984-.12-.6-.174-.84c-.108-.492-.192-.87-.246-1.134l-.09-.384a1.774,1.774,0,0,0,.066.39c.066.258.126.642.222,1.14.054.252.108.534.168.84s.192.636.3.99.228.744.354,1.151a4.144,4.144,0,0,0,.234.6l.276.654c.2.444.372.93.6,1.409l.816,1.487.216.39c.072.132.168.252.252.384.174.252.348.516.534.78l.552.81c.2.258.432.516.648.78a24.253,24.253,0,0,0,7.2,5.943l1.164.6c.4.186.822.348,1.241.528l.636.264a4.931,4.931,0,0,0,.648.24l1.349.414.684.2.714.144,1.433.288c.486.084.99.108,1.487.168l.756.078h.762a22.663,22.663,0,0,0,3.113-.108c.528-.06,1.062-.09,1.589-.18l1.589-.33c.264-.054.54-.1.8-.174l.786-.246c.528-.174,1.068-.318,1.589-.516a25.647,25.647,0,0,0,3.089-1.439l.756-.414c.126-.072.258-.138.384-.216l.36-.246,1.445-1c.474-.354.912-.75,1.373-1.134a7.825,7.825,0,0,0,.678-.6l.63-.642a27.889,27.889,0,0,0,2.4-2.759c.336-.51.678-1.026,1.026-1.541l.252-.39.222-.414.444-.828.444-.828.366-.876.36-.876.186-.438.144-.456.558-1.835c.126-.63.252-1.265.384-1.9A26.389,26.389,0,0,0,360.79,42a26.166,26.166,0,0,0-2.435-7.449l-.93-1.691c-.366-.534-.726-1.062-1.092-1.583-.09-.132-.174-.264-.27-.39l-.306-.366-.6-.726-.6-.726-.672-.66-.672-.654c-.108-.108-.222-.222-.336-.324l-.36-.294-1.469-1.092a27.993,27.993,0,0,0-3.107-1.913l-.8-.42c-.264-.144-.546-.24-.822-.36-.552-.222-1.091-.468-1.643-.666L343,22.184l-.414-.126-.426-.09-.852-.174a27.264,27.264,0,0,0-3.377-.444h-2.471c-.276,0-.546.048-.816.072l-1.619.168c-.528.072-1.05.21-1.565.306a23.079,23.079,0,0,0-3,.834l-.366.114c-.12.042-.234.1-.354.15l-.7.3c-.456.2-.924.378-1.361.6l-1.283.714-.636.348c-.2.132-.4.27-.6.4l-1.157.8a5.346,5.346,0,0,0-.552.42l-.522.444c-.348.3-.7.6-1.026.876l-.924.948a24.223,24.223,0,0,0-5.062,7.8,23.115,23.115,0,0,0-1.649,6.855c0,.24-.048.48-.066.708a4.2,4.2,0,0,0-.036.66V47.1a8.093,8.093,0,0,0,.09.852c.06.5.1.888.132,1.157S312.445,49.532,312.445,49.532Z" transform="translate(-309.13 -21.057)" fill="#263238" stroke="#707070" stroke-width="0.125"/>
      <path id="Path_27239" data-name="Path 27239" d="M348.554,66.333s5.428-5,6.423-6.159c2.6-3.065,2-6.651-1.271-7.545a5.524,5.524,0,0,0-5.428,1.637l-.09.084-.1-.084a5.518,5.518,0,0,0-5.4-1.637c-3.281.894-3.88,4.48-1.271,7.545,1,1.163,6.531,6.159,6.531,6.159l.342.258Z" transform="translate(-320.188 -33.51)" fill="#e54c38" stroke="#707070" stroke-width="0.125"/>
    </g>
    <g id="freepik--Character--inject-5" transform="translate(81.368 74.111)">
      <path id="Path_27240" data-name="Path 27240" d="M160.6,377.371l22.43-6.663,71.489-1.307,12.385,9.65-27.816,22.64-47.4-.936Z" transform="translate(-130.48 -213.618)" fill="#263238"/>
      <path id="Path_27241" data-name="Path 27241" d="M223.56,407.6l29.867,8.036-9.794,37.184c-3.5-1.157-5.566-22.28-5.566-22.28l-19.348-4.354Z" transform="translate(-153.743 -228.908)" fill="#455a64"/>
      <g id="Group_12571" data-name="Group 12571" transform="translate(85.543 188.976)" opacity="0.6">
        <path id="Path_27242" data-name="Path 27242" d="M253.209,425.5a1.565,1.565,0,0,1,2.009-.6,1.505,1.505,0,0,1,.6,1.985,1.649,1.649,0,0,1-2.129.6,1.56,1.56,0,0,1-.4-2.135" transform="translate(-253.012 -424.747)" fill="#fff"/>
      </g>
      <path id="Path_27243" data-name="Path 27243" d="M269.065,420.46l-3-.81L257.79,455.7s.288,1.847,1.5,1.967Z" transform="translate(-169.382 -233.731)" fill="#263238"/>
      <path id="Path_27244" data-name="Path 27244" d="M250.35,444.857c.18.042.5-.846,1.325-1.583s1.709-1.014,1.679-1.2-1.152-.192-2.123.72S250.17,444.851,250.35,444.857Z" transform="translate(-166.374 -242.667)" fill="#263238"/>
      <path id="Path_27245" data-name="Path 27245" d="M251.353,452.736c.162.084.678-.6,1.613-1.032s1.8-.384,1.829-.564-.96-.57-2.105,0S251.179,452.682,251.353,452.736Z" transform="translate(-166.789 -246.216)" fill="#263238"/>
      <path id="Path_27246" data-name="Path 27246" d="M255.857,459.411c.084-.156-.756-.648-1.877-.444s-1.733.954-1.6,1.068.8-.27,1.721-.42S255.791,459.567,255.857,459.411Z" transform="translate(-167.208 -249.449)" fill="#263238"/>
      <path id="Path_27247" data-name="Path 27247" d="M243.033,441.764c.186-.03.156-.93.5-1.937s.87-1.727.744-1.859-.984.462-1.367,1.655S242.9,441.818,243.033,441.764Z" transform="translate(-163.357 -241.056)" fill="#263238"/>
      <path id="Path_27248" data-name="Path 27248" d="M235.047,436.742a3.709,3.709,0,0,0,.48-1.865,8.63,8.63,0,0,0-.084-2.111,8.894,8.894,0,0,0-.288-1.2,2.4,2.4,0,0,0-.288-.678.822.822,0,0,0-.948-.336,1.032,1.032,0,0,0-.6.684,2.549,2.549,0,0,0-.09.726,7.2,7.2,0,0,0,.1,1.265,6.687,6.687,0,0,0,.678,2.009,4.1,4.1,0,0,0,1.2,1.5c0-.048-.378-.642-.8-1.691a7.647,7.647,0,0,1-.5-1.907,8.078,8.078,0,0,1-.048-1.158c0-.42.09-.756.288-.81.078,0,.108,0,.2.1a1.7,1.7,0,0,1,.21.5,9.594,9.594,0,0,1,.306,1.128,10.609,10.609,0,0,1,.216,1.985A12.722,12.722,0,0,0,235.047,436.742Z" transform="translate(-159.551 -238.078)" fill="#263238"/>
      <path id="Path_27249" data-name="Path 27249" d="M232.585,439.784c.042-.06-.51-.6-1.673-.966a6.152,6.152,0,0,0-2.105-.282,6.231,6.231,0,0,0-1.253.174,1.6,1.6,0,0,0-1.259.942.911.911,0,0,0,.318.918,2.854,2.854,0,0,0,.636.372,4.41,4.41,0,0,0,1.253.33,4.481,4.481,0,0,0,2.135-.288c1.152-.474,1.571-1.2,1.511-1.2a6.563,6.563,0,0,1-1.667.774,4.431,4.431,0,0,1-1.9.126,3.951,3.951,0,0,1-1.068-.318c-.384-.162-.66-.4-.6-.528a1.335,1.335,0,0,1,.78-.492,6,6,0,0,1,1.134-.2,7.149,7.149,0,0,1,1.955.126C231.9,439.5,232.531,439.874,232.585,439.784Z" transform="translate(-156.766 -241.288)" fill="#263238"/>
      <g id="Group_12572" data-name="Group 12572" transform="translate(64.977 178.692)" opacity="0.3">
        <path id="Path_27250" data-name="Path 27250" d="M223.56,407.6l29.867,8.036-9.794,37.184c-3.5-1.157-5.566-22.28-5.566-22.28l-19.348-4.354Z" transform="translate(-218.72 -407.6)"/>
      </g>
      <path id="Path_27251" data-name="Path 27251" d="M272.847,400.81,247.61,418.682l22.076,31.51c2.879-2.3-2.495-22.832-2.495-22.832l16.637-10.8Z" transform="translate(-165.307 -226.19)" fill="#455a64"/>
      <g id="Group_12573" data-name="Group 12573" transform="translate(93.974 190.138)" opacity="0.6">
        <path id="Path_27252" data-name="Path 27252" d="M269.517,427.018a1.577,1.577,0,0,0-2.093.138,1.517,1.517,0,0,0,.12,2.075,1.661,1.661,0,0,0,2.213-.156,1.568,1.568,0,0,0-.36-2.147" transform="translate(-267.07 -426.685)" fill="#fff"/>
      </g>
      <path id="Path_27253" data-name="Path 27253" d="M247.61,429.409l2.549-1.8,20.253,30.947s.372,1.835-.726,2.369Z" transform="translate(-165.307 -236.917)" fill="#263238"/>
      <path id="Path_27254" data-name="Path 27254" d="M278.59,444.48c-.156.1-.768-.6-1.8-1.032s-1.955-.36-1.991-.546,1.014-.6,2.243-.054S278.752,444.414,278.59,444.48Z" transform="translate(-176.19 -242.908)" fill="#263238"/>
      <path id="Path_27255" data-name="Path 27255" d="M280.172,452.135c-.126.144-.852-.342-1.871-.408s-1.8.264-1.907.108.7-.864,1.961-.762S280.316,452.033,280.172,452.135Z" transform="translate(-176.824 -246.304)" fill="#263238"/>
      <path id="Path_27256" data-name="Path 27256" d="M278.288,459.862c-.132-.114.486-.87,1.607-1.062s1.955.288,1.877.444-.846,0-1.763.2S278.408,460.006,278.288,459.862Z" transform="translate(-177.579 -249.383)" fill="#263238"/>
      <path id="Path_27257" data-name="Path 27257" d="M285.343,438.874c-.186.03-.468-.822-1.14-1.649s-1.415-1.313-1.337-1.487,1.08.1,1.853,1.08S285.511,438.832,285.343,438.874Z" transform="translate(-179.416 -240.15)" fill="#263238"/>
      <path id="Path_27258" data-name="Path 27258" d="M291.064,431.183c-.06.048-.6-.5-1.1-1.583a8.995,8.995,0,0,1-.648-2.009,8.88,8.88,0,0,1-.156-1.241,2.476,2.476,0,0,1,.042-.738.816.816,0,0,1,.768-.642,1.02,1.02,0,0,1,.822.426,2.49,2.49,0,0,1,.336.648,6.56,6.56,0,0,1,.348,1.2,6.794,6.794,0,0,1,.066,2.123,3.257,3.257,0,0,1-.63,1.829c-.066-.03.132-.726.168-1.865a7.371,7.371,0,0,0-.546-3.065c-.15-.4-.342-.678-.552-.66-.078,0-.1,0-.156.156a2.162,2.162,0,0,0,0,.54,10.193,10.193,0,0,0,.108,1.169,10.724,10.724,0,0,0,.486,1.937A15.146,15.146,0,0,1,291.064,431.183Z" transform="translate(-181.935 -235.86)" fill="#263238"/>
      <path id="Path_27259" data-name="Path 27259" d="M291.736,433.39c-.06-.036.276-.726,1.235-1.481a6.191,6.191,0,0,1,1.877-1,6.066,6.066,0,0,1,1.241-.27,1.577,1.577,0,0,1,1.5.45.906.906,0,0,1,0,.966,2.9,2.9,0,0,1-.468.6,4.307,4.307,0,0,1-1.062.744,4.408,4.408,0,0,1-2.1.468,2.524,2.524,0,0,1-1.841-.6,7.6,7.6,0,0,0,1.829.144,4.473,4.473,0,0,0,1.8-.54,3.94,3.94,0,0,0,.894-.666c.3-.288.486-.6.36-.7a1.08,1.08,0,0,0-.9-.192,6.658,6.658,0,0,0-1.134.21,6.983,6.983,0,0,0-1.8.8C292.281,432.892,291.819,433.456,291.736,433.39Z" transform="translate(-182.966 -238.114)" fill="#263238"/>
      <path id="Path_27260" data-name="Path 27260" d="M129.943,360.066s-11.443-.894-15.9,4.768-3.85,17.1-3.251,20.229,10.753,10.963,10.753,10.963,14.088,6.261,22.79,8.186,33.022,3.6,33.022,3.6l7.233-19.192S135.94,359.844,129.943,360.066Z" transform="translate(-110.378 -209.861)" fill="#263238"/>
      <path id="Path_27261" data-name="Path 27261" d="M317.526,354.232s11.833-11.059,13.614-10.8a23.15,23.15,0,0,1,8.942,2.591c3.874,2.129,8.906,11.995,8.516,17.123s-16.139,16.493-21.753,19.006-31.954,15.185-31.954,15.185L280.6,380.3l28-23.672Z" transform="translate(-178.512 -203.224)" fill="#263238"/>
      <path id="Path_27262" data-name="Path 27262" d="M223.332,399.025a6.4,6.4,0,0,1-.6-.8c-.36-.528-.9-1.277-1.565-2.2a36.716,36.716,0,0,0-6.063-6.465,67.36,67.36,0,0,0-7.347-5.014l-2.309-1.409a5.9,5.9,0,0,1-.828-.558,6.056,6.056,0,0,1,.888.45c.558.306,1.361.768,2.351,1.337a58.292,58.292,0,0,1,7.431,4.966,33.453,33.453,0,0,1,6.039,6.6c.654.942,1.163,1.709,1.493,2.261a5.84,5.84,0,0,1,.51.834Z" transform="translate(-148.1 -218.893)" fill="#455a64"/>
      <path id="Path_27263" data-name="Path 27263" d="M246.788,404.008a1.913,1.913,0,0,1-.252-.51c-.144-.336-.33-.828-.546-1.439a30.145,30.145,0,0,1-1.235-4.936,29.528,29.528,0,0,1-.348-5.074c0-.654.042-1.2.072-1.541a2.1,2.1,0,0,1,.078-.558,18.586,18.586,0,0,1,.072,2.1,36.165,36.165,0,0,0,1.571,9.926,20.572,20.572,0,0,1,.588,2.033Z" transform="translate(-164.023 -221.843)" fill="#455a64"/>
      <path id="Path_27264" data-name="Path 27264" d="M278.572,382.61a2.335,2.335,0,0,1-.24.168l-.72.42c-.312.168-.684.408-1.116.678l-.7.438-.756.522a48.992,48.992,0,0,0-7.581,6.567,53.164,53.164,0,0,0-3.6,4.2c-.5.69-.99,1.331-1.4,1.967l-.6.906-.528.864c-.342.546-.6,1.056-.864,1.505a10.425,10.425,0,0,0-.6,1.158l-.378.744a1.1,1.1,0,0,1-.15.246.7.7,0,0,1,.09-.276c.09-.18.2-.462.324-.768a10.506,10.506,0,0,1,.6-1.2c.27-.468.5-.978.834-1.535.162-.276.336-.6.51-.876l.6-.924c.4-.648.888-1.3,1.385-2a50.021,50.021,0,0,1,3.6-4.258,44.28,44.28,0,0,1,7.635-6.513l.768-.51.714-.42c.438-.258.822-.48,1.152-.636l.744-.372a1.019,1.019,0,0,1,.27-.1Z" transform="translate(-170.006 -218.905)" fill="#455a64"/>
      <path id="Path_27265" data-name="Path 27265" d="M308.424,372.359c.054.072-6,4.438-13.542,9.752s-13.674,9.566-13.722,9.494,6-4.438,13.542-9.752S308.376,372.294,308.424,372.359Z" transform="translate(-178.736 -214.802)" fill="#455a64"/>
      <path id="Path_27266" data-name="Path 27266" d="M155.82,371.25a2.6,2.6,0,0,1,.5.174l1.4.558c1.2.492,2.969,1.2,5.122,2.135,4.312,1.829,10.244,4.432,16.733,7.425s12.313,5.841,16.475,7.989c2.087,1.074,3.76,1.967,4.906,2.6l1.313.738a4.2,4.2,0,0,1,.45.276,2.944,2.944,0,0,1-.48-.222l-1.331-.684c-1.164-.6-2.849-1.469-4.942-2.513-4.2-2.1-10.022-4.9-16.511-7.9s-12.4-5.632-16.691-7.509l-5.08-2.225-1.379-.6A4.963,4.963,0,0,1,155.82,371.25Z" transform="translate(-128.567 -214.358)" fill="#455a64"/>
      <path id="Path_27267" data-name="Path 27267" d="M166.71,237.42s-3.526.7-4.942,2.471-19.581,26.664-19.581,26.664-4.768,5.116-4.588,7.941,3.682,6.861,3.682,6.861l-.7,3s-9.7,7.233-9.356,13.584,4.8,12.355,8.648,13.938,20.469,10.945,23.468,12.175,19.234-1.229,19.234-1.229l-3.508-20.283-7.059-.354-6.705-1.937-4.618-8.822,6.735-12.876.354-24.175Z" transform="translate(-118.718 -160.791)" fill="#455a64"/>
      <path id="Path_27268" data-name="Path 27268" d="M182.75,249.769l4.99,27.4,1.715,16.709s.708,17.47,2.117,20.823,21.878,9.878,28.41,10.411,36.35-12.708,38.641-14.993,5.116-10.058,5.116-10.058L259.5,252.42l.882-19.408-10.058-3.532-62.973,4.768Z" transform="translate(-139.346 -157.613)" fill="#455a64"/>
      <path id="Path_27269" data-name="Path 27269" d="M298.615,235.36a36.32,36.32,0,0,1,8.726,9.308c4.132,6.2,14.628,27.36,17.728,33.207s8.432,12.565,7.053,20.649c0,0-15.659,13.6-20.649,16.523s-16.7,6.321-20.649,4.474l-11.359.528a13.878,13.878,0,0,0,4.474-10.333c0-6.711-5.68-12.223-5.68-12.223l7.917.69s6-4.132,9.638-2.579l5.4-1.541,1.8-5.686-3.2-9.866-7.353-22.976Z" transform="translate(-177.575 -159.967)" fill="#455a64"/>
      <path id="Path_27270" data-name="Path 27270" d="M296.176,361.445a10.2,10.2,0,0,1,.648-.894,20.138,20.138,0,0,0,1.583-2.543,25.525,25.525,0,0,0,1.667-4.108,14.927,14.927,0,0,0,.654-5.344,10.135,10.135,0,0,0-1.739-5.032,7.635,7.635,0,0,0-3.365-2.735,7.023,7.023,0,0,0-2.9-.552,10.448,10.448,0,0,0-1.1.1,1.02,1.02,0,0,1,.276-.09,4.335,4.335,0,0,1,.816-.126,6.705,6.705,0,0,1,3,.468,7.736,7.736,0,0,1,3.514,2.771,10.339,10.339,0,0,1,1.8,5.176,14.76,14.76,0,0,1-.69,5.452,23.816,23.816,0,0,1-1.751,4.126,16.147,16.147,0,0,1-1.679,2.513,5.7,5.7,0,0,1-.54.6,1.038,1.038,0,0,1-.2.222Z" transform="translate(-182.927 -201.89)" fill="#263238"/>
      <path id="Path_27271" data-name="Path 27271" d="M325.572,342.876c-.048,0-.336-.684-.924-1.751a20.133,20.133,0,0,0-6.333-6.993c-1.008-.69-1.679-1.044-1.655-1.092a1.884,1.884,0,0,1,.5.2,11.923,11.923,0,0,1,1.277.708,17.6,17.6,0,0,1,6.411,7.077,13.055,13.055,0,0,1,.6,1.337A2.032,2.032,0,0,1,325.572,342.876Z" transform="translate(-192.945 -199.064)" fill="#263238"/>
      <path id="Path_27272" data-name="Path 27272" d="M329.913,316.5a10.4,10.4,0,0,1-1.553.648c-.966.378-2.3.906-3.742,1.541s-2.735,1.265-3.634,1.709a11.607,11.607,0,0,1-1.523.714,7.479,7.479,0,0,1,1.421-.906,38.253,38.253,0,0,1,3.64-1.8c1.457-.63,2.8-1.139,3.79-1.463a8.2,8.2,0,0,1,1.6-.444Z" transform="translate(-194.066 -192.444)" fill="#263238"/>
      <path id="Path_27273" data-name="Path 27273" d="M331.183,282.72a3.493,3.493,0,0,1-.7.3c-.462.168-1.121.42-1.931.744a41.158,41.158,0,0,0-11.659,6.921c-.672.552-1.2,1.014-1.577,1.331a3.84,3.84,0,0,1-.6.474,3.937,3.937,0,0,1,.516-.564c.348-.348.864-.834,1.517-1.409a35.942,35.942,0,0,1,11.725-6.951c.822-.294,1.5-.516,1.967-.648A4.01,4.01,0,0,1,331.183,282.72Z" transform="translate(-192.169 -178.923)" fill="#263238"/>
      <path id="Path_27274" data-name="Path 27274" d="M299.313,358.879a49.372,49.372,0,0,1-5.524.3,50.154,50.154,0,0,1-5.53,0,49.049,49.049,0,0,1,5.518-.3,50.339,50.339,0,0,1,5.536,0Z" transform="translate(-181.578 -209.376)" fill="#263238"/>
      <path id="Path_27275" data-name="Path 27275" d="M299.1,355.221a49.915,49.915,0,0,1-5.668.432,53.409,53.409,0,0,1-5.692.12,50.112,50.112,0,0,1,5.674-.432A53.3,53.3,0,0,1,299.1,355.221Z" transform="translate(-181.369 -207.931)" fill="#263238"/>
      <path id="Path_27276" data-name="Path 27276" d="M297.841,350.286a54.24,54.24,0,0,1-5.727.336,50.913,50.913,0,0,1-5.733,0,54.387,54.387,0,0,1,5.727-.336A50.884,50.884,0,0,1,297.841,350.286Z" transform="translate(-180.825 -205.935)" fill="#263238"/>
      <path id="Path_27277" data-name="Path 27277" d="M256.8,299.768a1.2,1.2,0,0,1-.324.078l-.954.168c-.828.144-2.033.312-3.526.492a103.126,103.126,0,0,1-23.45.078c-1.493-.168-2.7-.33-3.526-.468l-.954-.162a1.444,1.444,0,0,1-.33-.078,1.3,1.3,0,0,1,.336,0l.966.108c.834.1,2.039.228,3.532.366,3,.288,7.125.552,11.7.54s8.714-.312,11.7-.6c1.493-.15,2.7-.288,3.532-.39l.96-.108a1.2,1.2,0,0,1,.336-.024Z" transform="translate(-155.753 -185.745)" fill="#263238"/>
      <path id="Path_27278" data-name="Path 27278" d="M172.422,302.17c-.036.078-5.931-2.489-13.164-5.734s-13.074-5.937-13.038-6,5.931,2.489,13.194,5.733S172.476,302.068,172.422,302.17Z" transform="translate(-124.724 -182.012)" fill="#263238"/>
      <path id="Path_27279" data-name="Path 27279" d="M167.4,316.463a6.821,6.821,0,0,1-.6-.834c-.18-.276-.4-.6-.666-.99s-.564-.822-.924-1.283a40.458,40.458,0,0,0-2.615-3.167,39.848,39.848,0,0,0-7.647-6.489c-1.3-.834-2.507-1.535-3.55-2.063-.516-.282-1-.5-1.415-.7s-.786-.366-1.086-.492A5.888,5.888,0,0,1,148,300a7.122,7.122,0,0,1,.972.33c.306.108.684.258,1.109.45s.918.39,1.439.66a37.542,37.542,0,0,1,3.6,2.021,40.308,40.308,0,0,1,4.072,3,41.026,41.026,0,0,1,3.634,3.532,35.979,35.979,0,0,1,2.579,3.227c.354.474.63.93.888,1.319a8.952,8.952,0,0,1,.6,1.02,6.365,6.365,0,0,1,.51.906Z" transform="translate(-125.437 -185.839)" fill="#263238"/>
      <path id="Path_27280" data-name="Path 27280" d="M183.092,337.77a2.4,2.4,0,0,1-.39,0l-1.11-.1-4.114-.4h0l-7.5-2.273h-.054v-.054a21.818,21.818,0,0,0-6.027-6.255,24.116,24.116,0,0,0-7.713-3.874,18.975,18.975,0,0,0-6.975-.5,19.468,19.468,0,0,0-4.612,1.08c-.528.2-.936.36-1.2.486a3.265,3.265,0,0,1-.426.162,2.363,2.363,0,0,1,.4-.222c.264-.144.666-.318,1.2-.54a18.681,18.681,0,0,1,4.636-1.2,18.874,18.874,0,0,1,7.071.444,23.989,23.989,0,0,1,7.761,3.88,21.825,21.825,0,0,1,6.1,6.357l-.084-.066,7.473,2.315h0l4.1.492,1.1.15A1.71,1.71,0,0,1,183.092,337.77Z" transform="translate(-123.424 -195.422)" fill="#263238"/>
      <path id="Path_27281" data-name="Path 27281" d="M163.327,340.056a4.9,4.9,0,0,1-.834.048c-.27,0-.6,0-.978.036s-.816.03-1.289.09a28.72,28.72,0,0,0-3.329.492,30.984,30.984,0,0,0-3.958,1.116,28.786,28.786,0,0,0-6.609,3.407c-.408.264-.744.534-1.056.756s-.564.426-.774.6a4.318,4.318,0,0,1-.672.5,4.071,4.071,0,0,1,.6-.6c.2-.186.444-.408.744-.642s.636-.522,1.032-.8a27.469,27.469,0,0,1,2.867-1.8,27.042,27.042,0,0,1,7.8-2.807,24.862,24.862,0,0,1,3.365-.432c.48-.042.918-.036,1.3-.042s.714,0,.984,0A4.065,4.065,0,0,1,163.327,340.056Z" transform="translate(-123.768 -201.84)" fill="#263238"/>
      <path id="Path_27282" data-name="Path 27282" d="M189.591,367.75a1.02,1.02,0,0,1-.324,0,6.459,6.459,0,0,1-.912-.2,8.462,8.462,0,0,1-3-1.631,10.01,10.01,0,0,1-2.939-4.132,12.948,12.948,0,0,1-.666-6.165,15.359,15.359,0,0,1,1.931-5.907,9.1,9.1,0,0,1,3.6-3.532,7.1,7.1,0,0,1,3.323-.8,6.276,6.276,0,0,1,.93.1,1.048,1.048,0,0,1,.312.09,7.61,7.61,0,0,0-1.241-.072,7.245,7.245,0,0,0-3.215.882,9,9,0,0,0-3.484,3.484,15.372,15.372,0,0,0-1.871,5.793,13.02,13.02,0,0,0,.6,6.033,10.04,10.04,0,0,0,2.807,4.06,8.9,8.9,0,0,0,2.9,1.685C189.153,367.666,189.6,367.72,189.591,367.75Z" transform="translate(-138.9 -204.003)" fill="#263238"/>
      <path id="Path_27283" data-name="Path 27283" d="M227.909,345.64l1.253-8.174a3.071,3.071,0,0,1,3.161-2.6l19.336.786s1.092.93.954,1.523c-.12.5-5.02,19.1-6.489,24.667a2.033,2.033,0,0,1-2.027,1.511l-16.457-.534A2.033,2.033,0,0,1,225.7,360.5C226.368,355.829,227.909,345.64,227.909,345.64Z" transform="translate(-156.527 -199.795)" fill="#e54c38"/>
      <path id="Path_27284" data-name="Path 27284" d="M246.051,349.124s8.57.264,9.428,0,7.935-2.339,7.935-2.339-10.148,1.691-10.759,1.319-1.727-1.086-.732-2.111c1.307-1.343,4.624-2.585,5.332-3.077l.972-4.252a31.023,31.023,0,0,1,4.2,0c.78.186,4.2,4.462,5.272,7.845s2.729,8.33,2.729,8.33l-3,4.8-2.177.438s-11.557,1.9-12.535,1.583-8.156-1.835-8.156-1.835l-4.828-3.137.486-2.567-.486-3.958Z" transform="translate(-162.153 -201.282)" fill="#ffbe9d"/>
      <path id="Path_27285" data-name="Path 27285" d="M203.617,348.478s3.2-2.813,4.006-3.514a14.684,14.684,0,0,1,3.526-1.523l8.066,1.985-.558,3.646s11.125-1.493,12.517-.6.756,1.8,0,2.591-10.8,3.424-10.8,3.424l5.23-.7,8.684,2.009-7.467,3.191,6.135,1.427a47.533,47.533,0,0,1-5.218,1.949,43.946,43.946,0,0,1-5.116.408s-3.6,2.249-4.5,2.249-11.767-2.555-12.99-2.759a2.6,2.6,0,0,0-2.045.51,36.064,36.064,0,0,1-.516-6.975A37.133,37.133,0,0,1,203.617,348.478Z" transform="translate(-147.277 -203.227)" fill="#ffbe9d"/>
      <path id="Path_27286" data-name="Path 27286" d="M239.159,369.4a15.551,15.551,0,0,1-3.449.756,15.143,15.143,0,0,1-3.52.24,30.417,30.417,0,0,1,3.472-.552A27.885,27.885,0,0,1,239.159,369.4Z" transform="translate(-159.135 -213.618)" fill="#eb996e"/>
      <path id="Path_27287" data-name="Path 27287" d="M224.83,351.507a9.546,9.546,0,0,1-1.9.348,16.193,16.193,0,0,1-4.666,0c-1.8-.426-3.323-.978-4.48-1.2s-1.883-.312-1.883-.36a1.555,1.555,0,0,1,.522,0,10.108,10.108,0,0,1,1.4.168c1.2.192,2.759.72,4.5,1.128a18.634,18.634,0,0,0,4.588.072A14.587,14.587,0,0,1,224.83,351.507Z" transform="translate(-151.014 -205.962)" fill="#eb996e"/>
      <path id="Path_27288" data-name="Path 27288" d="M240.688,356.157a2.262,2.262,0,0,1-.5.312,13.088,13.088,0,0,1-1.463.648,42.267,42.267,0,0,1-5.044,1.541c-2,.486-3.832.84-5.17,1.032a7.3,7.3,0,0,1-2.183.138,3.447,3.447,0,0,1,.6-.09c.372-.054.906-.144,1.565-.27,1.319-.24,3.137-.63,5.134-1.116s3.772-1.008,5.038-1.439S240.664,356.109,240.688,356.157Z" transform="translate(-156.789 -208.315)" fill="#eb996e"/>
      <path id="Path_27289" data-name="Path 27289" d="M242.537,372a9,9,0,0,1-1.355.6c-.864.348-2.093.822-3.533,1.367h0a20.18,20.18,0,0,1-2.651.4c-2.189.2-4.168.276-5.59.414-.714.072-1.283.138-1.679.21a2.957,2.957,0,0,1-.6.09,2.169,2.169,0,0,1,.6-.21,13.644,13.644,0,0,1,1.679-.306c1.427-.2,3.413-.312,5.584-.51a21.15,21.15,0,0,0,2.609-.372h0c1.445-.528,2.687-.966,3.568-1.265A9.7,9.7,0,0,1,242.537,372Z" transform="translate(-157.11 -214.658)" fill="#eb996e"/>
      <path id="Path_27290" data-name="Path 27290" d="M268.45,362.577a1.871,1.871,0,0,1-.5.264,12.334,12.334,0,0,1-1.433.564,19.86,19.86,0,0,1-4.984.99,20.26,20.26,0,0,1-5.068-.312,14.658,14.658,0,0,1-1.5-.372,1.8,1.8,0,0,1-.528-.2c0-.048.786.156,2.063.348a22.628,22.628,0,0,0,9.95-.666C267.688,362.829,268.432,362.529,268.45,362.577Z" transform="translate(-168.041 -210.884)" fill="#eb996e"/>
      <path id="Path_27291" data-name="Path 27291" d="M262.583,369.718a3.369,3.369,0,0,1-.72.234l-2,.522-3,.732a15.19,15.19,0,0,1-3.748.558c-5.32-.7-9.44-2.147-9.344-2.363,0,0,.246.1.708.246s1.145.33,1.991.54,1.859.432,3,.66a35.9,35.9,0,0,0,3.676.6,16.017,16.017,0,0,0,3.664-.528l3-.666,2.021-.426a4.2,4.2,0,0,1,.756-.108Z" transform="translate(-163.769 -213.618)" fill="#eb996e"/>
      <path id="Path_27292" data-name="Path 27292" d="M274.432,342.7a23.637,23.637,0,0,1-2.735.948,27.05,27.05,0,0,1-2.747.918,9.289,9.289,0,0,1,2.645-1.2A9.52,9.52,0,0,1,274.432,342.7Z" transform="translate(-173.849 -202.931)" fill="#eb996e"/>
      <path id="Path_27293" data-name="Path 27293" d="M243.3,367.295a99.118,99.118,0,0,1,6.945-3.035A18.11,18.11,0,0,1,246.868,366a18.353,18.353,0,0,1-3.568,1.3Z" transform="translate(-163.582 -211.56)" fill="#eb996e"/>
      <path id="Path_27294" data-name="Path 27294" d="M249.27,362.684a4.917,4.917,0,0,1-1.325-.078,27.444,27.444,0,0,1-6.339-1.517,5.049,5.049,0,0,1-1.235-.564c.036-.084,1.967.6,4.432,1.2S249.276,362.606,249.27,362.684Z" transform="translate(-162.409 -210.063)" fill="#eb996e"/>
      <path id="Path_27295" data-name="Path 27295" d="M191.069,312.071c-.084,0-1.283-10.693-2.669-23.9s-2.447-23.936-2.363-23.942,1.283,10.657,2.675,23.852S191.153,312.035,191.069,312.071Z" transform="translate(-140.66 -171.522)" fill="#263238"/>
      <path id="Path_27296" data-name="Path 27296" d="M305.31,266.24a2.032,2.032,0,0,1,.144.39l.354,1.139c.318.984.69,2.4,1.139,4.2.87,3.6,1.883,8.6,2.735,14.166s1.481,10.639,1.865,14.31c.192,1.835.336,3.323.414,4.354.036.486.066.882.084,1.2a2.7,2.7,0,0,1,0,.414,1.99,1.99,0,0,1-.072-.408c-.036-.306-.084-.7-.144-1.2-.126-1.062-.3-2.537-.51-4.342-.444-3.664-1.092-8.72-1.955-14.286s-1.8-10.567-2.639-14.166c-.432-1.8-.768-3.245-1.05-4.24-.12-.474-.216-.858-.294-1.152A2.4,2.4,0,0,1,305.31,266.24Z" transform="translate(-188.402 -172.327)" fill="#263238"/>
      <path id="Path_27297" data-name="Path 27297" d="M299.6,300.84a1.674,1.674,0,0,1,.108.258l.264.75.96,2.831c.81,2.459,1.937,5.877,3.245,9.86v.1l-.906,2.681c-.15.468-.3.942-.456,1.415-.072.24-.144.48-.222.726l-.1.36-.048.18v.132h0s.036-.066-.138-.114l-.03.306c-.366-.06-.756-.132-1.158-.18a15.8,15.8,0,0,0-8.138.78A18.513,18.513,0,0,0,289.9,322.8a9.05,9.05,0,0,1-2.891,1.385,12.259,12.259,0,0,1-4.606.06c-.534-.078-.954-.156-1.235-.21a3.535,3.535,0,0,1-.426-.1,1.979,1.979,0,0,1,.438.036l1.241.15a12.673,12.673,0,0,0,4.534-.156,8.907,8.907,0,0,0,2.795-1.379,19.058,19.058,0,0,1,3.119-1.937,16.153,16.153,0,0,1,8.294-.828c.4.054.8.12,1.169.186l1.14.2-1.169.108a.174.174,0,0,1-.144-.09.266.266,0,0,1,0-.066.166.166,0,0,1,0-.048v-.168l.042-.2.108-.372c.072-.246.144-.486.222-.726.156-.48.306-.954.462-1.421.312-.924.6-1.8.918-2.681v.09c-1.271-3.994-2.357-7.425-3.143-9.9-.366-1.2-.666-2.159-.876-2.855-.09-.312-.168-.564-.222-.768a.893.893,0,0,1-.072-.288Z" transform="translate(-178.568 -186.176)" fill="#263238"/>
      <rect id="Rectangle_5181" data-name="Rectangle 5181" width="40.416" height="6.681" transform="translate(64.749 119.69)" fill="#fff"/>
      <path id="Path_27298" data-name="Path 27298" d="M206.372,212.116s-12.882,2.291-14.646,5.116-.876,7.587-.876,7.587l1.409,1.062,16.943,9.878s9.878,11.293,15.173,10.591,13.764-10.939,16.055-13.41,13.056-11.827,13.056-11.827,4.942-1.763,3.706-6.171-16.763-6.351-16.763-6.351Z" transform="translate(-142.499 -149.252)" fill="#455a64"/>
      <path id="Path_27299" data-name="Path 27299" d="M278.571,155.584a9.213,9.213,0,0,0-2.741-12.594c-2.2-1.325-4.978-1.715-6.741-3.568s-2.009-4.762-2.321-7.371a20.582,20.582,0,0,0-2.4-8.174,9.605,9.605,0,0,0-6.723-4.846c-2.117-.276-4.342.36-6.357-.342-2.3-.8-3.664-3.071-5.356-4.8a14.28,14.28,0,0,0-12.3-4.078,10.134,10.134,0,0,0-7.5,4.93c-1.421,2.759-.786,6.6,1.835,8.282l-8.414,17.23a19.719,19.719,0,0,0,11.137,27.624c2.4.828,5.086,1.247,6.987,2.945,1.457,1.289,2.249,3.155,3.389,4.732s2.951,3,4.858,2.621c1.463-.282,2.627-1.547,4.114-1.649s2.747.984,4.084,1.637a7.8,7.8,0,0,0,9.5-2.453c1.038-1.481,1.637-3.436,3.257-4.246s3.6-.1,5.4-.2a6.234,6.234,0,0,0,5.332-7.737c-.426-1.337-1.331-2.579-1.235-3.982C276.46,158.013,277.731,156.849,278.571,155.584Z" transform="translate(-153.213 -109.649)" fill="#e54c38"/>
      <path id="Path_27300" data-name="Path 27300" d="M258.749,147.249c-.672-7.383-5.829-16.313-13.194-15.329l-22.844,6.471a4.342,4.342,0,0,0-3.754,4.51l2.321,54.618,13.83,13.044h0l13.41-13.944c-.132-5.6-.252-10.765-.252-10.747s9.4-1.835,11.011-14.22C260.1,165.523,259.5,155.454,258.749,147.249Z" transform="translate(-153.836 -118.534)" fill="#ffbe9d"/>
      <path id="Path_27301" data-name="Path 27301" d="M276.368,176.014a1.583,1.583,0,0,1-1.481,1.637,1.511,1.511,0,0,1-1.667-1.379,1.577,1.577,0,0,1,1.475-1.637,1.517,1.517,0,0,1,1.673,1.379Z" transform="translate(-175.557 -135.657)" fill="#263238"/>
      <path id="Path_27302" data-name="Path 27302" d="M277.749,165.292c-.186.216-1.409-.636-3.113-.6s-2.921.942-3.113.738c-.1-.09.1-.468.6-.876a4.276,4.276,0,0,1,2.483-.846,4.2,4.2,0,0,1,2.489.726C277.659,164.83,277.845,165.2,277.749,165.292Z" transform="translate(-174.869 -131.287)" fill="#263238"/>
      <path id="Path_27303" data-name="Path 27303" d="M249.388,176.014a1.583,1.583,0,0,1-1.481,1.637,1.511,1.511,0,0,1-1.667-1.379,1.583,1.583,0,0,1,1.475-1.637,1.517,1.517,0,0,1,1.673,1.379Z" transform="translate(-164.758 -135.657)" fill="#263238"/>
      <path id="Path_27304" data-name="Path 27304" d="M249.887,166.608c-.192.216-1.415-.636-3.119-.6s-2.921.936-3.113.732c-.09-.09.1-.468.63-.876a4.294,4.294,0,0,1,2.483-.846,4.2,4.2,0,0,1,2.489.726C249.791,166.146,249.977,166.518,249.887,166.608Z" transform="translate(-163.715 -131.811)" fill="#263238"/>
      <path id="Path_27305" data-name="Path 27305" d="M264.2,178.957a11.935,11.935,0,0,1,2.747-.6c.438-.06.846-.156.906-.456a2.153,2.153,0,0,0-.324-1.277c-.438-1.044-.9-2.129-1.379-3.275-1.919-4.66-3.317-8.492-3.131-8.57s1.9,3.64,3.814,8.3q.7,1.715,1.325,3.293a2.531,2.531,0,0,1,.24,1.733,1.067,1.067,0,0,1-.7.654,2.754,2.754,0,0,1-.732.126A10.942,10.942,0,0,1,264.2,178.957Z" transform="translate(-171.468 -131.715)" fill="#263238"/>
      <path id="Path_27306" data-name="Path 27306" d="M256.761,219.3a31.391,31.391,0,0,1-16.631-3.934s4.4,8.4,16.7,6.927Z" transform="translate(-162.313 -151.965)" fill="#eb996e"/>
      <path id="Path_27307" data-name="Path 27307" d="M260.676,194.022a4.2,4.2,0,0,0-3.5-1.733,2.723,2.723,0,0,0-2.207,1.283,2.495,2.495,0,0,0,2.909,3.658,6.2,6.2,0,0,0,2.465-1.619,1.943,1.943,0,0,0,.516-.648.858.858,0,0,0-.09-.864" transform="translate(-168.111 -142.727)" fill="#eb996e"/>
      <path id="Path_27308" data-name="Path 27308" d="M256.491,190.62c.276,0,.33,1.8,1.949,3.089s3.6,1.008,3.6,1.265c0,.114-.426.366-1.259.414a4.57,4.57,0,0,1-3-.948,4.012,4.012,0,0,1-1.517-2.6C256.167,191.076,256.365,190.614,256.491,190.62Z" transform="translate(-168.76 -142.059)" fill="#263238"/>
      <path id="Path_27309" data-name="Path 27309" d="M249.832,155.217c-.156.468-1.859.3-3.85.6s-3.6.888-3.862.48c-.126-.192.144-.636.78-1.1a6.777,6.777,0,0,1,5.877-.816C249.509,154.617,249.886,154.971,249.832,155.217Z" transform="translate(-163.097 -127.418)" fill="#e54c38"/>
      <path id="Path_27310" data-name="Path 27310" d="M276.778,155.5c-.288.4-1.469,0-2.885.048s-2.591.336-2.879-.06c-.126-.2.054-.6.564-.966a4.162,4.162,0,0,1,4.642,0C276.73,154.908,276.9,155.3,276.778,155.5Z" transform="translate(-174.659 -127.326)" fill="#e54c38"/>
      <path id="Path_27311" data-name="Path 27311" d="M273.793,140.482a8.468,8.468,0,0,0-3.251-4.66c-.888-.6-1.919-.936-2.747-1.6-1.8-1.439-2.2-3.94-3.293-5.949a9.308,9.308,0,0,0-7.095-4.708c-2.441-.252-4.96.48-7.341-.12-1.757-.444-3.293-1.583-5.08-1.925-3.472-.66-6.7,1.835-9.218,4.312,0,2.489,1.973,4.15,3.88,5.745a8.606,8.606,0,0,0,6.981,1.841c1.9-.348,3.976-1.3,5.614-.294s1.8,3.664,3.335,5c2.189,1.9,5.668.12,8.444.942,2.147.636,3.49,2.687,4.912,4.414s3.562,3.365,5.709,2.729A25.188,25.188,0,0,0,273.793,140.482Z" transform="translate(-160.568 -114.357)" fill="#e54c38"/>
      <path id="Path_27312" data-name="Path 27312" d="M227.88,130.645c-1.553-.45-4.738-1.457-5.572-2.807a9.5,9.5,0,0,0-8.282-4.756,7.863,7.863,0,0,0-7.071,6.207,11.287,11.287,0,0,0-9.7,6.249,12.327,12.327,0,0,0-.6,1.445,8.6,8.6,0,0,0-.6,7.2c.534,1.4,1.451,2.969.732,4.288s-2.6,1.391-4.048,1.889a5.71,5.71,0,0,0-3.6,6.369,6.97,6.97,0,0,1,.456,2.807,6.017,6.017,0,0,1-1.679,2.4,7.095,7.095,0,0,0,4.168,11.6,9.265,9.265,0,0,1,3.269.744c1.1.678,1.577,2,2.357,3.035a6.111,6.111,0,0,0,6.645,2.093,5.554,5.554,0,0,0,1.331-.672c.744,1.032,1.583,4.654,3.6,4.654l-.132-28.919a2.135,2.135,0,0,0,1.577,1.235c4.168.942,4.8-7.653,3.85-9.986a24.284,24.284,0,0,0,4.2-4.4,17.459,17.459,0,0,0,1.919-8.432C222.159,132.954,228.564,130.825,227.88,130.645Z" transform="translate(-140.732 -115.022)" fill="#e54c38"/>
      <path id="Path_27313" data-name="Path 27313" d="M221.148,177.2c-.132-2.645-3.365-3.209-5.656-1.883-1.253.726-2.213,2.183-2.1,4.99.306,7.479,7.755,5.626,7.755,5.4S221.3,180.292,221.148,177.2Z" transform="translate(-151.608 -135.659)" fill="#ffbe9d"/>
      <path id="Path_27314" data-name="Path 27314" d="M220.021,184.647c-.036,0-.126.1-.342.2a1.283,1.283,0,0,1-.972.06,3.217,3.217,0,0,1-1.613-2.831,4.24,4.24,0,0,1,.288-1.877,1.517,1.517,0,0,1,.936-1.044.666.666,0,0,1,.786.324c.108.21.066.36.108.372s.156-.132.084-.438a.84.84,0,0,0-.312-.462.99.99,0,0,0-.732-.156,1.8,1.8,0,0,0-1.313,1.2,4.462,4.462,0,0,0-.366,2.105c.108,1.505.942,2.885,2.033,3.155a1.409,1.409,0,0,0,1.2-.252C220.015,184.827,220.045,184.659,220.021,184.647Z" transform="translate(-152.88 -137.321)" fill="#eb996e"/>
      <path id="Path_27315" data-name="Path 27315" d="M223.294,257.407a1.541,1.541,0,0,1-.336-.144l-.924-.474c-.8-.414-1.943-1.032-3.347-1.8-2.807-1.577-6.627-3.862-10.711-6.6s-7.665-5.4-10.2-7.371c-1.265-.99-2.279-1.8-2.963-2.4-.324-.27-.6-.492-.792-.672s-.27-.24-.258-.252a2.32,2.32,0,0,1,.3.2l.822.6,3.029,2.309c2.561,1.943,6.153,4.564,10.232,7.287s7.875,5.038,10.645,6.657l3.3,1.907.894.528A1.709,1.709,0,0,1,223.294,257.407Z" transform="translate(-143.756 -160.903)" fill="#263238"/>
      <path id="Path_27316" data-name="Path 27316" d="M278.415,229.539a1.392,1.392,0,0,1-.216.282l-.66.786c-.6.678-1.439,1.637-2.519,2.813-2.159,2.339-5.23,5.5-8.8,8.8s-6.945,6.135-9.446,8.108c-1.247.99-2.273,1.8-3,2.3l-.828.6a1.531,1.531,0,0,1-.3.192,1.735,1.735,0,0,1,.264-.24l.792-.654,2.927-2.369c2.465-2.021,5.811-4.87,9.374-8.168s6.651-6.429,8.846-8.732l2.591-2.741.708-.744A1.726,1.726,0,0,1,278.415,229.539Z" transform="translate(-167.324 -157.636)" fill="#263238"/>
      <path id="Path_27317" data-name="Path 27317" d="M228.462,247.385c-.06.066-6-5.152-13.194-11.653s-13.038-11.8-12.978-11.893,5.961,5.152,13.194,11.659S228.5,247.325,228.462,247.385Z" transform="translate(-147.167 -155.355)" fill="#263238"/>
      <path id="Path_27318" data-name="Path 27318" d="M266.247,228.06a1.2,1.2,0,0,1-.18.228l-.558.6-2.1,2.255c-1.8,1.889-4.246,4.492-6.993,7.347s-5.248,5.434-7.065,7.287l-2.165,2.183-.6.6c-.144.132-.216.192-.228.186a1.2,1.2,0,0,1,.18-.228c.15-.174.336-.378.558-.6l2.093-2.255c1.8-1.889,4.252-4.492,7-7.347s5.242-5.434,7.065-7.287l2.165-2.183.6-.6C266.163,228.114,266.235,228.054,266.247,228.06Z" transform="translate(-164.807 -157.044)" fill="#263238"/>
      <path id="Path_27319" data-name="Path 27319" d="M237.7,265.665a1.392,1.392,0,0,1-.27.1,5.793,5.793,0,0,1-.792.2,10.28,10.28,0,0,1-3,.168,11.766,11.766,0,0,1-4.288-1.241,10.55,10.55,0,0,1-2.207-1.469,5.4,5.4,0,0,1-.51-.474,5.662,5.662,0,0,1-.492-.51c-.156-.186-.318-.348-.468-.558a1.026,1.026,0,0,1-.174-.384.6.6,0,0,1,.1-.462,1.05,1.05,0,0,1,.744-.354,5.951,5.951,0,0,1,.732,0,13.321,13.321,0,0,1,1.4.1,13.957,13.957,0,0,1,2.591.54,14.993,14.993,0,0,1,4.024,1.925,13.339,13.339,0,0,1,2.291,1.949,7.423,7.423,0,0,1,.534.6c.12.144.174.222.168.234a19.862,19.862,0,0,0-3.113-2.621,15.641,15.641,0,0,0-3.988-1.829,14.346,14.346,0,0,0-2.543-.516,12.782,12.782,0,0,0-1.367-.084,6.549,6.549,0,0,0-.69,0,.81.81,0,0,0-.528.222c-.216.276.24.684.522,1.014a6.268,6.268,0,0,0,.474.5,5.092,5.092,0,0,0,.5.456,10.5,10.5,0,0,0,2.135,1.451,12,12,0,0,0,4.2,1.271,11.167,11.167,0,0,0,2.963-.066A9.5,9.5,0,0,1,237.7,265.665Z" transform="translate(-156.454 -170.096)" fill="#fff"/>
      <path id="Path_27320" data-name="Path 27320" d="M246.453,263.74a.875.875,0,0,1,0-.276,5.805,5.805,0,0,1,.15-.78,8.546,8.546,0,0,1,1.253-2.627,13.626,13.626,0,0,1,3.029-3.077c.648-.5,1.349-.978,2.087-1.463.378-.24.738-.486,1.139-.726a2.279,2.279,0,0,1,.678-.282,1.1,1.1,0,0,1,.786.108,1.283,1.283,0,0,1,.5,1.391,3.2,3.2,0,0,1-.678,1.2,17.664,17.664,0,0,1-1.709,1.9,18.065,18.065,0,0,1-3.448,2.6,16.369,16.369,0,0,1-2.633,1.235c-.324.12-.6.2-.75.246a.725.725,0,0,1-.27.06,10.6,10.6,0,0,1,.978-.42,19.656,19.656,0,0,0,2.561-1.307,18.8,18.8,0,0,0,3.359-2.621,17.709,17.709,0,0,0,1.673-1.877,3.04,3.04,0,0,0,.6-1.109.978.978,0,0,0-.36-1.05,1.151,1.151,0,0,0-1.146.174c-.378.222-.762.48-1.128.714-.738.48-1.439.948-2.075,1.433a13.879,13.879,0,0,0-3,3,9.081,9.081,0,0,0-1.313,2.537C246.531,263.369,246.477,263.746,246.453,263.74Z" transform="translate(-164.839 -167.62)" fill="#fff"/>
      <path id="Path_27321" data-name="Path 27321" d="M246.254,287.376a4.011,4.011,0,0,1-.186-.708c-.108-.456-.234-1.122-.36-1.949a48.056,48.056,0,0,1-.234-13.074c.1-.834.2-1.5.294-1.961a3.659,3.659,0,0,1,.162-.714,3.065,3.065,0,0,1-.042.732c-.054.462-.12,1.134-.192,1.967a60.02,60.02,0,0,0,.228,13.014c.1.834.192,1.5.264,1.967A3.251,3.251,0,0,1,246.254,287.376Z" transform="translate(-164.317 -173.419)" fill="#fff"/>
      <path id="Path_27322" data-name="Path 27322" d="M250.376,284.843a2.614,2.614,0,0,1-.264-.57c-.15-.378-.354-.924-.6-1.607-.48-1.367-1.08-3.281-1.619-5.4s-.93-4.108-1.163-5.542c-.114-.714-.2-1.3-.24-1.7a2.615,2.615,0,0,1-.042-.63,2.4,2.4,0,0,1,.162.6c.1.462.2,1.02.342,1.679.282,1.415.7,3.365,1.241,5.5s1.1,4.048,1.529,5.4c.192.642.36,1.2.5,1.637A2.106,2.106,0,0,1,250.376,284.843Z" transform="translate(-164.84 -173.591)" fill="#fff"/>
    </g>
  </g>
</svg>
