<svg xmlns="http://www.w3.org/2000/svg" width="272" height="253.956" viewBox="0 0 272 253.956">
  <g id="Forgot_password-amico_1_" data-name="Forgot password-amico (1)" transform="translate(-14.41 -38.007)">
    <g id="freepik--Floor--inject-68" transform="translate(14.41 134.921)">
      <path id="freepik--floor--inject-68-2" data-name="freepik--floor--inject-68" d="M136,0c75.111,0,136,35.155,136,78.521s-60.889,78.521-136,78.521S0,121.887,0,78.521,60.889,0,136,0Z" fill="#fafafa"/>
    </g>
    <g id="freepik--Shadow--inject-68" transform="translate(75.37 218.794)">
      <ellipse id="freepik--shadow--inject-68-2" data-name="freepik--shadow--inject-68" cx="46.898" cy="27.074" rx="46.898" ry="27.074" fill="#e0e0e0"/>
    </g>
    <g id="freepik--Plants--inject-68" transform="translate(27.191 156.038)">
      <g id="freepik--plants--inject-68-2" data-name="freepik--plants--inject-68" transform="translate(222.186 6.731)">
        <path id="Path_12591" data-name="Path 12591" d="M427.7,303.354l-5.5-3.175s-1.345-11.776-.45-20.9c1.258-12.815,9.537-28.24,19.408-24.615s-4.526,16.672-7.73,27.542S427.7,303.354,427.7,303.354Z" transform="translate(-421.438 -254.128)" fill="#f3ba6f"/>
        <path id="Path_12592" data-name="Path 12592" d="M427.7,303.354l-5.5-3.175s-1.345-11.776-.45-20.9c1.258-12.815,9.537-28.24,19.408-24.615s-4.526,16.672-7.73,27.542S427.7,303.354,427.7,303.354Z" transform="translate(-421.438 -254.128)" fill="#bbb"/>
        <path id="Path_12593" data-name="Path 12593" d="M426.977,304.972h0a.335.335,0,0,0,.318-.346c-.964-28.477,13.214-42.8,13.352-42.943a.335.335,0,0,0,0-.473.329.329,0,0,0-.468,0c-.15.139-14.53,14.674-13.554,43.44a.335.335,0,0,0,.352.323Z" transform="translate(-423.611 -257.08)" fill="#fff"/>
        <path id="Path_12594" data-name="Path 12594" d="M435.373,317.566l-3.914-2.257a43.074,43.074,0,0,1,3.3-17.9c3.464-8.544,12.007-15.638,16.314-14.149s4.2,4.543,2.1,7.747S438.3,301.841,435.373,317.566Z" transform="translate(-425.656 -266.361)" fill="#dfdfdf"/>
        <path id="Path_12595" data-name="Path 12595" d="M434.445,318.475h0a.341.341,0,0,0,.335-.335c-.081-18.011,16.828-30.18,17-30.3a.323.323,0,0,0,.075-.462.335.335,0,0,0-.462-.081c-.173.121-17.359,12.5-17.284,30.844a.335.335,0,0,0,.335.335Z" transform="translate(-426.795 -268.125)" fill="#fff"/>
      </g>
      <g id="freepik--plants--inject-68-3" data-name="freepik--plants--inject-68">
        <path id="Path_12596" data-name="Path 12596" d="M67.847,291.353l5.08-3.429s2.234-13.277.156-24.99c-2.921-16.429-14.276-21.89-18.317-20.158s-4.907,6.621,2.638,16C61.878,264.285,67.691,276.055,67.847,291.353Z" transform="translate(-42.96 -242.469)" fill="#e54c38"/>
        <path id="Path_12598" data-name="Path 12598" d="M73.674,286.464h-.052a.369.369,0,0,1-.341-.433c1.836-15.465-4.693-32.252-11.8-38.931a.369.369,0,0,1,0-.52.364.364,0,0,1,.52,0c7.239,6.8,13.889,23.865,12.03,39.555a.375.375,0,0,1-.358.329Z" transform="translate(-47.044 -244.161)" fill="#fff"/>
        <path id="Path_12599" data-name="Path 12599" d="M48.136,310.547c-.808.485-3.163-1.264-3.816-1.686a7.759,7.759,0,0,1-2.644-2.921,7.3,7.3,0,0,1-.733-4.364,17.253,17.253,0,0,1,.514-2.309c.2-.756.4-1.512.577-2.274a5.629,5.629,0,0,0,.289-2.309c-.225-1.541-1.616-2.6-2.886-3.5-1.4-1.01-2.886-2.344-2.886-4.2a6.535,6.535,0,0,1,1.588-3.96c.866-1.155,1.905-2.159,2.684-3.366a4.618,4.618,0,0,0,.883-2.886,4.8,4.8,0,0,0-.67-1.8,26.724,26.724,0,0,1-2.044-3.585,3.613,3.613,0,0,1,.577-3.868,4.256,4.256,0,0,1,3.181-.854,7.291,7.291,0,0,1,3,.987c2.985,1.587,4.739,5.051,7.9,6.258a32.5,32.5,0,0,0,3.81.854,4.722,4.722,0,0,1,3.175,2.078c1.195,2.28-.889,5.155-.035,7.574.762,2.147,2.886,2.933,4.087,4.855a4.618,4.618,0,0,1,.577,2.817,13.48,13.48,0,0,1-1.091,4.786,42.146,42.146,0,0,1-2.54,4.56S48.257,310.472,48.136,310.547Z" transform="translate(-36.55 -252.692)" fill="#bbb"/>
        <path id="Path_12600" data-name="Path 12600" d="M61.025,307.879h0a.369.369,0,0,1-.364-.375c.323-14.617-6.87-30.6-11.961-35.214a.369.369,0,0,1-.029-.52.364.364,0,0,1,.52,0c5.2,4.676,12.533,20.932,12.2,35.751a.364.364,0,0,1-.369.358Z" transform="translate(-41.635 -254.809)" fill="#fff"/>
        <path id="Path_12601" data-name="Path 12601" d="M57.345,301.909a.214.214,0,0,1-.1,0A49.682,49.682,0,0,0,46.608,300.4a.364.364,0,0,1-.358-.375.352.352,0,0,1,.375-.358,50.153,50.153,0,0,1,10.818,1.53.369.369,0,0,1,.248.456A.358.358,0,0,1,57.345,301.909Z" transform="translate(-40.65 -266.649)" fill="#fff"/>
      </g>
    </g>
    <g id="freepik--speech-bubble--inject-68" transform="translate(161.808 62.937)">
      <g id="freepik--speach-bubble--inject-68" transform="translate(0 0)">
        <path id="Path_12602" data-name="Path 12602" d="M298.641,213.127l-2.188-1.264A2.759,2.759,0,0,1,295.2,209.7V118.766a2.771,2.771,0,0,1,1.247-2.165l60.816-35.11a2.765,2.765,0,0,1,2.5,0l2.188,1.264A2.759,2.759,0,0,1,363.2,84.92v90.932a2.771,2.771,0,0,1-1.247,2.165L301.14,213.133A2.748,2.748,0,0,1,298.641,213.127Z" transform="translate(-280.505 -81.193)" fill="#455a64"/>
        <path id="Path_12603" data-name="Path 12603" d="M363.469,84.718c-.087-.647-.612-.883-1.241-.52l-60.822,35.116a2.587,2.587,0,0,0-.883.929l-4.693-2.707a2.557,2.557,0,0,1,.883-.935l60.816-35.11a2.765,2.765,0,0,1,2.5,0l2.188,1.264A2.788,2.788,0,0,1,363.469,84.718Z" transform="translate(-280.772 -81.193)" fill="#455a64"/>
        <path id="Path_12604" data-name="Path 12604" d="M300.91,239.845a2.788,2.788,0,0,1-2.309-.1l-2.194-1.27a2.771,2.771,0,0,1-1.247-2.165V145.38a2.558,2.558,0,0,1,.364-1.23l4.693,2.707a2.523,2.523,0,0,0-.369,1.235v90.932C299.871,239.741,300.321,240.07,300.91,239.845Z" transform="translate(-280.488 -107.806)" fill="#263238"/>
        <path id="Path_12605" data-name="Path 12605" d="M303.32,123.567v90.921c0,.8.577,1.12,1.253.722l60.816-35.116a2.771,2.771,0,0,0,1.247-2.165V87c0-.8-.577-1.12-1.247-.722l-60.816,35.116A2.759,2.759,0,0,0,303.32,123.567Z" transform="translate(-283.938 -83.269)" fill="#233245"/>
        <path id="Path_12606" data-name="Path 12606" d="M274.926,196.458c-.785-.468-4.428-2.54-4.618-2.65a1.155,1.155,0,0,1-.248-1.784l14.38-15.425,4.688,2.69-14.374,15.436a1.155,1.155,0,0,0,.173,1.732Z" transform="translate(-269.745 -121.524)" fill="#455a64"/>
        <path id="Path_12607" data-name="Path 12607" d="M292.566,181.29l-14.374,15.419a1.155,1.155,0,0,0,.941,1.94l13.433-1.108Z" transform="translate(-273.184 -123.506)" fill="#37474f"/>
        <path id="Path_12608" data-name="Path 12608" d="M348.763,131.916c7.089-4.093,12.833-.774,12.833,7.412s-5.744,18.132-12.833,22.225-12.833.774-12.833-7.406S341.674,136.009,348.763,131.916Z" transform="translate(-297.723 -101.894)" fill="#e54c38"/>
        <path id="Path_12609" data-name="Path 12609" d="M354.948,143.943c2.309-1.328,4.162-.254,4.162,2.4a9.2,9.2,0,0,1-4.162,7.2c-2.309,1.328-4.168.254-4.168-2.4A9.2,9.2,0,0,1,354.948,143.943Z" transform="translate(-304 -107.478)" fill="#fff"/>
        <path id="Path_12610" data-name="Path 12610" d="M360.472,165.3c0-4.358-3.065-6.131-6.841-3.949l-2.361,1.362a15.158,15.158,0,0,0-6.841,11.851v1.195a7.175,7.175,0,0,0,2.205.341,11.626,11.626,0,0,0,5.721-1.732,25.29,25.29,0,0,0,8.117-8.024Z" transform="translate(-301.316 -114.685)" fill="#fff"/>
        <path id="Path_12611" data-name="Path 12611" d="M343.163,247.732l16.256-9.386c.693-.4,1.253-.075,1.253.722V244.3a2.759,2.759,0,0,1-1.253,2.165l-16.256,9.386c-.693.4-1.253.075-1.253-.722V249.9a2.759,2.759,0,0,1,1.253-2.165Z" transform="translate(-300.251 -147.553)" fill="#e54c38"/>
        <path id="Path_12612" data-name="Path 12612" d="M329.182,220.716l32.16-18.577c.826-.479,1.5-.092,1.5.866v1.945a3.314,3.314,0,0,1-1.5,2.6l-32.177,18.577c-.825.479-1.5.092-1.5-.866v-1.928a3.308,3.308,0,0,1,1.512-2.615Z" transform="translate(-294.231 -132.233)" fill="#fafafa"/>
        <path id="Path_12613" data-name="Path 12613" d="M335.638,211.015c.439-.254.779-.294,1.022-.115s.364.577.364,1.189a3.418,3.418,0,0,1-.364,1.611,2.552,2.552,0,0,1-1.022,1.074l-.866.5v1.865a.439.439,0,0,1-.046.185.266.266,0,0,1-.1.127l-.439.254a.087.087,0,0,1-.1,0,.19.19,0,0,1-.04-.139v-5.4a.427.427,0,0,1,.04-.185.3.3,0,0,1,.1-.127Zm-.866,3.215.837-.485a1.4,1.4,0,0,0,.5-.473,1.431,1.431,0,0,0,.185-.762c0-.312-.063-.491-.185-.543a.577.577,0,0,0-.5.11l-.837.485Z" transform="translate(-296.923 -135.977)" fill="#fafafa"/>
        <path id="Path_12614" data-name="Path 12614" d="M341.817,207.351c.058-.035.1-.035.133,0a.451.451,0,0,1,.075.173l1.333,4.514v.052a.416.416,0,0,1-.046.185.265.265,0,0,1-.1.127l-.393.225c-.069.04-.121.046-.15,0a.231.231,0,0,1-.058-.1l-.237-.791-1.732.993-.231,1.062a1.061,1.061,0,0,1-.064.167.312.312,0,0,1-.15.162l-.393.225a.081.081,0,0,1-.1,0,.185.185,0,0,1-.04-.133.212.212,0,0,1,0-.063l1.328-6.05a1.309,1.309,0,0,1,.075-.26.323.323,0,0,1,.133-.144Zm.3,3.5-.577-2.038-.577,2.725Z" transform="translate(-299.298 -134.512)" fill="#fafafa"/>
        <path id="Path_12615" data-name="Path 12615" d="M348.458,203.5a1.414,1.414,0,0,1,.641-.214.773.773,0,0,1,.462.1.745.745,0,0,1,.283.341,1.218,1.218,0,0,1,.1.45.347.347,0,0,1-.04.185.265.265,0,0,1-.1.127l-.381.219c-.064.035-.11.04-.139,0a.271.271,0,0,1-.087-.092.421.421,0,0,0-.242-.225.67.67,0,0,0-.5.127,2.149,2.149,0,0,0-.266.2,1.411,1.411,0,0,0-.225.266,1.459,1.459,0,0,0-.15.3.979.979,0,0,0-.052.312.578.578,0,0,0,.052.283.219.219,0,0,0,.173.11.946.946,0,0,0,.323,0l.5-.11a1.733,1.733,0,0,1,.577-.069.647.647,0,0,1,.387.127.687.687,0,0,1,.219.341,1.778,1.778,0,0,1,.075.577,2.73,2.73,0,0,1-.11.762,3.088,3.088,0,0,1-.306.727,3.512,3.512,0,0,1-.5.647,2.972,2.972,0,0,1-.658.514,1.778,1.778,0,0,1-.577.225.93.93,0,0,1-.5-.04.751.751,0,0,1-.341-.318,1.293,1.293,0,0,1-.15-.577.451.451,0,0,1,.04-.19.323.323,0,0,1,.11-.121l.381-.219c.058-.035.1-.046.139-.029a.178.178,0,0,1,.081.1.779.779,0,0,0,.092.167.306.306,0,0,0,.144.11.514.514,0,0,0,.231,0,1.154,1.154,0,0,0,.346-.144,2.234,2.234,0,0,0,.318-.219,1.547,1.547,0,0,0,.45-.577.97.97,0,0,0,.069-.364.335.335,0,0,0-.075-.254.289.289,0,0,0-.231-.069,1.615,1.615,0,0,0-.387.063c-.15.035-.323.075-.525.11a1.385,1.385,0,0,1-.473.035.542.542,0,0,1-.335-.144.739.739,0,0,1-.2-.358,2.483,2.483,0,0,1-.064-.612,2.6,2.6,0,0,1,.11-.75,3.026,3.026,0,0,1,.3-.716,3.2,3.2,0,0,1,.45-.618A2.614,2.614,0,0,1,348.458,203.5Z" transform="translate(-302.377 -132.804)" fill="#fafafa"/>
        <path id="Path_12616" data-name="Path 12616" d="M355.031,199.717a1.368,1.368,0,0,1,.641-.219.785.785,0,0,1,.462.1.774.774,0,0,1,.277.341,1.218,1.218,0,0,1,.1.45.3.3,0,0,1-.04.185.265.265,0,0,1-.1.127l-.381.219c-.058.035-.1.046-.139,0a.2.2,0,0,1-.081-.1.462.462,0,0,0-.248-.219.652.652,0,0,0-.491.127,1.839,1.839,0,0,0-.271.2,1.38,1.38,0,0,0-.219.266,1.218,1.218,0,0,0-.15.3.987.987,0,0,0-.058.312.577.577,0,0,0,.052.283.219.219,0,0,0,.173.11.941.941,0,0,0,.323,0l.5-.11a1.916,1.916,0,0,1,.577-.069.635.635,0,0,1,.387.127.739.739,0,0,1,.225.341,2.007,2.007,0,0,1,.069.577,2.73,2.73,0,0,1-.11.762,3.088,3.088,0,0,1-.306.727,3.465,3.465,0,0,1-.5.652,3.249,3.249,0,0,1-.652.508,1.8,1.8,0,0,1-.577.225.918.918,0,0,1-.491-.04.733.733,0,0,1-.346-.318,1.224,1.224,0,0,1-.144-.577.3.3,0,0,1,.04-.185.265.265,0,0,1,.1-.127l.381-.219c.058-.035.11-.046.138-.029a.144.144,0,0,1,.081.1,1.153,1.153,0,0,0,.092.167.317.317,0,0,0,.15.11.514.514,0,0,0,.231,0,1.155,1.155,0,0,0,.346-.144,2.571,2.571,0,0,0,.312-.219,1.338,1.338,0,0,0,.266-.277,1.5,1.5,0,0,0,.185-.323.97.97,0,0,0,.069-.364.335.335,0,0,0-.075-.254.289.289,0,0,0-.231-.069,1.858,1.858,0,0,0-.381.064c-.15.035-.329.075-.525.11a1.42,1.42,0,0,1-.479.035.525.525,0,0,1-.335-.144.733.733,0,0,1-.2-.358,2.188,2.188,0,0,1-.069-.606,2.818,2.818,0,0,1,.11-.756,3.283,3.283,0,0,1,.3-.716,3,3,0,0,1,.456-.618,2.309,2.309,0,0,1,.543-.468Z" transform="translate(-305.157 -131.202)" fill="#fafafa"/>
        <path id="Path_12617" data-name="Path 12617" d="M361.98,198.091l-.468,2.765a1.118,1.118,0,0,1-.069.242.3.3,0,0,1-.121.15l-.439.254c-.058.035-.1.035-.127,0a.283.283,0,0,1-.063-.167L360,196.457v-.064a.438.438,0,0,1,.046-.185.294.294,0,0,1,.1-.127l.4-.231a.139.139,0,0,1,.1,0q.052,0,.069.139l.456,3.285.4-2.465a.807.807,0,0,1,.052-.179.306.306,0,0,1,.138-.173l.445-.26c.063-.035.11-.029.138,0a.345.345,0,0,1,.052.121l.4,2,.456-3.81a.52.52,0,0,1,.064-.214.381.381,0,0,1,.1-.11l.4-.231a.087.087,0,0,1,.1,0,.19.19,0,0,1,.046.139.36.36,0,0,1,0,.069l-.693,5.675a1.066,1.066,0,0,1-.063.242.335.335,0,0,1-.127.15l-.444.254q-.078.043-.121,0a.814.814,0,0,1-.069-.167Z" transform="translate(-307.898 -128.854)" fill="#fafafa"/>
        <path id="Path_12618" data-name="Path 12618" d="M368.108,194.392a5.958,5.958,0,0,1,.115-.952,4.138,4.138,0,0,1,.3-.889,3.464,3.464,0,0,1,.485-.768,2.608,2.608,0,0,1,.7-.577,1.311,1.311,0,0,1,.687-.225.716.716,0,0,1,.491.2,1.339,1.339,0,0,1,.294.548,3.272,3.272,0,0,1,.121.814v1.5a5.815,5.815,0,0,1-.115.947,4.464,4.464,0,0,1-.294.889,3.69,3.69,0,0,1-.491.768,2.731,2.731,0,0,1-.693.577,1.374,1.374,0,0,1-.7.225.664.664,0,0,1-.485-.2,1.218,1.218,0,0,1-.3-.577,3.684,3.684,0,0,1-.115-.814v-1.143C368.108,194.588,368.1,194.5,368.108,194.392Zm2.459-1.38a1.051,1.051,0,0,0-.254-.785.514.514,0,0,0-.606,0,1.513,1.513,0,0,0-.612.681,2.523,2.523,0,0,0-.254,1.079V195.4a1.051,1.051,0,0,0,.254.785c.15.127.358.115.612-.029a1.547,1.547,0,0,0,.606-.675,2.494,2.494,0,0,0,.254-1.074c0-.219,0-.456,0-.716S370.573,193.22,370.567,193.012Z" transform="translate(-311.324 -127.603)" fill="#fafafa"/>
        <path id="Path_12619" data-name="Path 12619" d="M376.858,187.213c.456-.26.8-.3,1.033-.11a1.414,1.414,0,0,1,.352,1.155,3.539,3.539,0,0,1-.179,1.155,2.886,2.886,0,0,1-.537.947l.75,1.634a.447.447,0,0,1,0,.081.335.335,0,0,1-.035.15.225.225,0,0,1-.081.1l-.462.266c-.075.04-.127.046-.162,0a.394.394,0,0,1-.075-.1l-.71-1.541-.722.416v1.951a.427.427,0,0,1-.04.185.341.341,0,0,1-.1.127l-.439.254a.081.081,0,0,1-.1,0,.173.173,0,0,1-.046-.133v-5.4a.438.438,0,0,1,.046-.185.265.265,0,0,1,.1-.127Zm-.814,3.106.814-.439a1.455,1.455,0,0,0,.5-.456,1.305,1.305,0,0,0,.185-.739c0-.312-.063-.485-.185-.52a.681.681,0,0,0-.5.127l-.785.45Z" transform="translate(-314.365 -125.914)" fill="#fafafa"/>
        <path id="Path_12620" data-name="Path 12620" d="M383.609,183.352a1.53,1.53,0,0,1,.7-.242.693.693,0,0,1,.491.179,1.212,1.212,0,0,1,.306.577,3.67,3.67,0,0,1,.127.877v1.241a5.772,5.772,0,0,1-.127,1.022,4.284,4.284,0,0,1-.3.906,3.408,3.408,0,0,1-.485.739,2.657,2.657,0,0,1-.681.577l-1.368.745a.081.081,0,0,1-.1,0,.167.167,0,0,1-.046-.133v-5.4a.438.438,0,0,1,.046-.185.266.266,0,0,1,.1-.127Zm.889,1.8a1.768,1.768,0,0,0-.069-.462.63.63,0,0,0-.167-.3.375.375,0,0,0-.277-.11.82.82,0,0,0-.4.139l-.727.416v3.764l.756-.433a1.5,1.5,0,0,0,.387-.323,1.98,1.98,0,0,0,.271-.416,2.38,2.38,0,0,0,.162-.5,2.886,2.886,0,0,0,.069-.543C384.515,185.961,384.515,185.552,384.5,185.147Z" transform="translate(-317.248 -124.275)" fill="#fafafa"/>
      </g>
    </g>
    <g id="freepik--question-marks--inject-68" transform="translate(139.158 38.007)">
      <g id="freepik--question-marks--inject-68-2" data-name="freepik--question-marks--inject-68">
        <path id="Path_12621" data-name="Path 12621" d="M240.248,38.228A10.829,10.829,0,0,1,243.1,39.3a8.192,8.192,0,0,1,2.269,1.8,6.5,6.5,0,0,1,1.339,2.425,5.773,5.773,0,0,1,.058,2.938,5.98,5.98,0,0,1-.895,2.147,7.3,7.3,0,0,1-1.409,1.478,11.227,11.227,0,0,1-1.68,1.079l-1.663.883a9.1,9.1,0,0,0-1.42.918,2.724,2.724,0,0,0-.889,1.195,1.27,1.27,0,0,1-.421.543.739.739,0,0,1-.635.133l-2.448-.543a.906.906,0,0,1-.577-.4.745.745,0,0,1-.11-.664,5.842,5.842,0,0,1,1.022-2.09,8.151,8.151,0,0,1,1.5-1.461,12.067,12.067,0,0,1,1.732-1.056c.577-.294,1.155-.577,1.657-.86a7.5,7.5,0,0,0,1.31-.895,2.084,2.084,0,0,0,.7-1.155,2.494,2.494,0,0,0-.577-2.24A4.474,4.474,0,0,0,239.4,42.09a4.31,4.31,0,0,0-4.618,1.842,1.772,1.772,0,0,1-.45.456.849.849,0,0,1-.641.046l-2.6-.577a.716.716,0,0,1-.456-.3.7.7,0,0,1-.1-.577,5.161,5.161,0,0,1,1.2-2.147,8.04,8.04,0,0,1,2.246-1.732,9.7,9.7,0,0,1,2.95-.981,8.6,8.6,0,0,1,3.319.11ZM237.483,56.8a.9.9,0,0,1,.675,1.062l-.623,2.829a.854.854,0,0,1-.393.577.843.843,0,0,1-.67.127l-2.794-.641a.837.837,0,0,1-.577-.393.86.86,0,0,1-.121-.67l.629-2.829a.906.906,0,0,1,1.062-.681Z" transform="translate(-230.509 -38.007)" fill="#e54c38"/>
        <path id="Path_12622" data-name="Path 12622" d="M249,85.23a7.539,7.539,0,0,1,2.1-.04,5.773,5.773,0,0,1,1.917.577,4.619,4.619,0,0,1,1.478,1.212,4.37,4.37,0,0,1,.762,3.464,4.83,4.83,0,0,1-.525,1.31,7.291,7.291,0,0,1-.8,1.12c-.294.346-.577.675-.837.993a6.269,6.269,0,0,0-.675.953,1.784,1.784,0,0,0-.266.987.975.975,0,0,1-.133.462.543.543,0,0,1-.375.242l-1.732.277a.618.618,0,0,1-.468-.1.508.508,0,0,1-.237-.4,3.931,3.931,0,0,1,.115-1.6,5.664,5.664,0,0,1,.577-1.316,7.658,7.658,0,0,1,.831-1.114c.306-.346.577-.67.843-.981a4.914,4.914,0,0,0,.612-.906,1.449,1.449,0,0,0,.156-.912,1.732,1.732,0,0,0-.952-1.287,3.112,3.112,0,0,0-2-.242,2.99,2.99,0,0,0-2.5,2.373,1.305,1.305,0,0,1-.173.41.612.612,0,0,1-.393.191l-1.824.294a.5.5,0,0,1-.369-.075.473.473,0,0,1-.2-.335,3.463,3.463,0,0,1,.26-1.68,5.536,5.536,0,0,1,.993-1.686,6.789,6.789,0,0,1,1.639-1.385,6.015,6.015,0,0,1,2.171-.8Zm2.979,12.613a.612.612,0,0,1,.456.11.577.577,0,0,1,.254.4l.323,1.98a.618.618,0,0,1-.508.7l-1.934.318a.618.618,0,0,1-.456-.11.577.577,0,0,1-.248-.4l-.323-1.98a.619.619,0,0,1,.508-.7Z" transform="translate(-236.179 -57.929)" fill="#e54c38" opacity="0.5"/>
        <path id="Path_12624" data-name="Path 12624" d="M277.769,80.085a.7.7,0,0,1,.294.473.693.693,0,0,1-.121.543l-1.374,1.934a.7.7,0,0,1-.473.294.693.693,0,0,1-.543-.121l-1.893-1.345a.675.675,0,0,1-.289-.473.693.693,0,0,1,.121-.543l1.391-1.934a.733.733,0,0,1,1.016-.173Zm7.99-13.1a8.521,8.521,0,0,1,1.824,1.732,6.669,6.669,0,0,1,1.155,2.078,5.317,5.317,0,0,1,.237,2.251,4.7,4.7,0,0,1-.889,2.234,4.762,4.762,0,0,1-1.362,1.328,5.686,5.686,0,0,1-1.53.67,9.631,9.631,0,0,1-1.6.277l-1.536.139a7.5,7.5,0,0,0-1.362.237,2.228,2.228,0,0,0-1.085.6,1.022,1.022,0,0,1-.491.277.577.577,0,0,1-.52-.1l-1.674-1.189a.762.762,0,0,1-.306-.479.612.612,0,0,1,.133-.537,4.8,4.8,0,0,1,1.437-1.247,6.593,6.593,0,0,1,1.593-.618,9.486,9.486,0,0,1,1.634-.248q.814-.052,1.524-.121a6.009,6.009,0,0,0,1.276-.254,1.732,1.732,0,0,0,.889-.675,2.049,2.049,0,0,0,.271-1.876,3.666,3.666,0,0,0-1.484-1.865,3.541,3.541,0,0,0-4.081-.087,1.442,1.442,0,0,1-.485.2.681.681,0,0,1-.5-.167l-1.778-1.264a.571.571,0,0,1-.139-.826,4.162,4.162,0,0,1,1.587-1.241,6.714,6.714,0,0,1,2.24-.577,7.862,7.862,0,0,1,2.54.2A6.927,6.927,0,0,1,285.759,66.987Z" transform="translate(-248.622 -49.672)" fill="#f3ba6f"/>
        <g id="Group_3128" data-name="Group 3128" transform="translate(24.735 15.93)" opacity="0.6">
          <path id="Path_12625" data-name="Path 12625" d="M277.769,80.085a.7.7,0,0,1,.294.473.693.693,0,0,1-.121.543l-1.374,1.934a.7.7,0,0,1-.473.294.693.693,0,0,1-.543-.121l-1.893-1.345a.675.675,0,0,1-.289-.473.693.693,0,0,1,.121-.543l1.391-1.934a.733.733,0,0,1,1.016-.173Zm7.99-13.1a8.521,8.521,0,0,1,1.824,1.732,6.669,6.669,0,0,1,1.155,2.078,5.317,5.317,0,0,1,.237,2.251,4.7,4.7,0,0,1-.889,2.234,4.762,4.762,0,0,1-1.362,1.328,5.686,5.686,0,0,1-1.53.67,9.631,9.631,0,0,1-1.6.277l-1.536.139a7.5,7.5,0,0,0-1.362.237,2.228,2.228,0,0,0-1.085.6,1.022,1.022,0,0,1-.491.277.577.577,0,0,1-.52-.1l-1.674-1.189a.762.762,0,0,1-.306-.479.612.612,0,0,1,.133-.537,4.8,4.8,0,0,1,1.437-1.247,6.593,6.593,0,0,1,1.593-.618,9.486,9.486,0,0,1,1.634-.248q.814-.052,1.524-.121a6.009,6.009,0,0,0,1.276-.254,1.732,1.732,0,0,0,.889-.675,2.049,2.049,0,0,0,.271-1.876,3.666,3.666,0,0,0-1.484-1.865,3.541,3.541,0,0,0-4.081-.087,1.442,1.442,0,0,1-.485.2.681.681,0,0,1-.5-.167l-1.778-1.264a.571.571,0,0,1-.139-.826,4.162,4.162,0,0,1,1.587-1.241,6.714,6.714,0,0,1,2.24-.577,7.862,7.862,0,0,1,2.54.2A6.927,6.927,0,0,1,285.759,66.987Z" transform="translate(-273.358 -65.603)" fill="#e54c38"/>
        </g>
      </g>
    </g>
    <g id="freepik--Character--inject-68" transform="translate(79.851 52.207)">
      <g id="freepik--character--inject-68-2" data-name="freepik--character--inject-68" transform="translate(0 0)">
        <path id="Path_12626" data-name="Path 12626" d="M191.511,130.905H171V81.213A16.273,16.273,0,0,1,187.273,64.94h1.893A16.273,16.273,0,0,1,205.44,81.213V117A13.93,13.93,0,0,1,191.511,130.905Z" transform="translate(-146.046 -63.593)" fill="#263238"/>
        <path id="Path_12627" data-name="Path 12627" d="M166.478,386.44a38.179,38.179,0,0,0-.577,6.235c-.075,3.787-.768,5.132-.86,8.238-.11,3.55.508,4.878,1.945,6.875s5.2,3.8,6.823.433,1.391-5.582.877-9.063c-.525-3.6-.577-5.594-.9-8.336-.266-2.419-.577-4.26-.577-4.26Z" transform="translate(-143.521 -199.499)" fill="#263238"/>
        <path id="Path_12628" data-name="Path 12628" d="M177.029,342.705l-12.469-.225c.185,8.324,1.507,17.566,1.732,25.4.046,1.472-.035,11.424.52,14.432.837,4.549,6.229,3.931,6.517,1.212s-.346-14.339-.329-15.54c-.052-5.011,2.309-13.468,3.527-22.462C176.579,345.089,176.971,343.138,177.029,342.705Z" transform="translate(-143.323 -180.916)" fill="#ffa8a7"/>
        <path id="Path_12629" data-name="Path 12629" d="M212.687,375.171s-.491-.266-.577.26c-.121.623-.306,1.911-.577,2.938a15.1,15.1,0,0,0-.444,4.941c.214,1.166,2.927,2.655,4.687,3.2a14.282,14.282,0,0,1,5.773,3.435,13.906,13.906,0,0,0,8.082,3.169c3.031,0,5.144-1.01,6.142-2.632s-.912-1.818-4.376-4.041l-2.684-1.732c-5.49-3.585-7.5-5.5-9.046-9.086Z" transform="translate(-162.962 -194.707)" fill="#263238"/>
        <path id="Path_12630" data-name="Path 12630" d="M218.644,353.459C218.552,350.884,220.33,329,220.33,329l-11.84,5.4c2.534,15.136,3.077,18.709,3.117,21.186h0a2.2,2.2,0,0,0-.064.635c0,2.938,3.331,4.526,5.917,6.489a48.638,48.638,0,0,0,7,4.572c1.882.941,5.7,1.028,6.177-.179a89.24,89.24,0,0,1-10.241-8.757C219.175,357.05,218.737,356.04,218.644,353.459Z" transform="translate(-161.894 -175.218)" fill="#ffa8a7"/>
        <path id="Path_12631" data-name="Path 12631" d="M169.371,202.16c-4.549,9.981-4.549,17.7-3.793,30.445.67,11.69,1.784,21.994,1.784,21.994-.173,2.072-3.054,6.119-3.429,15.286a187.783,187.783,0,0,0,.577,19.46s6.471,3.585,11.257-.035c0,0,4.618-22.046,5.969-32.772,1.155-9.358,3.233-21.313,3.233-21.313l4.37,21.249a55.423,55.423,0,0,0-2.044,9.236c-.612,6.31,2.921,18.7,2.921,18.7s6.685,1.992,10.766-1.628c0,0,1.524-20.141,2.1-27.738.762-10.177-.843-37.725-2.1-52.313Z" transform="translate(-143.025 -121.599)" fill="#233245"/>
        <path id="Path_12632" data-name="Path 12632" d="M200.45,244.386l1.8-16.014s8.047-1.074,11.7-4.5a13.208,13.208,0,0,1-9.485,5.992l-2.6,14.9,2.95,20.892Z" transform="translate(-158.495 -130.777)" fill="#263238"/>
        <path id="Path_12633" data-name="Path 12633" d="M237.064,167.835a69.482,69.482,0,0,0,.439-8.8c-.179-2.54-.635-2.956-4.185-7.453-4.791-6.079-8.884-11.545-13.214-16.978a10.349,10.349,0,0,0-9.513-4.3c-2.217.121,2.113,10.783,4.289,17.093l12.429,13.381a2.655,2.655,0,0,1,.5,1.83l-.75,11.384,3.723,4.988S236.417,174.116,237.064,167.835Z" transform="translate(-162.522 -91.211)" fill="#ffa8a7"/>
        <path id="Path_12634" data-name="Path 12634" d="M181.542,130.651h0c-2.407.167-6.783.577-6.783.577-2.523,1.409-3.163,2.569-3.631,5.917-.2,1.432.964,5.236,1.963,10.645l1.893,10.027-.208,4.976c-.981,3.036-3.2,6.806-5.167,12.365a37.9,37.9,0,0,0,25.054,4.618c5.588-.722,8.549-2.072,9.537-3.412-.208-5.49-.577-8.884-.693-14.622-.04-2.407.1-4.843.2-7.614a8.934,8.934,0,0,0,1.732-11.546c-4.751-7.7-9.375-12.538-12.434-12.29Z" transform="translate(-145.458 -91.215)" fill="#f3ba6f"/>
        <path id="Path_12635" data-name="Path 12635" d="M181.542,130.651h0c-2.407.167-6.783.577-6.783.577-2.523,1.409-3.163,2.569-3.631,5.917-.2,1.432.964,5.236,1.963,10.645l1.893,10.027-.208,4.976c-.981,3.036-3.2,6.806-5.167,12.365a37.9,37.9,0,0,0,25.054,4.618c5.588-.722,8.549-2.072,9.537-3.412-.208-5.49-.577-8.884-.693-14.622-.04-2.407.1-4.843.2-7.614a8.934,8.934,0,0,0,1.732-11.546c-4.751-7.7-9.375-12.538-12.434-12.29Z" transform="translate(-145.458 -91.215)" fill="#fff" opacity="0.6"/>
        <path id="Path_12636" data-name="Path 12636" d="M204.612,168.4s-4.4,3.417-9.427,1.634a8.6,8.6,0,0,1-5.773-6.171s-.531,5.744,5.8,7.7A8.323,8.323,0,0,0,204.612,168.4Z" transform="translate(-153.824 -105.409)" opacity="0.1"/>
        <path id="Path_12637" data-name="Path 12637" d="M206.187,93.3c-.19,8.336-2.886,10.391-4.249,10.968s-3.972.231-6.512-.19v5.034s2.933,3.071,2.713,5.363-4.618,2.552-7.9.306a24.823,24.823,0,0,1-4.866-4.393,1.784,1.784,0,0,1-.421-1.155V97.452s-1.391,1.472-3.85-.214a4.537,4.537,0,0,1-1.155-6.592,3.371,3.371,0,0,1,5.1.577c.739,1.437.837,2.886,1.663,2.309,2.194-1.582,1.016-5.2,3.666-6.927h0a19.05,19.05,0,0,1,2.7-1.155c4.728-1.634,8.827-3.008,9.814-6.24C204.756,80.272,206.418,83.465,206.187,93.3Z" transform="translate(-149.431 -69.625)" fill="#ffa8a7"/>
        <circle id="Ellipse_105" data-name="Ellipse 105" cx="1.097" cy="1.097" r="1.097" transform="translate(46.337 28.924)" fill="#b16668"/>
        <path id="Path_12638" data-name="Path 12638" d="M206.989,100.573a1.155,1.155,0,1,1-.358-.837A1.155,1.155,0,0,1,206.989,100.573Z" transform="translate(-160.283 -78.167)" fill="#263238"/>
        <path id="Path_12639" data-name="Path 12639" d="M222.291,100.855a1.068,1.068,0,0,1-.993,1.155,1.01,1.01,0,0,1-1.1-1.039,1.051,1.051,0,1,1,2.1-.1Z" transform="translate(-166.84 -78.333)" fill="#263238"/>
        <path id="Path_12640" data-name="Path 12640" d="M203.358,101.944a3.758,3.758,0,0,1-3.758-3.752c0-2.552,2.632-2.552,3.758-2.552s3.752,0,3.752,2.552A3.758,3.758,0,0,1,203.358,101.944Zm0-5.715c-2.309,0-3.163.577-3.163,1.963a3.175,3.175,0,1,0,6.35,0C206.522,96.777,205.633,96.229,203.358,96.229Z" transform="translate(-158.136 -76.57)" fill="#455a64"/>
        <path id="Path_12641" data-name="Path 12641" d="M219.868,101.944a3.758,3.758,0,0,1-3.758-3.752c0-2.552,2.632-2.552,3.758-2.552s3.752,0,3.752,2.552a3.758,3.758,0,0,1-3.752,3.752Zm0-5.715c-2.274,0-3.163.577-3.163,1.963a3.175,3.175,0,0,0,6.35,0C223.032,96.777,222.143,96.229,219.868,96.229Z" transform="translate(-165.115 -76.57)" fill="#455a64"/>
        <path id="Path_12642" data-name="Path 12642" d="M213.62,97.96l.185,7.014,3.689-1.143Z" transform="translate(-164.062 -77.551)" fill="#f28f8f"/>
        <path id="Path_12643" data-name="Path 12643" d="M200.812,119.3c-2.679-.352-8.192-1.934-9.052-4.116a5.675,5.675,0,0,0,1.934,2.782c1.645,1.414,7.118,3,7.118,3Z" transform="translate(-154.822 -84.83)" fill="#f28f8f"/>
        <path id="Path_12644" data-name="Path 12644" d="M205.731,91.527l-2.448,1.5a1.507,1.507,0,0,1,.5-2.02,1.4,1.4,0,0,1,1.951.525Z" transform="translate(-159.608 -74.524)" fill="#263238"/>
        <path id="Path_12645" data-name="Path 12645" d="M222.925,93.515l-2.725-.953a1.38,1.38,0,0,1,1.79-.912,1.512,1.512,0,0,1,.935,1.865Z" transform="translate(-166.844 -74.85)" fill="#263238"/>
        <path id="Path_12646" data-name="Path 12646" d="M211.884,99.781a.294.294,0,0,1-.294-.3c0-.479.947-.791,1.8-.791s1.4.312,1.4.791a.3.3,0,0,1-.577,0c0-.058-.294-.2-.808-.2a3.239,3.239,0,0,0-1.212.208.294.294,0,0,1-.312.294Z" transform="translate(-163.204 -77.86)" fill="#455a64"/>
        <path id="Path_12647" data-name="Path 12647" d="M194.482,99.2h-.035l-6.6-.577a3.2,3.2,0,0,0-1.079-.7l7.747.716a.3.3,0,0,1,.26.329A.294.294,0,0,1,194.482,99.2Z" transform="translate(-152.712 -77.534)" fill="#455a64"/>
        <path id="Path_12648" data-name="Path 12648" d="M142.451,91.155c2.159-2.886,3.631-5.063,5.6-7.5,1.12-1.4,1.836-2.407,2.886-3.845.739-.993,1.155-1.83,2-2.136a6.928,6.928,0,0,0,2.407-1.651,14.5,14.5,0,0,0,1.155-1.455,21.706,21.706,0,0,1,4.364-4.393c1.732-1.3,3.666-2.309,5.449-3.55,1.062-.745,2.2-1.98.906-3.135a3.077,3.077,0,0,0-1.38-.664c-3.146-.681-5.882.4-8.959,1.183a25.313,25.313,0,0,0-3.908,1.322,6.956,6.956,0,0,0-1.732.993,9.138,9.138,0,0,0-1.784,2.552c-1.345,2.4-4.231,4.549-6.252,6.448-2.361,2.223-4.474,4.26-7.17,6.708-2.425,2.211-4.8,4.243-7.02,6.656-1.841,1.992-1.155,3.55-.912,4.093,1.5,3.083,3.181,4.191,5.2,6.1,3.464,3.308,15.442,12.827,19.408,15.973a6.431,6.431,0,0,1,1.945,2.54l.762,1.761c4.526.831,7.545-5.963,3.8-14.143a8.584,8.584,0,0,0-2.754-3.319C151.722,98.243,142.451,91.155,142.451,91.155Z" transform="translate(-127.772 -62.606)" fill="#ffa8a7"/>
        <path id="Path_12649" data-name="Path 12649" d="M149.15,112.06a11.909,11.909,0,0,1-5.53,3.8s2.886.739,6.841-2.811Z" transform="translate(-134.471 -83.512)" fill="#f28f8f"/>
        <path id="Path_12650" data-name="Path 12650" d="M242.286,184.343h0l-.739-.635h0a.843.843,0,0,0-.756-.087l-8.018,2.182a2.956,2.956,0,0,0-1.8,1.686L225.2,204.132a.762.762,0,0,0,.1.849h0l.762.658h0a.831.831,0,0,0,.768.092l8.03-2.182a2.956,2.956,0,0,0,1.8-1.686c1.155-3.273,4.618-13.37,5.773-16.643C242.574,184.811,242.505,184.5,242.286,184.343Z" transform="translate(-168.921 -113.74)" fill="#455a64"/>
        <path id="Path_12651" data-name="Path 12651" d="M226.516,205.248l5.773-16.643a2.933,2.933,0,0,1,1.8-1.68l8.013-2.182c.745-.2,1.155.225.889.952-1.155,3.273-4.618,13.37-5.773,16.643a2.956,2.956,0,0,1-1.8,1.686l-8.013,2.205C226.666,206.4,226.268,205.975,226.516,205.248Z" transform="translate(-169.483 -114.215)" fill="#e54c38"/>
        <path id="Path_12652" data-name="Path 12652" d="M232.661,188.946a2.886,2.886,0,0,0-.935,1.224l-5.773,16.637a.785.785,0,0,0,.081.831l-.716-.612h0a.75.75,0,0,1-.11-.849l5.773-16.643a2.835,2.835,0,0,1,.86-1.155Z" transform="translate(-168.925 -115.774)" fill="#37474f"/>
        <path id="Path_12653" data-name="Path 12653" d="M243.287,195.88c-.577,1.691-2.58,2.823-5.894,3.608s-5.144,4.3-4.618,5.369,5.882,2.067,8.024,1.761,4.289-3.4,4.941-4.358,1.4-7.643.716-8.561a2.6,2.6,0,0,0-2.136-.774Z" transform="translate(-172.122 -117.691)" fill="#f28f8f"/>
      </g>
    </g>
  </g>
</svg>
