<svg xmlns="http://www.w3.org/2000/svg" width="16" height="16" viewBox="0 0 16 16">
  <g id="Group_13666" data-name="Group 13666" transform="translate(-201 -402)">
    <rect id="Rectangle_2259" data-name="Rectangle 2259" width="16" height="16" rx="8" transform="translate(201 402)" fill="#fff"/>
    <g id="Iconly_Bold_Heart" data-name="Iconly/Bold/Heart" transform="translate(204 406)">
      <g id="Heart" transform="translate(0 0)">
        <path id="Heart-2" data-name="Heart" d="M5.016,9h0l-.129-.076A18.982,18.982,0,0,1,1.7,6.574,6.118,6.118,0,0,1,.2,4.3,3.488,3.488,0,0,1,.268,1.8,2.982,2.982,0,0,1,2.162.128a2.358,2.358,0,0,1,.445-.1h.06A3.008,3.008,0,0,1,3.087,0h.055a3.289,3.289,0,0,1,.915.156h.03a.166.166,0,0,1,.045.028,1.741,1.741,0,0,1,.315.124l.19.08a1.322,1.322,0,0,1,.143.09c.029.02.053.037.072.048l.02.011A1.228,1.228,0,0,1,5,.616,3.225,3.225,0,0,1,6.9,0h.022a3.062,3.062,0,0,1,.93.138A2.95,2.95,0,0,1,9.734,1.8a3.564,3.564,0,0,1,.077,2.5,6.018,6.018,0,0,1-1.5,2.278A19.192,19.192,0,0,1,5.141,8.929L5.017,9ZM7.47,1.477a.4.4,0,0,0-.378.257.383.383,0,0,0,.25.487.8.8,0,0,1,.535.744V2.98a.393.393,0,0,0,.095.294.428.428,0,0,0,.285.137.4.4,0,0,0,.4-.36V2.994A1.566,1.566,0,0,0,7.6,1.5.41.41,0,0,0,7.47,1.477Z" transform="translate(0 0)" fill="#e54c38"/>
      </g>
    </g>
  </g>
</svg>
