<svg xmlns="http://www.w3.org/2000/svg" width="11" height="12" viewBox="0 0 11 12">
  <g id="Notification" transform="translate(0 0)">
    <path id="Notification-2" data-name="Notification" d="M5.165,11.98a2.44,2.44,0,0,1-1.109-.44.922.922,0,0,1-.45-.7c0-.3.3-.441.575-.5a18.107,18.107,0,0,1,2.618,0c.277.059.575.2.575.5a.923.923,0,0,1-.45.7,2.451,2.451,0,0,1-1.108.439,2.785,2.785,0,0,1-.331.02A2.556,2.556,0,0,1,5.165,11.98ZM2.435,9.448A3.028,3.028,0,0,1,.559,8.6,2.076,2.076,0,0,1,0,7.173,1.925,1.925,0,0,1,.473,5.787a2.188,2.188,0,0,0,.688-1.71V3.822a3.222,3.222,0,0,1,.83-2.315A4.729,4.729,0,0,1,5.471,0h.058A4.7,4.7,0,0,1,9.067,1.575,3.171,3.171,0,0,1,9.84,3.822v.255a2.24,2.24,0,0,0,.687,1.71A1.922,1.922,0,0,1,11,7.173,2.076,2.076,0,0,1,10.442,8.6a3.031,3.031,0,0,1-1.876.848C7.548,9.528,6.531,9.6,5.5,9.6A29.07,29.07,0,0,1,2.435,9.448Z" transform="translate(0 0)" fill="#e54c38"/>
  </g>
</svg>
