<svg xmlns="http://www.w3.org/2000/svg" width="14.07" height="13.677" viewBox="0 0 14.07 13.677">
  <g id="shopping-bag-option-icon" transform="translate(0.005)">
    <path id="Path_27324" data-name="Path 27324" d="M1.185,0H12.878a.235.235,0,0,1,.228.228l.96,13.221a.224.224,0,0,1-.228.228H.224A.223.223,0,0,1,0,13.449L.956.228A.235.235,0,0,1,1.185,0ZM3.8,2.722V4.477h0a3.114,3.114,0,0,0,3.1,3.1H6.9a3.114,3.114,0,0,0,3.1-3.1h0V2.7a.944.944,0,1,1,.794-.1V4.481h0A3.9,3.9,0,0,1,6.9,8.372v0H6.894v0A3.9,3.9,0,0,1,3,4.479H3V2.557a.944.944,0,1,1,.795.165Z" fill="#e54c38" fill-rule="evenodd"/>
  </g>
</svg>
