<svg xmlns="http://www.w3.org/2000/svg" width="13.06" height="13.059" viewBox="0 0 13.06 13.059">
  <path id="pause-button-round-icon" d="M5.57,4.958H6.69a.274.274,0,0,1,.272.272V9.851a.274.274,0,0,1-.272.272H5.57A.274.274,0,0,1,5.3,9.851V5.23a.273.273,0,0,1,.272-.272Zm2.821,0H9.512a.274.274,0,0,1,.272.272V9.851a.274.274,0,0,1-.272.272H8.391a.274.274,0,0,1-.272-.272V5.23a.273.273,0,0,1,.272-.272Zm3.768-2.035a6.53,6.53,0,1,0,1.912,4.617,6.511,6.511,0,0,0-1.912-4.617Z" transform="translate(-1.011 -1.011)" fill="#e54c38"/>
</svg>
