<svg xmlns="http://www.w3.org/2000/svg" width="22" height="22" viewBox="0 0 22 22">
  <g id="Group_376" data-name="Group 376" transform="translate(-0.193 -0.289)">
    <circle id="Ellipse_270" data-name="Ellipse 270" cx="11" cy="11" r="11" transform="translate(0.193 0.289)" fill="#e54c38"/>
    <g id="Iconly_Broken_Edit" data-name="Iconly/Broken/Edit" transform="translate(18.707 4.402) rotate(90)">
      <g id="Edit" transform="translate(0 0)">
        <path id="Edit-2" data-name="Edit" d="M12.316,2.909a2.57,2.57,0,0,0-.943-1.441L10.25.578A2.162,2.162,0,0,0,7.082.808L3.158,5.868a.618.618,0,0,0,.1.86.6.6,0,0,0,.852-.1L6.4,3.668,7.8,4.8a.6.6,0,0,0,.852-.1.616.616,0,0,0-.094-.86L7.151,2.7l.885-1.14A.976.976,0,0,1,9.5,1.542l1.123.891a1.348,1.348,0,0,1,.507.737.827.827,0,0,1-.177.706l-6.7,8.637a.588.588,0,0,1-.459.229l-2.1.026-.474-2.063a.6.6,0,0,1,.111-.506l.879-1.134a.617.617,0,0,0-.1-.86.6.6,0,0,0-.851.1L.385,9.444a1.831,1.831,0,0,0-.338,1.539l.585,2.543A.607.607,0,0,0,1.223,14H1.23l2.584-.033a1.79,1.79,0,0,0,1.4-.7l6.7-8.637a2.062,2.062,0,0,0,.406-1.722" fill="#fff"/>
      </g>
    </g>
  </g>
</svg>
