<svg xmlns="http://www.w3.org/2000/svg" xmlns:xlink="http://www.w3.org/1999/xlink" width="389" height="31" viewBox="0 0 389 31">
  <defs>
    <filter id="Rectangle_2140" x="0" y="6" width="389" height="23" filterUnits="userSpaceOnUse">
      <feOffset dy="3" input="SourceAlpha"/>
      <feGaussianBlur stdDeviation="3" result="blur"/>
      <feFlood flood-color="#949494" flood-opacity="0.161"/>
      <feComposite operator="in" in2="blur"/>
      <feComposite in="SourceGraphic"/>
    </filter>
    <filter id="Ellipse_702" x="89" y="0" width="31" height="31" filterUnits="userSpaceOnUse">
      <feOffset input="SourceAlpha"/>
      <feGaussianBlur stdDeviation="3" result="blur-2"/>
      <feFlood flood-opacity="0.11"/>
      <feComposite operator="in" in2="blur-2"/>
      <feComposite in="SourceGraphic"/>
    </filter>
    <filter id="Ellipse_702-2" x="178" y="0" width="31" height="31" filterUnits="userSpaceOnUse">
      <feOffset input="SourceAlpha"/>
      <feGaussianBlur stdDeviation="3" result="blur-3"/>
      <feFlood flood-opacity="0.11"/>
      <feComposite operator="in" in2="blur-3"/>
      <feComposite in="SourceGraphic"/>
    </filter>
    <filter id="Ellipse_702-3" x="356" y="0" width="31" height="31" filterUnits="userSpaceOnUse">
      <feOffset input="SourceAlpha"/>
      <feGaussianBlur stdDeviation="3" result="blur-4"/>
      <feFlood flood-opacity="0.11"/>
      <feComposite operator="in" in2="blur-4"/>
      <feComposite in="SourceGraphic"/>
    </filter>
    <filter id="Ellipse_707" x="264" y="0" width="31" height="31" filterUnits="userSpaceOnUse">
      <feOffset input="SourceAlpha"/>
      <feGaussianBlur stdDeviation="3" result="blur-5"/>
      <feFlood flood-opacity="0.11"/>
      <feComposite operator="in" in2="blur-5"/>
      <feComposite in="SourceGraphic"/>
    </filter>
  </defs>
  <g id="Group_13670" data-name="Group 13670" transform="translate(-20 -123)">
    <g id="Group_13668" data-name="Group 13668" transform="translate(1)">
      <g transform="matrix(1, 0, 0, 1, 19, 123)" filter="url(#Rectangle_2140)">
        <rect id="Rectangle_2140-2" data-name="Rectangle 2140" width="371" height="5" rx="2.5" transform="translate(9 12)" fill="#fff"/>
      </g>
      <circle id="Ellipse_702-4" data-name="Ellipse 702" cx="9" cy="9" r="9" transform="translate(28 130)" fill="#e54c38"/>
      <g transform="matrix(1, 0, 0, 1, 19, 123)" filter="url(#Ellipse_702)">
        <circle id="Ellipse_702-5" data-name="Ellipse 702" cx="6.5" cy="6.5" r="6.5" transform="translate(98 9)" fill="#fff"/>
      </g>
      <g transform="matrix(1, 0, 0, 1, 19, 123)" filter="url(#Ellipse_702-2)">
        <circle id="Ellipse_702-6" data-name="Ellipse 702" cx="6.5" cy="6.5" r="6.5" transform="translate(187 9)" fill="#fff"/>
      </g>
      <g transform="matrix(1, 0, 0, 1, 19, 123)" filter="url(#Ellipse_702-3)">
        <circle id="Ellipse_702-7" data-name="Ellipse 702" cx="6.5" cy="6.5" r="6.5" transform="translate(365 9)" fill="#fff"/>
      </g>
      <g transform="matrix(1, 0, 0, 1, 19, 123)" filter="url(#Ellipse_707)">
        <circle id="Ellipse_707-2" data-name="Ellipse 707" cx="6.5" cy="6.5" r="6.5" transform="translate(273 9)" fill="#fff"/>
      </g>
      <circle id="Ellipse_702-8" data-name="Ellipse 702" cx="9" cy="9" r="9" transform="translate(28 130)" fill="#e54c38"/>
    </g>
  </g>
</svg>
