<svg xmlns="http://www.w3.org/2000/svg" width="13.07" height="14.523" viewBox="0 0 13.07 14.523">
  <g id="Iconly_Bold_Swap" data-name="Iconly/Bold/Swap" transform="translate(13.07) rotate(90)">
    <g id="Swap" transform="translate(0)">
      <path id="Swap-2" data-name="Swap" d="M10.5,12.868a3.228,3.228,0,0,1-.315-.286A12.827,12.827,0,0,1,7.921,9.218a2.949,2.949,0,0,1-.233-.783V8.4a1.061,1.061,0,0,1,.565-.935,4.731,4.731,0,0,1,.755-.2,15.175,15.175,0,0,1,2.1-.125,13.017,13.017,0,0,1,2.168.143,5.409,5.409,0,0,1,.606.152A1.089,1.089,0,0,1,14.4,7.9a1.186,1.186,0,0,1,.124.531,2.813,2.813,0,0,1-.191.7,12.906,12.906,0,0,1-2.291,3.439c-.116.118-.257.244-.291.278a1.039,1.039,0,0,1-.647.219A.99.99,0,0,1,10.5,12.868ZM2.552,11.195,2.739,7.87a.678.678,0,1,1,1.356,0l.186,3.324a.865.865,0,1,1-1.729,0ZM1.245,5.789a5.372,5.372,0,0,1-.606-.152,1.083,1.083,0,0,1-.515-.472A1.176,1.176,0,0,1,0,4.635a2.863,2.863,0,0,1,.19-.7A12.9,12.9,0,0,1,2.482.5C2.6.38,2.74.253,2.773.219A1.041,1.041,0,0,1,3.421,0a.994.994,0,0,1,.606.2,3.33,3.33,0,0,1,.316.287A12.889,12.889,0,0,1,6.6,3.852a2.983,2.983,0,0,1,.233.784v.034a1.063,1.063,0,0,1-.565.935,4.678,4.678,0,0,1-.755.2,15.179,15.179,0,0,1-2.1.125A13.017,13.017,0,0,1,1.245,5.789ZM10.428,5.2l-.187-3.325a.865.865,0,1,1,1.729,0L11.784,5.2a.678.678,0,1,1-1.356,0Z" transform="translate(0)" fill="#e54c38"/>
    </g>
  </g>
</svg>
