<svg xmlns="http://www.w3.org/2000/svg" width="15.618" height="15.44" viewBox="0 0 15.618 15.44">
  <g id="Iconly_Light_Calling" data-name="Iconly/Light/Calling" transform="translate(0.503 0.501)">
    <g id="Calling">
      <path id="Stroke_1" data-name="Stroke 1" d="M.373,1.8C.615,1.4,1.944-.043,2.891,0a1.253,1.253,0,0,1,.737.392h0a12.829,12.829,0,0,1,1.88,2.537c.186.888-.877,1.4-.552,2.294A7.512,7.512,0,0,0,9.24,9.492c.9.325,1.411-.733,2.3-.549a12.851,12.851,0,0,1,2.546,1.875h0a1.244,1.244,0,0,1,.394.735c.035.995-1.507,2.337-1.807,2.509a2.645,2.645,0,0,1-2.762-.026C6.763,12.73,1.733,7.811.4,4.556A2.627,2.627,0,0,1,.373,1.8Z" transform="translate(0 0)" fill="none" stroke="#2f7825" stroke-linecap="round" stroke-linejoin="round" stroke-miterlimit="10" stroke-width="1"/>
      <path id="Path" d="M0,0A6.065,6.065,0,0,1,5.366,5.342" transform="translate(9.196 0.19)" fill="none" stroke="#2f7825" stroke-linecap="round" stroke-linejoin="round" stroke-miterlimit="10" stroke-width="1"/>
      <path id="Path-2" data-name="Path" d="M0,0A3.368,3.368,0,0,1,2.666,2.657" transform="translate(9.196 2.882)" fill="none" stroke="#2f7825" stroke-linecap="round" stroke-linejoin="round" stroke-miterlimit="10" stroke-width="1"/>
    </g>
  </g>
</svg>
