<svg xmlns="http://www.w3.org/2000/svg" width="12.33" height="12.18" viewBox="0 0 12.33 12.18">
  <g id="Iconly_Light_Calling" data-name="Iconly/Light/Calling" transform="translate(0.503 0.501)">
    <g id="Calling">
      <path id="Stroke_1" data-name="Stroke 1" d="M.289,1.4C.476,1.087,1.5-.033,2.238,0a.97.97,0,0,1,.571.3h0A9.932,9.932,0,0,1,4.265,2.269c.144.687-.679,1.084-.427,1.776a5.816,5.816,0,0,0,3.316,3.3c.694.251,1.092-.568,1.782-.425a9.949,9.949,0,0,1,1.971,1.451h0a.963.963,0,0,1,.3.569c.027.77-1.167,1.81-1.4,1.942a2.048,2.048,0,0,1-2.139-.02C5.236,9.856,1.342,6.047.309,3.527A2.034,2.034,0,0,1,.289,1.4Z" transform="translate(0 0)" fill="none" stroke="#2f7825" stroke-linecap="round" stroke-linejoin="round" stroke-miterlimit="10" stroke-width="1"/>
      <path id="Path" d="M0,0A4.7,4.7,0,0,1,4.155,4.136" transform="translate(7.119 0.147)" fill="none" stroke="#2f7825" stroke-linecap="round" stroke-linejoin="round" stroke-miterlimit="10" stroke-width="1"/>
      <path id="Path-2" data-name="Path" d="M0,0A2.607,2.607,0,0,1,2.064,2.057" transform="translate(7.119 2.231)" fill="none" stroke="#2f7825" stroke-linecap="round" stroke-linejoin="round" stroke-miterlimit="10" stroke-width="1"/>
    </g>
  </g>
</svg>
